<svg width="53" height="54" viewBox="0 0 53 54" fill="none" xmlns="http://www.w3.org/2000/svg">
<g clip-path="url(#clip0_21_2078)">
<path d="M42.5359 35.5468L44.2141 34.5842C45.7957 33.676 46.7027 32.1144 46.7027 30.2999V27.9504C46.7027 27.3646 46.8351 26.8748 47.1312 26.3635L48.3135 24.3294C49.2288 22.7567 49.2288 20.9526 48.3137 19.3805L47.1319 17.3471C46.8351 16.8347 46.7027 16.3448 46.7027 15.7591V13.4096C46.7027 11.5951 45.7957 10.0336 44.2136 9.12517L42.1675 7.95155C41.651 7.65368 41.2901 7.29547 40.9966 6.78916L39.8139 4.75437C38.8984 3.18122 37.3267 2.27892 35.5012 2.27892H33.1329C32.5415 2.27892 32.0494 2.14837 31.5386 1.85628L29.4905 0.681552C27.9078 -0.227184 26.0919 -0.227184 24.5093 0.681552L22.4622 1.85561C21.9504 2.14826 21.4575 2.27881 20.8637 2.27881H18.4987C16.6695 2.27881 15.0973 3.18155 14.1858 4.75459L13.0043 6.78738C12.7067 7.29669 12.3452 7.65579 11.8343 7.95044L9.7859 9.12539C8.20232 10.0348 7.29415 11.5964 7.29415 13.4097V15.7592C7.29415 16.3491 7.16274 16.8387 6.86881 17.3461L5.68652 19.3803C4.7712 20.9528 4.7712 22.7569 5.6863 24.3291L6.86814 26.3626C7.16274 26.871 7.29415 27.3608 7.29415 27.9505V30.3C7.29415 32.1133 8.20232 33.6749 9.78635 34.5846L11.4642 35.547L5.12183 46.4593C4.95305 46.7496 4.96312 47.1093 5.14755 47.3899C5.33209 47.6705 5.66046 47.8235 5.99498 47.7872L13.0485 47.0118L15.9007 53.4684C16.0363 53.7752 16.334 53.9802 16.6707 53.9987C16.6873 53.9996 16.7037 54 16.7202 54C17.0385 54 17.3344 53.8316 17.4948 53.5556L23.8378 42.6429L24.5087 43.0276C25.3003 43.4822 26.1501 43.7095 26.9999 43.7095C27.8494 43.7095 28.6991 43.4823 29.4904 43.0278L30.1617 42.6429L36.5048 53.5556C36.6651 53.8316 36.9611 54 37.2794 54C37.2958 54 37.3124 53.9996 37.3288 53.9987C37.6656 53.9802 37.9633 53.7752 38.0989 53.4684L40.9511 47.0118L48.0046 47.7872C48.3386 47.8236 48.6675 47.6705 48.852 47.3899C49.0364 47.1093 49.0465 46.7494 48.8777 46.4593L42.5359 35.5468ZM12.8616 36.698C12.9104 36.7691 12.958 36.8425 13.0035 36.9204L13.797 38.2857L9.54421 45.6085L7.55575 45.827L12.8616 36.698ZM13.5055 45.1731L11.7511 45.366L14.9118 39.9238C15.8314 40.8898 17.0877 41.4277 18.4989 41.4277H18.5498L15.1331 47.3062L14.4233 45.6994C14.2661 45.3434 13.8936 45.1305 13.5055 45.1731ZM16.8293 51.1462L16.0253 49.3261L20.6161 41.4277H20.8641C21.3865 41.4277 21.833 41.5313 22.2856 41.7593L16.8293 51.1462ZM28.5956 41.4888C27.5667 42.0795 26.4335 42.0797 25.4042 41.4886L23.3553 40.3133C22.564 39.8608 21.7723 39.6499 20.8641 39.6499H18.499C17.3089 39.6499 16.3279 39.0878 15.7358 38.0661L14.5523 36.0297C14.0926 35.2431 13.5131 34.6677 12.7294 34.2196L10.6818 33.0451C9.65136 32.4533 9.08386 31.4784 9.08386 30.2999V27.9504C9.08386 27.0445 8.8727 26.2582 8.41873 25.4745L7.23599 23.4396C6.64121 22.4176 6.64121 21.2917 7.23622 20.2693L8.4194 18.2337C8.87282 17.4513 9.08386 16.6649 9.08386 15.759V13.4095C9.08386 12.231 9.65136 11.2561 10.6813 10.6645L12.7312 9.48882C13.5172 9.03539 14.0959 8.46064 14.5532 7.67801L15.7364 5.64244C16.3204 4.63459 17.3274 4.05651 18.4989 4.05651H20.864C21.7759 4.05651 22.5674 3.84674 23.3562 3.39576L25.4046 2.22082C26.4335 1.62995 27.5667 1.63006 28.5954 2.22082L30.645 3.39632C31.4327 3.84674 32.2233 4.05651 33.1329 4.05651H35.5012C36.6875 4.05651 37.6689 4.62026 38.2644 5.64355L39.4463 7.67712C39.8981 8.45653 40.4772 9.03228 41.2707 9.48993L43.3183 10.6644C44.3467 11.255 44.9131 12.2299 44.9131 13.4096V15.7591C44.9131 16.661 45.1252 17.4475 45.5815 18.235L46.7642 20.2699C47.359 21.2919 47.359 22.4177 46.764 23.4402L45.5808 25.4759C45.1253 26.2622 44.9131 27.0486 44.9131 27.9505V30.3C44.9131 31.4798 44.3469 32.4548 43.3188 33.0451L41.2717 34.2191C40.4814 34.6711 39.9013 35.2473 39.4469 36.0316L38.2646 38.0658C37.6702 39.0873 36.6887 39.65 35.5012 39.65H33.1329C32.2269 39.65 31.4363 39.8608 30.6438 40.314L28.5956 41.4888ZM37.1709 51.1461L31.7147 41.7593C32.1677 41.5312 32.613 41.4277 33.1331 41.4277H33.3842L37.9738 49.329L37.1709 51.1461ZM40.4948 45.1731C40.1061 45.1305 39.7342 45.3434 39.5771 45.6994L38.8662 47.3088L35.4502 41.4277H35.5014C36.9097 41.4277 38.1652 40.89 39.0861 39.9244L42.2486 45.366L40.4948 45.1731ZM44.4559 45.6085L40.2017 38.2883L40.9974 36.9194C41.0426 36.8416 41.0899 36.7683 41.1384 36.6972L46.4446 45.8272L44.4559 45.6085ZM39.2244 14.842C35.3324 8.14932 26.6819 5.84743 19.9414 9.71069C13.2035 13.5777 10.886 22.17 14.7758 28.8642C17.388 33.3583 22.1424 35.8733 27.0251 35.8733C29.4168 35.8733 31.8402 35.2692 34.056 33.9986C40.7954 30.1326 43.1141 21.5393 39.2244 14.842ZM16.3256 27.9754C12.9289 22.13 14.9524 14.6271 20.8361 11.2503C26.7223 7.87756 34.2766 9.88724 37.6749 15.7309C41.0713 21.5789 39.0466 29.0833 33.1615 32.4591C27.2766 35.8338 19.7239 33.8221 16.3256 27.9754ZM32.7369 18.259H30.775L30.9519 16.4036C31.1258 14.5819 30.1154 13.4923 29.0369 13.2204C27.8397 12.9189 26.6389 13.5619 26.1182 14.7769L24.3741 18.7496C24.3604 18.7649 24.279 18.8071 24.1388 18.8071H20.3789C19.6879 18.8071 19.1259 19.3655 19.1259 20.0518V27.7899C19.1259 28.4762 19.6879 29.0346 20.3789 29.0346H31.9886C33.0017 29.0346 33.718 28.3734 33.9046 27.2658C33.9059 27.2583 33.907 27.2508 33.9081 27.2432L34.8656 20.5034C34.8714 20.4623 34.8743 20.4208 34.8743 20.3792C34.8743 19.2101 33.9155 18.259 32.7369 18.259ZM23.1935 27.2569H20.9155V20.5848H23.1935V27.2569ZM32.1381 26.9823C32.1083 27.152 32.0677 27.2276 32.0518 27.2521C32.0403 27.2543 32.0202 27.2569 31.9889 27.2569H24.9831V20.4282C25.4462 20.2454 25.8141 19.9106 26.0118 19.4655L27.7618 15.4803C27.9747 14.983 28.3322 14.8767 28.5969 14.9435C29.0103 15.0477 29.2355 15.5549 29.1704 16.2358L28.9009 19.064C28.8772 19.3133 28.9603 19.5608 29.1299 19.746C29.2995 19.9312 29.5397 20.0367 29.7917 20.0367H32.737C32.911 20.0367 33.0601 20.1702 33.0821 20.3367L32.1381 26.9823Z" fill="white" stroke="white" stroke-width="0.6"/>
</g>
<defs>
<clipPath id="clip0_21_2078">
<rect width="53" height="54" fill="white"/>
</clipPath>
</defs>
</svg>
