<svg width="54" height="36" viewBox="0 0 54 36" fill="none" xmlns="http://www.w3.org/2000/svg">
<path d="M53.4135 16.8426L50.1427 13.8323C49.9197 13.6271 49.7487 13.3726 49.6435 13.0895L47.075 6.1689C46.7076 5.19358 46.0494 4.3525 45.1881 3.75776C44.3268 3.16302 43.3033 2.84287 42.2539 2.83998H38.3622V1.75668C38.3622 1.2908 38.1756 0.844007 37.8436 0.514584C37.5116 0.185161 37.0613 9.26105e-05 36.5918 9.26105e-05H13.0721C12.7222 -0.00399693 12.3844 0.127495 12.1306 0.366619C11.8769 0.605743 11.7271 0.933644 11.7131 1.28062C11.7099 1.45407 11.7415 1.62642 11.8061 1.78761C11.8707 1.94879 11.9671 2.09558 12.0896 2.21939C12.212 2.3432 12.3581 2.44155 12.5193 2.50869C12.6806 2.57583 12.8536 2.61042 13.0285 2.61043H35.7313V13.936C35.7313 14.4019 35.9178 14.8487 36.2498 15.1781C36.5818 15.5075 37.0321 15.6926 37.5016 15.6926H48.1931L51.3685 18.528V29.1048H48.4897C48.2031 27.8602 47.4991 26.749 46.493 25.9531C45.4869 25.1572 44.2383 24.7238 42.9515 24.7238C41.6648 24.7238 40.4162 25.1572 39.4101 25.9531C38.404 26.749 37.7 27.8602 37.4134 29.1048H28.555C28.2684 27.8602 27.5644 26.749 26.5583 25.9531C25.5522 25.1572 24.3036 24.7238 23.0169 24.7238C21.7301 24.7238 20.4815 25.1572 19.4754 25.9531C18.4693 26.749 17.7653 27.8602 17.4787 29.1048H13.072C12.722 29.1007 12.3842 29.2323 12.1305 29.4715C11.8767 29.7107 11.727 30.0386 11.7131 30.3857C11.7099 30.5591 11.7415 30.7314 11.8061 30.8926C11.8707 31.0538 11.9671 31.2006 12.0896 31.3244C12.212 31.4482 12.3581 31.5465 12.5194 31.6137C12.6806 31.6808 12.8536 31.7154 13.0285 31.7154H17.5008C17.8055 32.9383 18.5143 34.0248 19.514 34.8014C20.5137 35.578 21.7468 36 23.0165 36C24.2862 36 25.5192 35.578 26.519 34.8014C27.5187 34.0248 28.2275 32.9383 28.5322 31.7154H37.4357C37.7404 32.9383 38.4492 34.0248 39.4489 34.8014C40.4486 35.578 41.6817 36 42.9514 36C44.2211 36 45.4541 35.578 46.4539 34.8014C47.4536 34.0248 48.1624 32.9383 48.4671 31.7154H52.2291C52.6986 31.7154 53.1489 31.5303 53.4809 31.2009C53.8129 30.8715 53.9994 30.4247 53.9995 29.9589V18.1482C53.9993 17.902 53.947 17.6586 53.8461 17.4337C53.7451 17.2088 53.5978 17.0075 53.4135 16.8426ZM38.3622 13.0825V5.45022H42.2539C42.7663 5.45161 43.266 5.60792 43.6866 5.89831C44.1071 6.1887 44.4285 6.59938 44.6078 7.0756L46.8501 13.0825H38.3622ZM23.0165 33.3893C22.413 33.3893 21.8231 33.2117 21.3213 32.879C20.8195 32.5464 20.4284 32.0735 20.1975 31.5203C19.9665 30.9671 19.9061 30.3583 20.0238 29.771C20.1416 29.1837 20.4322 28.6442 20.859 28.2208C21.2857 27.7974 21.8294 27.5091 22.4213 27.3923C23.0132 27.2755 23.6267 27.3354 24.1843 27.5646C24.7419 27.7938 25.2184 28.1818 25.5537 28.6797C25.8889 29.1776 26.0679 29.763 26.0679 30.3618C26.0669 31.1645 25.7452 31.934 25.1731 32.5016C24.6011 33.0692 23.8255 33.3884 23.0165 33.3893ZM42.9514 33.3893C42.3479 33.3893 41.758 33.2118 41.2562 32.8791C40.7544 32.5464 40.3633 32.0736 40.1323 31.5204C39.9013 30.9671 39.8409 30.3584 39.9586 29.7711C40.0764 29.1838 40.367 28.6443 40.7937 28.2209C41.2205 27.7974 41.7642 27.5091 42.3561 27.3923C42.948 27.2755 43.5615 27.3354 44.1191 27.5646C44.6766 27.7937 45.1532 28.1818 45.4885 28.6797C45.8237 29.1776 46.0027 29.763 46.0027 30.3618C46.0017 31.1645 45.68 31.934 45.108 32.5015C44.5359 33.0691 43.7604 33.3884 42.9514 33.3893Z" fill="white"/>
<path d="M7.41126 9.91241H22.3293C22.6782 9.91241 23.0128 9.77489 23.2595 9.53009C23.5063 9.28529 23.6449 8.95328 23.6449 8.60708C23.6449 8.26089 23.5063 7.92887 23.2595 7.68408C23.0128 7.43928 22.6782 7.30176 22.3293 7.30176H7.41126C7.06235 7.30176 6.72774 7.43928 6.48102 7.68408C6.23431 7.92887 6.0957 8.26089 6.0957 8.60708C6.0957 8.95328 6.23431 9.28529 6.48102 9.53009C6.72774 9.77489 7.06235 9.91241 7.41126 9.91241Z" fill="white"/>
<path d="M23.646 15.8577C23.646 15.5116 23.5074 15.1795 23.2607 14.9347C23.0139 14.6899 22.6793 14.5524 22.3304 14.5524H1.32734C1.15359 14.5509 0.981259 14.5835 0.820289 14.6484C0.65932 14.7133 0.512902 14.8092 0.389492 14.9306C0.266081 15.0519 0.168122 15.1963 0.101271 15.3555C0.0344194 15.5146 0 15.6853 0 15.8577C0 16.0301 0.0344194 16.2008 0.101271 16.3599C0.168122 16.519 0.266081 16.6635 0.389492 16.7848C0.512902 16.9062 0.65932 17.0021 0.820289 17.067C0.981259 17.1319 1.15359 17.1645 1.32734 17.163H22.3304C22.6793 17.163 23.0139 17.0255 23.2606 16.7807C23.5073 16.5359 23.646 16.2039 23.646 15.8577Z" fill="white"/>
<path d="M15.3154 23.1086C15.3154 22.9372 15.2814 22.7674 15.2153 22.6091C15.1492 22.4507 15.0523 22.3068 14.9301 22.1856C14.808 22.0644 14.663 21.9683 14.5034 21.9027C14.3438 21.8371 14.1727 21.8033 14 21.8033H4.85652C4.50966 21.8064 4.17807 21.9453 3.9339 22.1898C3.68973 22.4342 3.55273 22.7644 3.55273 23.1086C3.55273 23.4528 3.68973 23.783 3.9339 24.0275C4.17807 24.2719 4.50966 24.4108 4.85652 24.4139H14C14.3488 24.4139 14.6834 24.2763 14.9301 24.0315C15.1768 23.7867 15.3154 23.4547 15.3154 23.1086Z" fill="white"/>
</svg>
