<svg width="55" height="54" viewBox="0 0 55 54" fill="none" xmlns="http://www.w3.org/2000/svg">
<path d="M51.6227 23.39C51.4078 17.238 48.9286 11.4853 44.5751 7.11076C40.0121 2.52476 33.9477 0 27.5 0C14.4775 0 3.83686 10.4154 3.37819 23.39C1.39092 24.2774 0 26.2761 0 28.599V34.9986C0 38.1411 2.54417 40.6985 5.67242 40.6985C7.69653 40.6985 9.34265 39.0444 9.34265 37.0105V26.5863C9.34265 24.6766 7.88508 23.1194 6.03199 22.9344C6.71604 11.6307 16.0806 2.64373 27.5 2.64373C33.2461 2.64373 38.6493 4.89443 42.7159 8.98076C46.4502 12.7331 48.6356 17.624 48.9645 22.9353C47.1132 23.1221 45.6582 24.6784 45.6582 26.5863V37.0096C45.6582 38.9351 47.1386 40.502 49.0136 40.665V43.299C49.0136 46.2653 46.6115 48.6782 43.6595 48.6782H39.6946C39.5 48.1195 39.1948 47.6031 38.7668 47.1748C38.017 46.4178 37.0172 46.0009 35.9525 46.0009H31.8657C31.279 46.0009 30.7159 46.1261 30.2003 46.3675C28.7936 47.017 27.885 48.4429 27.885 50C27.885 51.0699 28.2998 52.0745 29.0514 52.8262C29.803 53.5832 30.8028 54 31.8657 54H35.9525C37.6469 54 39.1404 52.8993 39.6973 51.3219H43.6595C48.063 51.3219 51.6446 47.7229 51.6446 43.299V40.1944C53.6196 39.3017 55 37.3101 55 34.9969V28.5973C55 26.2761 53.6091 24.2774 51.6227 23.39ZM6.71078 26.5863V37.0096C6.71078 37.5851 6.2451 38.0539 5.67154 38.0539C3.99472 38.0539 2.63011 36.6827 2.63011 34.9977V28.5981C2.63011 26.9123 3.99472 25.542 5.67154 25.542C6.2451 25.542 6.71078 26.0108 6.71078 26.5863ZM37.2724 50.2838C37.1417 50.906 36.5857 51.358 35.9516 51.358H31.8648C31.5052 51.358 31.1676 51.217 30.9098 50.9579C30.6554 50.7033 30.5151 50.3631 30.5151 50.0018C30.5151 49.4739 30.8229 48.9919 31.3053 48.7689C31.4772 48.6879 31.6657 48.6464 31.8648 48.6464H35.9516C36.3112 48.6464 36.6488 48.7866 36.9058 49.0456C37.1601 49.3003 37.3004 49.6405 37.3004 50.0018C37.3013 50.0987 37.2908 50.1957 37.2724 50.2838ZM52.369 34.9977C52.369 36.6827 51.0044 38.0539 49.3276 38.0539C48.7549 38.0539 48.2883 37.5859 48.2883 37.0096V26.5863C48.2883 26.0108 48.754 25.542 49.3276 25.542C51.0044 25.542 52.369 26.9132 52.369 28.5981V34.9977Z" fill="white"/>
<path d="M36.0185 35.4533C39.0923 35.4533 41.5926 32.94 41.5926 29.8521V18.4391C41.5926 16.9463 41.0121 15.5398 39.9579 14.4805C38.9038 13.4213 37.505 12.8379 36.0185 12.8379H18.9819C15.908 12.8379 13.4077 15.3503 13.4077 18.4391V29.8521C13.4077 32.9408 15.908 35.4533 18.9819 35.4533H19.0863V38.4107C19.0863 39.5387 19.7554 40.5398 20.7903 40.9619C21.1244 41.0967 21.4717 41.1637 21.8155 41.1637C22.532 41.1637 23.2301 40.8782 23.7414 40.3468L28.6376 35.4533H36.0185ZM27.1687 33.1937L21.8699 38.4891C21.8462 38.5138 21.8286 38.5323 21.7787 38.5103C21.7181 38.4856 21.7181 38.446 21.7181 38.4107V34.1314C21.7181 33.4017 21.1297 32.8095 20.4026 32.8095H18.9828C17.3595 32.8095 16.0396 31.4824 16.0396 29.8521V18.4391C16.0396 16.8079 17.3595 15.4816 18.9828 15.4816H36.0193C36.8034 15.4816 37.5409 15.7901 38.0987 16.3496C38.6565 16.9101 38.9625 17.6521 38.9625 18.4391V29.8521C38.9625 31.4833 37.6418 32.8095 36.0193 32.8095H28.0965C27.7484 32.8095 27.4151 32.9479 27.1687 33.1937Z" fill="white"/>
<path d="M21.1097 22.4065C20.0398 22.4065 19.1689 23.2825 19.1689 24.3567C19.1689 25.4309 20.0407 26.3069 21.1097 26.3069C22.1806 26.3069 23.0523 25.4309 23.0523 24.3567C23.0523 23.2825 22.1814 22.4065 21.1097 22.4065Z" fill="white"/>
<path d="M27.4987 22.4065C26.4287 22.4065 25.5579 23.2825 25.5579 24.3567C25.5579 25.4309 26.4296 26.3069 27.4987 26.3069C28.5703 26.3069 29.4412 25.4309 29.4412 24.3567C29.4412 23.2825 28.5703 22.4065 27.4987 22.4065Z" fill="white"/>
<path d="M33.8895 22.4065C32.8196 22.4065 31.9487 23.2825 31.9487 24.3567C31.9487 25.4309 32.8205 26.3069 33.8895 26.3069C34.9603 26.3069 35.8321 25.4309 35.8321 24.3567C35.8321 23.2825 34.9603 22.4065 33.8895 22.4065Z" fill="white"/>
</svg>
