<svg width="53" height="54" viewBox="0 0 53 54" fill="none" xmlns="http://www.w3.org/2000/svg">
<path fill-rule="evenodd" clip-rule="evenodd" d="M38.0188 12.9162C38.2472 12.6837 38.538 12.5254 38.8547 12.4613C39.1713 12.3972 39.4995 12.4302 39.7977 12.5562C40.0959 12.6821 40.3508 12.8953 40.5301 13.1688C40.7095 13.4423 40.8052 13.7638 40.8052 14.0927C40.8052 14.4216 40.7095 14.7431 40.5301 15.0166C40.3508 15.2901 40.0959 15.5033 39.7977 15.6292C39.4995 15.7551 39.1713 15.7881 38.8547 15.7241C38.538 15.66 38.2472 15.5017 38.0188 15.2692C37.8667 15.115 37.746 14.9316 37.6636 14.7297C37.5812 14.5278 37.5388 14.3113 37.5388 14.0927C37.5388 13.874 37.5812 13.6575 37.6636 13.4556C37.746 13.2537 37.8667 13.0704 38.0188 12.9162Z" fill="white"/>
<path fill-rule="evenodd" clip-rule="evenodd" d="M16.3791 34.9294L16.8989 34.3944C16.5252 33.6195 16.342 32.7636 16.365 31.9005C16.401 30.4447 16.9885 29.0596 18.0045 28.0353C18.3153 27.7188 18.7369 27.541 19.1764 27.5412C19.6159 27.5413 20.0373 27.7193 20.348 28.036C20.6586 28.3528 20.8331 28.7823 20.833 29.2301C20.8328 29.6778 20.6581 30.1072 20.3472 30.4238C19.9356 30.8336 19.6953 31.3897 19.6766 31.9758C19.6667 32.2383 19.7097 32.5 19.8029 32.7449C19.8961 32.9898 20.0376 33.2126 20.2186 33.3997C20.9899 34.1833 22.3017 34.1306 23.1447 33.2715C23.5564 32.8587 23.7961 32.3002 23.814 31.712C23.8242 31.4495 23.7814 31.1877 23.6883 30.9428C23.5952 30.6979 23.4537 30.4751 23.2727 30.2881C21.2095 28.186 21.2679 24.7126 23.4006 22.5351C24.4069 21.5024 25.7643 20.9035 27.192 20.8625C28.0416 20.8431 28.8833 21.0317 29.6465 21.4124L30.1649 20.8775C30.3188 20.7208 30.5016 20.5965 30.7026 20.5118C30.9037 20.4271 31.1192 20.3836 31.3368 20.3837C31.5544 20.3838 31.7699 20.4276 31.9709 20.5126C32.1718 20.5976 32.3544 20.722 32.5082 20.8789C32.662 21.0357 32.7839 21.2219 32.8671 21.4268C32.9502 21.6317 32.993 21.8512 32.9928 22.073C32.9927 22.2947 32.9497 22.5142 32.8663 22.7189C32.7829 22.9237 32.6608 23.1098 32.5068 23.2664L31.9884 23.7938C32.3626 24.5712 32.5456 25.4297 32.5216 26.2952C32.486 27.7511 31.8984 29.1363 30.8821 30.1604C30.5712 30.4769 30.1496 30.6547 29.7101 30.6545C29.2706 30.6544 28.8491 30.4763 28.5384 30.1596C28.2277 29.8428 28.0533 29.4132 28.0534 28.9654C28.0536 28.5176 28.2284 28.0882 28.5393 27.7716C28.9532 27.3603 29.1938 26.8009 29.21 26.212C29.2203 25.9499 29.1772 25.6886 29.0835 25.4443C28.9897 25.2001 28.8474 24.9783 28.6654 24.7928C28.4834 24.6074 28.2657 24.4624 28.026 24.3669C27.7862 24.2714 27.5297 24.2274 27.2725 24.2379C26.6964 24.2632 26.1506 24.508 25.7432 24.9238C25.3357 25.3396 25.0964 25.8962 25.0726 26.4832C25.064 26.7455 25.1075 27.0068 25.2005 27.2515C25.2935 27.4962 25.4341 27.7192 25.6139 27.9071C26.1143 28.4147 26.5067 29.0219 26.7667 29.6908C27.0267 30.3596 27.1488 31.0759 27.1252 31.795C27.0825 33.2714 26.4787 34.6733 25.4412 35.7051C24.4037 36.7368 23.0135 37.3177 21.5638 37.3254C20.7595 37.3271 19.9655 37.1416 19.2424 36.783L18.7218 37.3103C18.4114 37.6239 17.9917 37.7996 17.5545 37.7989C17.1173 37.7982 16.6982 37.6213 16.3886 37.3067C16.0791 36.9921 15.9043 36.5655 15.9025 36.1201C15.9008 35.6747 16.0721 35.2465 16.3791 34.9294ZM38.3111 13.2153C38.5402 12.9836 38.8499 12.8536 39.1726 12.8536C39.4954 12.8536 39.8051 12.9836 40.0341 13.2153C40.1475 13.3295 40.2373 13.4657 40.2984 13.6157C40.3594 13.7658 40.3905 13.9267 40.3898 14.0892C40.3904 14.2934 40.3416 14.4946 40.2475 14.675C40.1535 14.8554 40.0173 15.0093 39.8508 15.1232C39.6844 15.237 39.493 15.3073 39.2935 15.3276C39.0941 15.348 38.8927 15.3179 38.7074 15.24C38.5221 15.1621 38.3586 15.0388 38.2313 14.8811C38.104 14.7233 38.0168 14.536 37.9776 14.3357C37.9384 14.1354 37.9484 13.9283 38.0065 13.7329C38.0647 13.5374 38.1693 13.3596 38.3111 13.2153ZM39.1726 18.7079C40.2214 18.7091 41.2382 18.3398 42.0496 17.6629C42.8611 16.9859 43.4172 16.0432 43.6229 14.9954C43.8287 13.9476 43.6715 12.8595 43.1782 11.9165C42.6848 10.9736 41.8858 10.2341 40.9173 9.82404C39.9488 9.41401 38.8707 9.35883 37.8668 9.6679C36.8628 9.97697 35.9951 10.6312 35.4114 11.519C34.8278 12.4069 34.5644 13.4734 34.6661 14.537C34.7678 15.6005 35.2283 16.5952 35.9691 17.3516C36.3886 17.7822 36.8877 18.1238 37.4376 18.3566C37.9874 18.5894 38.5771 18.7088 39.1726 18.7079ZM3.31581 30.8456C3.31292 30.8456 3.31364 30.8607 3.31364 30.8607L2.14391 32.0587L3.31602 30.8683L22.7086 50.6238H22.7272L49.6816 23.161H49.6868C49.6868 23.1535 49.6861 23.1535 49.6861 23.1535L47.0327 6.07977L30.2809 3.37503H30.2735C30.2713 3.37503 30.2684 3.38262 30.2684 3.38262L3.31581 30.8456ZM0.973048 33.2492L20.3657 53.0122C20.9916 53.6444 21.8373 53.9992 22.7187 53.9992C23.6001 53.9992 24.4458 53.6444 25.0718 53.0122L52.0244 25.5489C52.3979 25.1714 52.6774 24.7085 52.8397 24.1987C53.0021 23.6889 53.0425 23.147 52.9577 22.618L50.1165 4.33922C50.0595 3.98835 49.896 3.66449 49.6491 3.41314C49.4022 3.16179 49.0841 2.99558 48.7397 2.93786L30.7993 0.0446411C30.2807 -0.042596 29.7492 -0.00193472 29.2492 0.163218C28.7492 0.328372 28.2953 0.613207 27.9256 0.99386L0.973048 28.4572C0.350111 29.093 0.000244141 29.9548 0.000244141 30.8532C0.000244141 31.7516 0.350111 32.6133 0.973048 33.2492Z" fill="white"/>
</svg>
