<svg width="21" height="21" viewBox="0 0 21 21" fill="none" xmlns="http://www.w3.org/2000/svg">
<path d="M19.95 3.15002H1.05C0.771523 3.15002 0.504451 3.26065 0.307538 3.45756C0.110625 3.65448 0 3.92155 0 4.20002C0 4.4785 0.110625 4.74557 0.307538 4.94249C0.504451 5.1394 0.771523 5.25002 1.05 5.25002H3.15V17.85C3.15025 18.6854 3.4822 19.4865 4.07289 20.0771C4.66358 20.6678 5.46464 20.9998 6.3 21H14.7C15.5354 20.9998 16.3364 20.6679 16.9271 20.0772C17.5178 19.4865 17.8498 18.6854 17.85 17.85V5.25002H19.95C20.2285 5.25002 20.4955 5.1394 20.6925 4.94249C20.8894 4.74557 21 4.4785 21 4.20002C21 3.92155 20.8894 3.65448 20.6925 3.45756C20.4955 3.26065 20.2285 3.15002 19.95 3.15002ZM9.45 14.7C9.45 14.9785 9.33937 15.2456 9.14246 15.4425C8.94555 15.6394 8.67848 15.75 8.4 15.75C8.12152 15.75 7.85445 15.6394 7.65754 15.4425C7.46062 15.2456 7.35 14.9785 7.35 14.7V9.45002C7.35 9.17155 7.46062 8.90448 7.65754 8.70756C7.85445 8.51065 8.12152 8.40002 8.4 8.40002C8.67848 8.40002 8.94555 8.51065 9.14246 8.70756C9.33937 8.90448 9.45 9.17155 9.45 9.45002V14.7ZM13.65 14.7C13.65 14.9785 13.5394 15.2456 13.3425 15.4425C13.1455 15.6394 12.8785 15.75 12.6 15.75C12.3215 15.75 12.0545 15.6394 11.8575 15.4425C11.6606 15.2456 11.55 14.9785 11.55 14.7V9.45002C11.55 9.17155 11.6606 8.90448 11.8575 8.70756C12.0545 8.51065 12.3215 8.40002 12.6 8.40002C12.8785 8.40002 13.1455 8.51065 13.3425 8.70756C13.5394 8.90448 13.65 9.17155 13.65 9.45002V14.7Z" fill="#C0C0C0"/>
<path d="M8.40059 2.1H12.6006C12.8791 2.1 13.1461 1.98938 13.343 1.79246C13.54 1.59555 13.6506 1.32848 13.6506 1.05C13.6506 0.771523 13.54 0.504451 13.343 0.307538C13.1461 0.110625 12.8791 0 12.6006 0H8.40059C8.12211 0 7.85504 0.110625 7.65812 0.307538C7.46121 0.504451 7.35059 0.771523 7.35059 1.05C7.35059 1.32848 7.46121 1.59555 7.65812 1.79246C7.85504 1.98938 8.12211 2.1 8.40059 2.1Z" fill="#C0C0C0"/>
</svg>
