<svg width="8" height="13" viewBox="0 0 8 13" fill="none" xmlns="http://www.w3.org/2000/svg">
<path fill-rule="evenodd" clip-rule="evenodd" d="M7.69458 5.79768C7.89014 5.98078 8 6.22909 8 6.488C8 6.74691 7.89014 6.99522 7.69458 7.17833L1.79348 12.7019C1.69725 12.7952 1.58214 12.8696 1.45487 12.9207C1.32761 12.9719 1.19072 12.9988 1.05222 13C0.913706 13.0011 0.776345 12.9764 0.648146 12.9273C0.519946 12.8782 0.403476 12.8057 0.305532 12.714C0.207587 12.6223 0.13013 12.5133 0.0776796 12.3933C0.0252291 12.2733 -0.00116422 12.1447 3.93863e-05 12.0151C0.00124299 11.8855 0.0300196 11.7573 0.0846901 11.6382C0.139361 11.5191 0.21883 11.4113 0.318461 11.3213L5.48206 6.488L0.318461 1.65474C0.128443 1.47059 0.0232993 1.22394 0.0256761 0.967931C0.0280528 0.711918 0.13776 0.467021 0.331168 0.285985C0.524577 0.10495 0.786212 0.0022616 1.05972 3.69111e-05C1.33323 -0.00218777 1.59674 0.0962294 1.79348 0.274091L7.69458 5.79768Z" fill="#102B2C"/>
</svg>
