<svg width="16" height="16" viewBox="0 0 16 16" fill="none" xmlns="http://www.w3.org/2000/svg">
<g opacity="0.5">
<path d="M1.7199 15C1.53549 15 1.35107 14.9299 1.21096 14.7887C0.92968 14.5074 0.92968 14.0514 1.21096 13.7701L13.7701 1.21096C14.0514 0.92968 14.5074 0.92968 14.7887 1.21096C15.07 1.49224 15.07 1.94826 14.7887 2.22972L2.22972 14.7887C2.08855 14.929 1.90414 15 1.7199 15Z" fill="white" stroke="white"/>
<path d="M14.2799 15C14.0955 15 13.9113 14.9299 13.771 14.7887L1.21096 2.22972C0.92968 1.94826 0.92968 1.49224 1.21096 1.21096C1.49224 0.92968 1.94826 0.92968 2.22972 1.21096L14.7887 13.7701C15.07 14.0514 15.07 14.5074 14.7887 14.7887C14.6475 14.929 14.4633 15 14.2799 15Z" fill="white" stroke="white"/>
</g>
</svg>
