<svg width="17" height="12" viewBox="0 0 17 12" fill="none" xmlns="http://www.w3.org/2000/svg">
<path d="M16.892 5.9665C16.7401 5.75559 13.1215 0.802185 8.49992 0.802185C3.87834 0.802185 0.259583 5.75559 0.107877 5.9663C-0.0359591 6.16639 -0.0359591 6.43778 0.107877 6.63787C0.259583 6.84878 3.87834 11.8022 8.49992 11.8022C13.1215 11.8022 16.7401 6.84875 16.892 6.63804C17.036 6.43798 17.036 6.16639 16.892 5.9665ZM8.49992 10.6643C5.09563 10.6643 2.14715 7.37659 1.27434 6.3018C2.14602 5.22606 5.08833 1.94011 8.49992 1.94011C11.9041 1.94011 14.8523 5.22721 15.7255 6.30257C14.8538 7.37827 11.9115 10.6643 8.49992 10.6643Z" fill="black"/>
<path d="M8.48668 2.88824C6.63255 2.88824 5.12402 4.41971 5.12402 6.30205C5.12402 8.18439 6.63255 9.71587 8.48668 9.71587C10.3408 9.71587 11.8493 8.18439 11.8493 6.30205C11.8493 4.41971 10.3408 2.88824 8.48668 2.88824ZM8.48668 8.57791C7.25052 8.57791 6.24493 7.55698 6.24493 6.30205C6.24493 5.04713 7.25056 4.0262 8.48668 4.0262C9.7228 4.0262 10.7284 5.04713 10.7284 6.30205C10.7284 7.55698 9.72284 8.57791 8.48668 8.57791Z" fill="black"/>
</svg>
