<svg width="19" height="17" viewBox="0 0 19 17" fill="none" xmlns="http://www.w3.org/2000/svg">
<path d="M13.3333 2.5C13.3333 2.00555 13.48 1.5222 13.7547 1.11108C14.0294 0.699953 14.4198 0.379521 14.8766 0.190302C15.3334 0.00108322 15.8361 -0.0484251 16.3211 0.0480379C16.806 0.144501 17.2515 0.382603 17.6011 0.732234C17.9507 1.08187 18.1888 1.52732 18.2853 2.01228C18.3818 2.49723 18.3323 2.99989 18.143 3.45671C17.9538 3.91353 17.6334 4.30397 17.2223 4.57868C16.8111 4.85338 16.3278 5 15.8333 5C15.1703 5 14.5344 4.73661 14.0656 4.26777C13.5967 3.79893 13.3333 3.16304 13.3333 2.5ZM0.833333 3.33333H10.8333C11.0543 3.33333 11.2663 3.24554 11.4226 3.08926C11.5789 2.93298 11.6667 2.72101 11.6667 2.5C11.6667 2.27899 11.5789 2.06703 11.4226 1.91075C11.2663 1.75447 11.0543 1.66667 10.8333 1.66667H0.833333C0.61232 1.66667 0.400358 1.75447 0.244078 1.91075C0.0877973 2.06703 0 2.27899 0 2.5C0 2.72101 0.0877973 2.93298 0.244078 3.08926C0.400358 3.24554 0.61232 3.33333 0.833333 3.33333ZM5.83333 5.83333C5.31755 5.83478 4.81483 5.99573 4.39411 6.29412C3.97339 6.5925 3.65526 7.01371 3.48333 7.5H0.833333C0.61232 7.5 0.400358 7.5878 0.244078 7.74408C0.0877973 7.90036 0 8.11232 0 8.33333C0 8.55435 0.0877973 8.76631 0.244078 8.92259C0.400358 9.07887 0.61232 9.16667 0.833333 9.16667H3.48333C3.63621 9.59907 3.90509 9.98108 4.26054 10.2709C4.61599 10.5607 5.04431 10.7472 5.49863 10.8099C5.95296 10.8725 6.41577 10.8091 6.83642 10.6263C7.25708 10.4436 7.61936 10.1487 7.88362 9.77383C8.14788 9.39899 8.30394 8.95868 8.33472 8.50108C8.36549 8.04349 8.2698 7.58625 8.05811 7.1794C7.84642 6.77255 7.52689 6.43177 7.1345 6.19436C6.7421 5.95694 6.29196 5.83205 5.83333 5.83333ZM17.5 7.5H10.8333C10.6123 7.5 10.4004 7.5878 10.2441 7.74408C10.0878 7.90036 10 8.11232 10 8.33333C10 8.55435 10.0878 8.76631 10.2441 8.92259C10.4004 9.07887 10.6123 9.16667 10.8333 9.16667H17.5C17.721 9.16667 17.933 9.07887 18.0893 8.92259C18.2455 8.76631 18.3333 8.55435 18.3333 8.33333C18.3333 8.11232 18.2455 7.90036 18.0893 7.74408C17.933 7.5878 17.721 7.5 17.5 7.5ZM7.5 13.3333H0.833333C0.61232 13.3333 0.400358 13.4211 0.244078 13.5774C0.0877973 13.7337 0 13.9457 0 14.1667C0 14.3877 0.0877973 14.5996 0.244078 14.7559C0.400358 14.9122 0.61232 15 0.833333 15H7.5C7.72101 15 7.93298 14.9122 8.08926 14.7559C8.24554 14.5996 8.33333 14.3877 8.33333 14.1667C8.33333 13.9457 8.24554 13.7337 8.08926 13.5774C7.93298 13.4211 7.72101 13.3333 7.5 13.3333ZM17.5 13.3333H14.85C14.6534 12.7773 14.2666 12.3087 13.7579 12.0103C13.2493 11.7119 12.6515 11.6029 12.0702 11.7027C11.489 11.8024 10.9617 12.1044 10.5816 12.5553C10.2015 13.0062 9.99298 13.5769 9.99298 14.1667C9.99298 14.7564 10.2015 15.3272 10.5816 15.7781C10.9617 16.2289 11.489 16.5309 12.0702 16.6307C12.6515 16.7304 13.2493 16.6214 13.7579 16.323C14.2666 16.0246 14.6534 15.556 14.85 15H17.5C17.721 15 17.933 14.9122 18.0893 14.7559C18.2455 14.5996 18.3333 14.3877 18.3333 14.1667C18.3333 13.9457 18.2455 13.7337 18.0893 13.5774C17.933 13.4211 17.721 13.3333 17.5 13.3333Z" fill="black"/>
</svg>
