<svg width="18" height="18" viewBox="0 0 18 18" fill="none" xmlns="http://www.w3.org/2000/svg">
<path d="M15.2394 1.61909H11.9284C11.7137 1.61909 11.5078 1.5338 11.356 1.38198C11.2042 1.23016 11.1189 1.02425 11.1189 0.809546C11.1189 0.594841 11.2042 0.38893 11.356 0.237111C11.5078 0.0852913 11.7137 0 11.9284 0H17.1905C17.4052 0 17.6111 0.0852913 17.7629 0.237111C17.9147 0.38893 18 0.594841 18 0.809546V6.07159C18 6.2863 17.9147 6.49221 17.7629 6.64403C17.6111 6.79585 17.4052 6.88114 17.1905 6.88114C16.9757 6.88114 16.7698 6.79585 16.618 6.64403C16.4662 6.49221 16.3809 6.2863 16.3809 6.07159V2.75245L11.7179 7.41544C11.5631 7.54806 11.3638 7.61736 11.1601 7.60949C10.9564 7.60162 10.7631 7.51716 10.6189 7.37299C10.4747 7.22881 10.3903 7.03554 10.3824 6.8318C10.3745 6.62805 10.4438 6.42884 10.5765 6.27398L15.2394 1.61909Z" fill="black"/>
<path d="M0.189832 17.0006V11.7466C0.189832 11.5319 0.275123 11.326 0.426942 11.1742C0.578762 11.0224 0.784673 10.9371 0.999378 10.9371C1.21408 10.9371 1.41999 11.0224 1.57181 11.1742C1.72363 11.326 1.80892 11.5319 1.80892 11.7466V15.0577L6.4881 10.3785C6.64297 10.2459 6.84218 10.1766 7.04592 10.1844C7.24966 10.1923 7.44293 10.2768 7.58711 10.4209C7.73128 10.5651 7.81575 10.7584 7.82361 10.9621C7.83148 11.1659 7.76218 11.3651 7.62956 11.52L2.95038 16.191H6.26143C6.47613 16.191 6.68204 16.2763 6.83386 16.4281C6.98568 16.58 7.07097 16.7859 7.07097 17.0006C7.07097 17.2153 6.98568 17.4212 6.83386 17.573C6.68204 17.7248 6.47613 17.8101 6.26143 17.8101H0.999378C0.784673 17.8101 0.578762 17.7248 0.426942 17.573C0.275123 17.4212 0.189832 17.2153 0.189832 17.0006Z" fill="black"/>
</svg>
