<svg width="50" height="61" viewBox="0 0 50 61" fill="none" xmlns="http://www.w3.org/2000/svg">
<path d="M49.3984 11.3642C49.3984 10.7279 48.8824 10.2118 48.2461 10.2118C48.2156 10.2118 48.1856 10.2141 48.1556 10.2164C43.7495 10.1676 40.1797 6.56974 40.1797 2.15234C40.1797 1.51602 39.6637 1 39.0273 1H11.3711C10.7348 1 10.2188 1.51602 10.2188 2.15234C10.2188 6.60016 6.60016 10.2188 2.15234 10.2188C1.51602 10.2188 1 10.7348 1 11.3711V30.4297C1 44.9177 10.1277 50.5711 18.1811 55.559C20.4404 56.9585 22.5745 58.2801 24.4961 59.7605C24.7032 59.9203 24.9512 60 25.1993 60C25.4474 60 25.6954 59.9203 25.9026 59.7605C27.8385 58.2693 29.9795 56.9412 32.2461 55.5354C40.5127 50.4078 49.3984 44.828 49.3984 30.4297V11.3711C49.3984 11.3699 49.3983 11.3688 49.3983 11.3676C49.3983 11.3665 49.3984 11.3653 49.3984 11.3642ZM47.0938 30.4297C47.0938 43.614 38.928 48.6788 31.0311 53.5768C29.0679 54.7945 27.0455 56.049 25.1991 57.406C23.3648 56.0588 21.3503 54.8109 19.3946 53.5997C11.4843 48.7002 3.30469 43.6342 3.30469 30.4297V12.4598C8.10443 11.9268 11.9268 8.10443 12.4598 3.30469H37.9386C38.4717 8.10443 42.294 11.9268 47.0938 12.4598V30.4297Z" fill="white" stroke="white" stroke-width="0.6"/>
<path d="M25.1992 10.9102C15.6682 10.9102 7.91406 18.6643 7.91406 28.1953C7.91406 37.7263 15.6682 45.4805 25.1992 45.4805C34.7303 45.4805 42.4844 37.7263 42.4844 28.1953C42.4844 18.6643 34.7303 10.9102 25.1992 10.9102ZM25.1992 43.1758C16.9389 43.1758 10.2188 36.4557 10.2188 28.1953C10.2188 19.935 16.9389 13.2148 25.1992 13.2148C33.4596 13.2148 40.1797 19.935 40.1797 28.1953C40.1797 36.4557 33.4596 43.1758 25.1992 43.1758Z" fill="white" stroke="white" stroke-width="0.6"/>
<path d="M25.7382 27.259C24.0205 26.351 22.8945 25.6908 22.8945 24.8201C22.8945 23.5493 23.9284 22.5154 25.1992 22.5154C26.47 22.5154 27.5039 23.5493 27.5039 24.8201C27.5039 25.4564 28.0199 25.9724 28.6562 25.9724C29.2926 25.9724 29.8086 25.4564 29.8086 24.8201C29.8086 22.6762 28.3374 20.8696 26.3516 20.3566V19.0583C26.3516 18.422 25.8355 17.906 25.1992 17.906C24.5629 17.906 24.0469 18.422 24.0469 19.0583V20.3566C22.061 20.8696 20.5898 22.6762 20.5898 24.8201C20.5898 27.1446 22.7529 28.2878 24.6612 29.2966C26.3783 30.2043 27.5039 30.8642 27.5039 31.7341C27.5039 33.0049 26.47 34.0388 25.1992 34.0388C23.9284 34.0388 22.8945 33.0049 22.8945 31.7341C22.8945 31.0978 22.3785 30.5818 21.7422 30.5818C21.1059 30.5818 20.5898 31.0978 20.5898 31.7341C20.5898 33.8779 22.061 35.6846 24.0469 36.1976V37.4958C24.0469 38.1322 24.5629 38.6482 25.1992 38.6482C25.8355 38.6482 26.3516 38.1322 26.3516 37.4958V36.1976C28.3374 35.6846 29.8086 33.8779 29.8086 31.7341C29.8086 29.4105 27.6461 28.2674 25.7382 27.259Z" fill="white" stroke="white" stroke-width="0.6"/>
</svg>
