<svg width="32" height="61" viewBox="0 0 32 61" fill="none" xmlns="http://www.w3.org/2000/svg">
<path d="M30.81 12.9396C30.9999 11.6318 30.7007 9.87655 28.2103 8.93747L21.649 6.1566L19.5643 1H12.2892L10.2015 6.1566L3.66206 8.9296C1.15186 9.8677 0.850634 11.6279 1.05046 12.9927L2.0446 17.9094L2.13904 18.1739C3.47715 20.6922 6.95763 27.8194 6.99541 30.5138C7.02722 32.7843 5.51812 36.6871 4.18697 40.1298C3.02879 43.1309 2.0267 45.722 2.0267 47.2167V54.1H12.9622V60H18.9271V54.1H29.8258V47.2167C29.8258 45.723 28.8317 43.1329 27.6805 40.1367C26.3583 36.695 24.8601 32.7902 24.8969 30.5177C24.9346 27.8234 28.3903 20.6942 29.7184 18.1759L30.81 12.9396ZM16.9388 58.0333H14.9505V54.1H16.9388V58.0333ZM28.8516 12.6033L27.8853 17.3833C27.8405 17.4689 27.7858 17.58 27.7143 17.7127H24.8919V19.6794H26.7291C25.2379 22.7553 22.9394 27.8784 22.9036 30.4823C22.8668 33.1304 24.4366 37.2191 25.8214 40.827C26.8156 43.4102 27.8375 46.0809 27.8375 47.2127V52.1294H4.01498V47.2167C4.01498 46.0858 5.04789 43.4151 6.046 40.8329C7.4378 37.225 9.02246 33.1353 8.98567 30.4862C8.94989 27.8824 6.6405 22.7602 5.13239 19.6833H6.9974V17.7167H4.14124C4.07264 17.5839 4.01299 17.4718 3.96825 17.3853L3.0109 12.6653C2.89657 11.8786 3.08347 11.2542 4.40269 10.7586L11.7394 7.64832L13.6353 2.96667H18.2172L20.1061 7.6434L27.4429 10.7537L27.4836 10.7704C28.769 11.2493 28.9559 11.8727 28.8516 12.6033Z" fill="white" stroke="white" stroke-width="0.8"/>
<path d="M14.9512 4.93335H16.9395V8.86668H14.9512V4.93335Z" fill="white" stroke="white" stroke-width="0.8"/>
<path d="M14.9512 10.8333H16.9395V14.7666H14.9512V10.8333Z" fill="white" stroke="white" stroke-width="0.8"/>
<path d="M14.9512 16.7334H16.9395V20.6667H14.9512V16.7334Z" fill="white" stroke="white" stroke-width="0.8"/>
<path d="M14.9512 22.6333H16.9395V26.5666H14.9512V22.6333Z" fill="white" stroke="white" stroke-width="0.8"/>
<path d="M14.9512 28.5334H16.9395V32.4668H14.9512V28.5334Z" fill="white" stroke="white" stroke-width="0.8"/>
<path d="M14.9512 34.4333H16.9395V38.3667H14.9512V34.4333Z" fill="white" stroke="white" stroke-width="0.8"/>
<path d="M14.9512 40.3333H16.9395V44.2666H14.9512V40.3333Z" fill="white" stroke="white" stroke-width="0.8"/>
<path d="M14.9512 46.2334H16.9395V50.1667H14.9512V46.2334Z" fill="white" stroke="white" stroke-width="0.8"/>
<path d="M8.98633 35.4167H12.9629V37.3834H8.98633V35.4167Z" fill="white" stroke="white" stroke-width="0.8"/>
<path d="M18.9277 35.4167H22.9043V37.3834H18.9277V35.4167Z" fill="white" stroke="white" stroke-width="0.8"/>
<path d="M8.98633 17.7166H12.9629V19.6832H8.98633V17.7166Z" fill="white" stroke="white" stroke-width="0.8"/>
<path d="M18.9277 17.7166H22.9043V19.6832H18.9277V17.7166Z" fill="white" stroke="white" stroke-width="0.8"/>
</svg>
