<svg width="61" height="61" viewBox="0 0 61 61" fill="none" xmlns="http://www.w3.org/2000/svg">
<path d="M23.1216 43.4055H11.1374V14.8278C11.1374 14.5833 11.0403 14.3489 10.8674 14.176C10.6945 14.0031 10.4601 13.906 10.2156 13.906C9.97107 13.906 9.73659 14.0031 9.56371 14.176C9.39082 14.3489 9.2937 14.5833 9.2937 14.8278V21.0532L3.18822 19.6962L9.07153 5.40735L14.9355 3.2124C15.1419 4.52993 15.6631 5.77821 16.455 6.85129C17.2468 7.92436 18.2858 8.79055 19.4839 9.37633C20.682 9.9621 22.0037 10.2502 23.3368 10.2161C24.67 10.182 25.9753 9.82676 27.1418 9.18052C27.3478 9.05798 27.498 8.86001 27.5605 8.6286C27.623 8.39718 27.5929 8.15052 27.4766 7.94092C27.3603 7.73133 27.1669 7.57528 26.9375 7.50586C26.7081 7.43645 26.4606 7.45914 26.2476 7.56911C25.3626 8.05917 24.3747 8.33428 23.3638 8.37223C22.3528 8.41019 21.3471 8.20992 20.4279 7.7876C19.5086 7.36528 18.7014 6.73274 18.0717 5.94103C17.4419 5.14932 17.007 4.22063 16.8023 3.22991C20.9207 4.47026 25.3133 4.47026 29.4317 3.22991C29.2318 4.22441 28.7972 5.15676 28.1642 5.9494C28.0111 6.14011 27.9401 6.3838 27.9667 6.62687C27.9933 6.86994 28.1154 7.09248 28.3061 7.24554C28.4968 7.39859 28.7405 7.46962 28.9836 7.44299C29.2267 7.41637 29.4492 7.29427 29.6023 7.10357C30.5002 5.97682 31.0895 4.63584 31.3123 3.2124L37.1717 5.40919L43.055 19.698L36.9495 21.0532V14.8278C36.9495 14.5833 36.8524 14.3489 36.6795 14.176C36.5066 14.0031 36.2721 13.906 36.0276 13.906C35.7831 13.906 35.5487 14.0031 35.3758 14.176C35.2029 14.3489 35.1058 14.5833 35.1058 14.8278V25.8902C35.1058 26.1346 35.2029 26.3691 35.3758 26.542C35.5487 26.7149 35.7831 26.812 36.0276 26.812C36.2721 26.812 36.5066 26.7149 36.6795 26.542C36.8524 26.3691 36.9495 26.1346 36.9495 25.8902V22.9402L44.5244 21.2578C44.6558 21.2287 44.7792 21.1712 44.8859 21.0893C44.9927 21.0075 45.0803 20.9032 45.1425 20.7839C45.2047 20.6646 45.24 20.5332 45.246 20.3988C45.252 20.2644 45.2285 20.1303 45.1771 20.0059L38.7241 4.3343C38.676 4.21717 38.6042 4.11121 38.5133 4.02302C38.4225 3.93484 38.3144 3.86632 38.1959 3.82175L30.821 1.05617C30.6127 0.979649 30.384 0.979649 30.1757 1.05617C25.629 2.76253 20.6179 2.76253 16.0712 1.05617C15.8629 0.979649 15.6342 0.979649 15.4259 1.05617L8.05103 3.82175C7.9325 3.86632 7.82443 3.93484 7.73355 4.02302C7.64267 4.11121 7.57093 4.21717 7.52281 4.3343L1.06979 20.0059C1.01844 20.1303 0.994929 20.2644 1.00091 20.3988C1.0069 20.5332 1.04223 20.6646 1.10442 20.7839C1.16662 20.9032 1.25418 21.0075 1.36095 21.0893C1.46772 21.1712 1.59111 21.2287 1.72246 21.2578L9.2937 22.9402V44.3274C9.2937 44.5718 9.39082 44.8063 9.56371 44.9792C9.73659 45.1521 9.97107 45.2492 10.2156 45.2492H23.1216C23.3661 45.2492 23.6006 45.1521 23.7735 44.9792C23.9463 44.8063 24.0435 44.5718 24.0435 44.3274C24.0435 44.0829 23.9463 43.8484 23.7735 43.6755C23.6006 43.5026 23.3661 43.4055 23.1216 43.4055Z" fill="white" stroke="white"/>
<path d="M59.725 54.3249L56.2763 50.8726L57.6748 49.4741C57.7928 49.3562 57.8767 49.2085 57.9173 49.0466C57.958 48.8848 57.954 48.715 57.9058 48.5552C57.8575 48.3955 57.7668 48.2519 57.6433 48.1397C57.5198 48.0274 57.3682 47.9508 57.2046 47.918L46.9526 45.8715C46.8037 45.8417 46.6498 45.8491 46.5045 45.893C46.3592 45.937 46.227 46.0162 46.1196 46.1235C46.0123 46.2309 45.9331 46.3631 45.8891 46.5084C45.8451 46.6537 45.8377 46.8077 45.8676 46.9565L47.9187 57.2085C47.9515 57.3721 48.0281 57.5237 48.1404 57.6472C48.2526 57.7707 48.3962 57.8614 48.556 57.9097C48.7157 57.9579 48.8855 57.9619 49.0473 57.9213C49.2092 57.8806 49.3569 57.7967 49.4748 57.6787L50.8687 56.2802L54.3174 59.7289C54.4902 59.9017 54.7247 59.9988 54.9691 59.9988C55.2136 59.9988 55.448 59.9017 55.6209 59.7289L59.7213 55.6285C59.8946 55.4561 59.9924 55.2219 59.993 54.9775C59.9937 54.733 59.8973 54.4983 59.725 54.3249ZM54.9728 57.7736L51.5241 54.3249C51.4385 54.2392 51.3368 54.1712 51.2249 54.1248C51.113 54.0785 50.993 54.0546 50.8719 54.0546C50.7508 54.0546 50.6308 54.0785 50.5189 54.1248C50.407 54.1712 50.3053 54.2392 50.2197 54.3249L49.39 55.1546L47.9464 47.9503L55.1535 49.3921L54.3238 50.2217C54.2381 50.3074 54.1701 50.409 54.1237 50.5209C54.0773 50.6329 54.0534 50.7528 54.0534 50.874C54.0534 50.9951 54.0773 51.1151 54.1237 51.227C54.1701 51.3389 54.2381 51.4406 54.3238 51.5262L57.7725 54.9749L54.9728 57.7736Z" fill="white" stroke="white"/>
<path d="M47.8281 30.4995H49.8562V31.4213C49.8562 31.6658 49.9533 31.9003 50.1262 32.0732C50.2991 32.2461 50.5336 32.3432 50.7781 32.3432C51.0226 32.3432 51.257 32.2461 51.4299 32.0732C51.6028 31.9003 51.6999 31.6658 51.6999 31.4213V29.5776C51.6999 29.3331 51.6028 29.0986 51.4299 28.9258C51.257 28.7529 51.0226 28.6558 50.7781 28.6558H47.8281C47.5836 28.6558 47.3491 28.7529 47.1763 28.9258C47.0034 29.0986 46.9062 29.3331 46.9062 29.5776C46.9062 29.8221 47.0034 30.0566 47.1763 30.2295C47.3491 30.4024 47.5836 30.4995 47.8281 30.4995Z" fill="white" stroke="white"/>
<path d="M26.8086 50.7803C26.5641 50.7803 26.3296 50.8774 26.1567 51.0503C25.9838 51.2232 25.8867 51.4576 25.8867 51.7021V56.4958C25.8867 56.7403 25.9838 56.9748 26.1567 57.1477C26.3296 57.3205 26.5641 57.4177 26.8086 57.4177C27.0531 57.4177 27.2876 57.3205 27.4604 57.1477C27.6333 56.9748 27.7304 56.7403 27.7304 56.4958V51.7021C27.7304 51.4576 27.6333 51.2232 27.4604 51.0503C27.2876 50.8774 27.0531 50.7803 26.8086 50.7803Z" fill="white" stroke="white"/>
<path d="M43.9557 29.5776C43.9557 29.3331 43.8586 29.0986 43.6857 28.9258C43.5129 28.7529 43.2784 28.6558 43.0339 28.6558H38.2402C37.9957 28.6558 37.7612 28.7529 37.5884 28.9258C37.4155 29.0986 37.3184 29.3331 37.3184 29.5776C37.3184 29.8221 37.4155 30.0566 37.5884 30.2295C37.7612 30.4024 37.9957 30.4995 38.2402 30.4995H43.0339C43.2784 30.4995 43.5129 30.4024 43.6857 30.2295C43.8586 30.0566 43.9557 29.8221 43.9557 29.5776Z" fill="white" stroke="white"/>
<path d="M50.7773 35.293C50.5328 35.293 50.2984 35.3901 50.1255 35.563C49.9526 35.7359 49.8555 35.9703 49.8555 36.2148V41.0085C49.8555 41.253 49.9526 41.4875 50.1255 41.6604C50.2984 41.8332 50.5328 41.9304 50.7773 41.9304C51.0218 41.9304 51.2563 41.8332 51.4292 41.6604C51.6021 41.4875 51.6992 41.253 51.6992 41.0085V36.2148C51.6992 35.9703 51.6021 35.7359 51.4292 35.563C51.2563 35.3901 51.0218 35.293 50.7773 35.293Z" fill="white" stroke="white"/>
<path d="M45.2468 56.3115H40.4531C40.2086 56.3115 39.9741 56.4086 39.8013 56.5815C39.6284 56.7544 39.5312 56.9889 39.5312 57.2334C39.5312 57.4779 39.6284 57.7124 39.8013 57.8852C39.9741 58.0581 40.2086 58.1552 40.4531 58.1552H45.2468C45.4913 58.1552 45.7258 58.0581 45.8986 57.8852C46.0715 57.7124 46.1686 57.4779 46.1686 57.2334C46.1686 56.9889 46.0715 56.7544 45.8986 56.5815C45.7258 56.4086 45.4913 56.3115 45.2468 56.3115Z" fill="white" stroke="white"/>
<path d="M34.3679 29.5776C34.3679 29.3331 34.2707 29.0986 34.0979 28.9258C33.925 28.7529 33.6905 28.6558 33.446 28.6558H28.6523C28.4078 28.6558 28.1734 28.7529 28.0005 28.9258C27.8276 29.0986 27.7305 29.3331 27.7305 29.5776C27.7305 29.8221 27.8276 30.0566 28.0005 30.2295C28.1734 30.4024 28.4078 30.4995 28.6523 30.4995H33.446C33.6905 30.4995 33.925 30.4024 34.0979 30.2295C34.2707 30.0566 34.3679 29.8221 34.3679 29.5776Z" fill="white" stroke="white"/>
<path d="M35.6589 56.3115H30.8652C30.6207 56.3115 30.3862 56.4086 30.2134 56.5815C30.0405 56.7544 29.9434 56.9889 29.9434 57.2334C29.9434 57.4779 30.0405 57.7124 30.2134 57.8852C30.3862 58.0581 30.6207 58.1552 30.8652 58.1552H35.6589C35.9034 58.1552 36.1379 58.0581 36.3107 57.8852C36.4836 57.7124 36.5808 57.4779 36.5808 57.2334C36.5808 56.9889 36.4836 56.7544 36.3107 56.5815C36.1379 56.4086 35.9034 56.3115 35.6589 56.3115Z" fill="white" stroke="white"/>
<path d="M26.8086 31.6057C26.5641 31.6057 26.3296 31.7028 26.1567 31.8757C25.9838 32.0486 25.8867 32.2831 25.8867 32.5276V37.3212C25.8867 37.5657 25.9838 37.8002 26.1567 37.9731C26.3296 38.146 26.5641 38.2431 26.8086 38.2431C27.0531 38.2431 27.2876 38.146 27.4604 37.9731C27.6333 37.8002 27.7304 37.5657 27.7304 37.3212V32.5276C27.7304 32.2831 27.6333 32.0486 27.4604 31.8757C27.2876 31.7028 27.0531 31.6057 26.8086 31.6057Z" fill="white" stroke="white"/>
<path d="M26.8086 41.1931C26.5641 41.1931 26.3296 41.2902 26.1567 41.4631C25.9838 41.636 25.8867 41.8705 25.8867 42.115V46.9086C25.8867 47.1531 25.9838 47.3876 26.1567 47.5605C26.3296 47.7334 26.5641 47.8305 26.8086 47.8305C27.0531 47.8305 27.2876 47.7334 27.4604 47.5605C27.6333 47.3876 27.7304 47.1531 27.7304 46.9086V42.115C27.7304 41.8705 27.6333 41.636 27.4604 41.4631C27.2876 41.2902 27.0531 41.1931 26.8086 41.1931Z" fill="white" stroke="white"/>
<path d="M31.2336 53.1772L36.0272 46.786L40.8209 53.1772C40.8936 53.2741 40.9846 53.3557 41.0887 53.4174C41.1929 53.479 41.3082 53.5196 41.428 53.5367C41.5479 53.5538 41.6699 53.5472 41.7872 53.5171C41.9045 53.4871 42.0147 53.4343 42.1115 53.3616C42.2084 53.289 42.29 53.198 42.3516 53.0938C42.4133 52.9896 42.4539 52.8743 42.471 52.7545C42.4881 52.6347 42.4815 52.5126 42.4514 52.3953C42.4214 52.2781 42.3685 52.1679 42.2959 52.071L40.9776 50.3139L43.993 47.8019C44.181 47.6452 44.2991 47.4202 44.3212 47.1764C44.3434 46.9326 44.2678 46.6901 44.111 46.5021C43.9543 46.314 43.7293 46.196 43.4856 46.1739C43.2418 46.1517 42.9992 46.2273 42.8112 46.3841L39.8696 48.8362L36.7647 44.6961C36.6751 44.5872 36.5625 44.4995 36.435 44.4393C36.3075 44.3791 36.1683 44.3479 36.0272 44.3479C35.8862 44.3479 35.747 44.3791 35.6195 44.4393C35.4919 44.4995 35.3794 44.5872 35.2898 44.6961L29.7586 52.071C29.6119 52.2666 29.5489 52.5125 29.5835 52.7545C29.6181 52.9965 29.7474 53.2149 29.943 53.3616C30.1386 53.5083 30.3844 53.5713 30.6265 53.5367C30.8685 53.5021 31.0869 53.3728 31.2336 53.1772Z" fill="white" stroke="white"/>
<path d="M39.7148 34.1868C38.9855 34.1868 38.2725 34.403 37.6662 34.8082C37.0598 35.2134 36.5871 35.7893 36.308 36.4631C36.0289 37.1369 35.9559 37.8783 36.0982 38.5936C36.2405 39.3089 36.5917 39.9659 37.1074 40.4816C37.6231 40.9973 38.2801 41.3485 38.9954 41.4908C39.7107 41.6331 40.4521 41.5601 41.1259 41.281C41.7997 41.0019 42.3756 40.5292 42.7808 39.9228C43.186 39.3164 43.4022 38.6035 43.4022 37.8742C43.4022 36.8962 43.0137 35.9583 42.3222 35.2668C41.6307 34.5753 40.6928 34.1868 39.7148 34.1868ZM39.7148 39.7179C39.3501 39.7179 38.9937 39.6098 38.6905 39.4072C38.3873 39.2046 38.151 38.9167 38.0114 38.5798C37.8719 38.2429 37.8354 37.8722 37.9065 37.5145C37.9776 37.1569 38.1532 36.8283 38.4111 36.5705C38.6689 36.3127 38.9974 36.1371 39.3551 36.0659C39.7127 35.9948 40.0835 36.0313 40.4203 36.1708C40.7572 36.3104 41.0452 36.5467 41.2478 36.8499C41.4504 37.1531 41.5585 37.5096 41.5585 37.8742C41.5585 38.3632 41.3643 38.8322 41.0185 39.1779C40.6727 39.5237 40.2038 39.7179 39.7148 39.7179Z" fill="white" stroke="white"/>
</svg>
