<svg width="61" height="67" viewBox="0 0 61 67" fill="none" xmlns="http://www.w3.org/2000/svg">
<path d="M48.6222 27.7122C48.7336 26.4522 48.4568 25.2053 47.8224 24.1064C47.188 23.0074 46.2463 22.1444 45.0996 21.6108C44.134 21.1613 43.4462 20.4735 42.9968 19.5078C42.4631 18.3611 41.6 17.4196 40.5012 16.7852C39.4024 16.1508 38.1554 15.8737 36.8954 15.9852C35.8354 16.0788 34.8949 15.8272 34.0228 15.2155C32.987 14.4894 31.769 14.1054 30.5002 14.1054C29.2313 14.1054 28.0133 14.4894 26.9776 15.2155C26.1058 15.8269 25.1662 16.0785 24.1052 15.9852C22.8447 15.874 21.5982 16.1508 20.4992 16.7851C19.4005 17.4195 18.5374 18.361 18.0036 19.5078C17.5541 20.4733 16.8664 21.1613 15.9008 21.6106C14.7541 22.1444 13.8127 23.0073 13.178 24.1064C12.5436 25.2051 12.267 26.4519 12.3782 27.7121C12.4718 28.7729 12.22 29.7127 11.6085 30.5846C10.8822 31.6201 10.4984 32.8381 10.4984 34.1073C10.4984 35.3765 10.8824 36.5942 11.6085 37.6299C12.22 38.5019 12.4718 39.4415 12.3782 40.5025C12.267 41.7627 12.5438 43.0095 13.178 44.1082C13.8127 45.2072 14.7541 46.0702 15.9008 46.6038C16.1485 46.7191 16.3773 46.8507 16.589 46.998L12.469 62.3744C12.3884 62.6755 12.4935 62.9958 12.7369 63.1905C12.9803 63.3853 13.316 63.4174 13.5919 63.273L20.1962 59.8119L24.1847 66.1115C24.33 66.3408 24.5816 66.4765 24.8479 66.4765C24.8872 66.4765 24.9269 66.4737 24.9664 66.4675C25.2745 66.4205 25.5257 66.1957 25.6065 65.8946L28.8265 53.8779C29.3661 54.0304 29.9279 54.1092 30.5003 54.1092C31.0727 54.1092 31.6344 54.0304 32.1741 53.8779L35.3939 65.8946C35.4746 66.1957 35.7258 66.4207 36.0341 66.4675C36.0737 66.4735 36.1132 66.4765 36.1525 66.4765C36.4188 66.4765 36.6704 66.3408 36.8157 66.1115L40.8044 59.8119L47.4086 63.273C47.6845 63.4176 48.0203 63.3854 48.2637 63.1905C48.5071 62.9957 48.6121 62.6753 48.5315 62.3744L44.4116 46.998C44.6234 46.8507 44.8522 46.7191 45.0999 46.6038C46.2465 46.0701 47.1879 45.2072 47.8225 44.1082C48.4571 43.0093 48.7337 41.7624 48.6223 40.5025C48.5288 39.4415 48.7806 38.502 49.3921 37.63C50.1185 36.5944 50.5023 35.3762 50.5023 34.1073C50.5023 32.8384 50.1183 31.6202 49.3921 30.5847C48.7806 29.7126 48.5286 28.7731 48.6222 27.7122ZM24.5531 63.7582L21.1356 58.3606C20.9169 58.0153 20.47 57.8957 20.1078 58.0853L14.4493 61.0508L17.8412 48.3919C17.898 48.4938 17.9528 48.598 18.0035 48.707C18.5373 49.8537 19.4003 50.7953 20.4991 51.4297C21.5979 52.064 22.8434 52.341 24.1051 52.2295C25.1665 52.1362 26.1055 52.3877 26.9776 52.9992C27.1051 53.0887 27.2356 53.1729 27.3684 53.2518L24.5531 63.7582ZM40.8924 58.0853C40.5303 57.8956 40.0832 58.0154 39.8646 58.3606L36.4469 63.7582L33.6319 53.2518C33.7647 53.1727 33.8952 53.0886 34.0228 52.9991C34.8949 52.3874 35.8349 52.1361 36.8954 52.2294C38.1558 52.3406 39.4023 52.0638 40.5012 51.4294C41.6 50.795 42.4629 49.8535 42.9968 48.7066C43.0475 48.5977 43.1023 48.4935 43.1591 48.3916L46.551 61.0507L40.8924 58.0853ZM48.1062 36.7284C47.2734 37.916 46.9306 39.1956 47.0579 40.6406C47.1406 41.5774 46.9348 42.5051 46.4622 43.3232C45.99 44.1412 45.2895 44.7835 44.4368 45.1804C43.1217 45.7925 42.185 46.7292 41.573 48.0441C41.1759 48.8969 40.5338 49.5974 39.7158 50.0697C38.8977 50.5418 37.9697 50.7476 37.0332 50.6653C35.5882 50.5377 34.3087 50.8807 33.121 51.7135C32.3508 52.2536 31.4444 52.5391 30.4999 52.5391C29.5553 52.5391 28.6489 52.2536 27.8789 51.7136C26.8518 50.9933 25.7557 50.6396 24.5436 50.6396C24.3543 50.6396 24.1621 50.6482 23.9669 50.6655C23.0303 50.7479 22.1023 50.5421 21.2841 50.0699C20.4661 49.5975 19.8239 48.8972 19.427 48.0445C18.8149 46.7295 17.8782 45.7927 16.5632 45.1806C15.7104 44.7837 15.0101 44.1415 14.5377 43.3235C14.0654 42.5056 13.8594 41.5779 13.942 40.6408C14.0695 39.1959 13.7266 37.9164 12.8938 36.7288C12.3538 35.9586 12.0682 35.0522 12.0682 34.1077C12.0682 33.1632 12.3536 32.2566 12.8937 31.4866C13.7265 30.299 14.0693 29.0194 13.942 27.5745C13.8594 26.6375 14.0653 25.7098 14.5377 24.8919C15.0099 24.0738 15.7104 23.4315 16.5631 23.0346C17.8781 22.4226 18.8149 21.4859 19.427 20.1709C19.824 19.318 20.4661 18.6176 21.2841 18.1453C22.1023 17.6732 23.0303 17.4672 23.9669 17.5497C25.4122 17.6776 26.6915 17.3341 27.8789 16.5013C28.6491 15.9613 29.5555 15.6759 30.5 15.6759C31.4446 15.6759 32.351 15.9613 33.121 16.5013C34.3086 17.3343 35.5874 17.6775 37.0332 17.5497C37.9696 17.4668 38.8977 17.6729 39.7158 18.1453C40.5338 18.6176 41.1761 19.318 41.573 20.1708C42.185 21.4857 43.1217 22.4226 44.4367 23.0346C45.2895 23.4315 45.9898 24.0738 46.4622 24.8918C46.9347 25.7098 47.1406 26.6375 47.0579 27.5744C46.9305 29.0192 47.2733 30.2989 48.1062 31.4866C48.6463 32.2567 48.9318 33.163 48.9318 34.1076C48.9318 35.0521 48.6463 35.9583 48.1062 36.7284ZM30.5 20.9349C23.2367 20.9349 17.3275 26.8441 17.3275 34.1074C17.3275 41.3708 23.2367 47.28 30.5 47.28C37.7634 47.28 43.6726 41.3708 43.6726 34.1074C43.6726 26.8441 37.7634 20.9349 30.5 20.9349ZM30.5 45.7097C27.0018 45.7097 23.8601 44.1534 21.7311 41.6969C22.2504 39.4201 24.595 37.7566 28.1058 37.1897C28.838 37.5164 29.6479 37.6997 30.5 37.6997C31.3522 37.6997 32.1621 37.5164 32.8942 37.1897C36.4049 37.7566 38.7495 39.4201 39.2689 41.6969C37.1398 44.1534 33.9983 45.7097 30.5 45.7097ZM30.5 36.1295C28.1148 36.1295 26.1743 34.1891 26.1743 31.8039C26.1743 29.4187 28.1148 27.4784 30.5 27.4784C32.8852 27.4784 34.8256 29.4187 34.8256 31.8039C34.8256 34.1891 32.8852 36.1295 30.5 36.1295ZM40.3942 40.1607C39.4767 38.1973 37.4663 36.7192 34.6718 35.9659C35.7365 34.8987 36.3958 33.427 36.3958 31.804C36.3958 28.5531 33.7508 25.9082 30.4999 25.9082C27.249 25.9082 24.6039 28.553 24.6039 31.804C24.6039 33.427 25.2632 34.8987 26.3278 35.9659C23.5333 36.7192 21.5229 38.1973 20.6056 40.1607C19.5229 38.3974 18.8976 36.3242 18.8976 34.1076C18.8976 27.71 24.1023 22.5053 30.4999 22.5053C36.8975 22.5053 42.1021 27.71 42.1021 34.1076C42.1021 36.3242 41.477 38.3973 40.3942 40.1607ZM24.4496 5.93589L27.1553 8.22449L26.3116 11.6664C26.2357 11.9761 26.3547 12.301 26.6127 12.4884C26.8708 12.6759 27.2166 12.6884 27.4876 12.5207L30.5003 10.6548L33.5129 12.5207C33.64 12.5994 33.7832 12.6384 33.9263 12.6384C34.0886 12.6384 34.2507 12.5881 34.3877 12.4884C34.6458 12.3009 34.7647 11.976 34.6888 11.6664L33.8452 8.22449L36.551 5.93589C36.7944 5.72992 36.8891 5.39715 36.7906 5.09381C36.692 4.79048 36.4198 4.57692 36.1017 4.5535L32.5676 4.29217L31.2269 1.01179C31.1063 0.716568 30.8192 0.523682 30.5002 0.523682C30.1811 0.523682 29.894 0.716699 29.7734 1.01179L28.4328 4.29217L24.8987 4.5535C24.5806 4.57692 24.3084 4.79061 24.2099 5.09381C24.1113 5.39702 24.2062 5.72992 24.4496 5.93589ZM29.0336 5.82231C29.3308 5.80046 29.5899 5.61215 29.7024 5.3363L30.5002 3.38427L31.298 5.3363C31.4107 5.61215 31.6698 5.80032 31.9668 5.82231L34.0697 5.97777L32.4596 7.33962C32.2322 7.53212 32.1333 7.83663 32.2042 8.12596L32.7062 10.174L30.9135 9.06383C30.7869 8.98531 30.6436 8.94618 30.5002 8.94618C30.3567 8.94618 30.2134 8.98544 30.0868 9.06383L28.2941 10.174L28.7961 8.12596C28.867 7.83663 28.7681 7.53199 28.5407 7.33962L26.9307 5.97777L29.0336 5.82231ZM11.1743 12.7355L14.6617 13.3646L15.6521 16.7673C15.7412 17.0735 16.0067 17.2954 16.3239 17.3288C16.3515 17.3316 16.3789 17.3331 16.4062 17.3331C16.6929 17.3331 16.96 17.1758 17.0977 16.9193L18.7738 13.7969L22.3159 13.9065C22.6338 13.9161 22.9278 13.7325 23.0575 13.4411C23.1872 13.1496 23.1278 12.8088 22.9072 12.5786L20.4557 10.0198L21.6545 6.68493C21.7623 6.38487 21.678 6.04922 21.4409 5.83579C21.2038 5.62236 20.8611 5.57368 20.5742 5.71226L17.3828 7.25312L14.5816 5.08256C14.3297 4.88732 13.9847 4.86376 13.7081 5.02328C13.432 5.18267 13.2797 5.49346 13.3229 5.80935L13.8022 9.32057L10.872 11.3138C10.6084 11.4932 10.4793 11.8144 10.5457 12.1262C10.612 12.438 10.8604 12.6788 11.1743 12.7355ZM15.0875 10.3451C15.3339 10.1774 15.4642 9.88484 15.4237 9.58975L15.1384 7.50045L16.8053 8.79203C17.0409 8.97445 17.3594 9.00795 17.6275 8.87853L19.5265 7.9616L18.8132 9.94608C18.7125 10.2265 18.7791 10.5398 18.9852 10.7549L20.4439 12.2776L18.3363 12.2123C18.0409 12.2037 17.761 12.3632 17.6202 12.6257L16.6228 14.4838L16.0334 12.459C15.9502 12.1729 15.7121 11.9586 15.419 11.9057L13.3438 11.5313L15.0875 10.3451ZM13.312 20.7049C13.593 20.5541 13.7549 20.2482 13.7215 19.931C13.6881 19.6138 13.4663 19.3483 13.1601 19.2592L9.7575 18.2689L9.1282 14.7815C9.07154 14.4677 8.83089 14.2192 8.51879 14.1529C8.20708 14.0866 7.88582 14.2156 7.70641 14.4793L5.71329 17.4094L2.20194 16.93C1.88527 16.887 1.57513 17.0392 1.41574 17.3154C1.25622 17.5917 1.27978 17.9369 1.47515 18.1889L3.64585 20.9901L2.10498 24.1814C1.96627 24.4686 2.01508 24.8111 2.22851 25.0482C2.44194 25.2853 2.77746 25.3694 3.07753 25.2616L6.41235 24.0628L8.97143 26.5144C9.12061 26.6573 9.31625 26.7326 9.51463 26.7326C9.62246 26.7326 9.7312 26.7103 9.83379 26.6647C10.1252 26.5349 10.3091 26.2419 10.2993 25.9231L10.1896 22.381L13.312 20.7049ZM9.01841 21.2275C8.75591 21.3684 8.59586 21.6458 8.60502 21.9435L8.67032 24.0511L7.14751 22.5923C6.99886 22.45 6.80335 22.3742 6.60432 22.3742C6.5152 22.3742 6.42556 22.3894 6.33893 22.4205L4.35445 23.1338L5.27138 21.2349C5.4008 20.9667 5.36743 20.6482 5.18488 20.4126L3.8933 18.7458L5.98273 19.031C6.27756 19.0713 6.57055 18.941 6.73805 18.6947L7.92403 16.9512L8.29842 19.0264C8.35129 19.3195 8.56564 19.5576 8.8517 19.6408L10.8765 20.2301L9.01841 21.2275ZM38.6842 13.9064L42.2262 13.7967L43.9024 16.9192C44.04 17.1757 44.307 17.333 44.5938 17.333C44.6212 17.333 44.6487 17.3315 44.6761 17.3286C44.9934 17.2953 45.2589 17.0733 45.348 16.7671L46.3383 13.3645L49.8257 12.7353C50.1395 12.6787 50.388 12.4379 50.4544 12.1259C50.5207 11.814 50.3917 11.493 50.128 11.3136L47.1979 9.32031L47.6771 5.80909C47.7203 5.49307 47.568 5.18241 47.2919 5.02289C47.0158 4.8635 46.6705 4.88693 46.4184 5.0823L43.6172 7.25286L40.4258 5.71199C40.139 5.57341 39.796 5.62209 39.5592 5.83553C39.322 6.04896 39.2378 6.38448 39.3456 6.68467L40.5445 10.0195L38.093 12.5783C37.8722 12.8086 37.8128 13.1495 37.9426 13.4408C38.0722 13.7321 38.3621 13.9145 38.6842 13.9064ZM42.1869 9.94595L41.4735 7.96147L43.3725 8.8784C43.6411 9.00795 43.9594 8.97432 44.1947 8.7919L45.8616 7.50019L45.5763 9.58949C45.536 9.88471 45.6664 10.1773 45.9126 10.3448L47.6561 11.5309L45.5809 11.9053C45.2878 11.9582 45.0496 12.1725 44.9665 12.4586L44.3771 14.4834L43.3799 12.6254C43.2429 12.3701 42.9767 12.2116 42.6883 12.2116C42.6802 12.2116 42.672 12.2116 42.6638 12.212L40.5562 12.2773L42.0149 10.7547C42.221 10.5395 42.2877 10.2264 42.1869 9.94595ZM59.5844 17.3153C59.4249 17.0391 59.1137 16.8869 58.7982 16.9299L55.287 17.4093L53.2938 14.4792C53.1144 14.2155 52.7927 14.0866 52.4814 14.1528C52.1693 14.2192 51.9285 14.4675 51.872 14.7813L51.2427 18.2687L47.8401 19.2591C47.5339 19.3482 47.312 19.6137 47.2787 19.9309C47.2453 20.2481 47.4071 20.5539 47.6881 20.7048L50.8104 22.3809L50.7008 25.923C50.691 26.2417 50.8748 26.5347 51.1663 26.6645C51.2688 26.7102 51.3775 26.7325 51.4854 26.7325C51.6839 26.7325 51.8796 26.6572 52.0286 26.5143L54.5877 24.0627L57.9225 25.2615C58.2225 25.3694 58.5581 25.285 58.7715 25.048C58.985 24.811 59.0338 24.4685 58.8951 24.1812L57.3542 20.99L59.5249 18.1888C59.7203 17.9366 59.744 17.5915 59.5844 17.3153ZM55.7288 21.2348L56.6457 23.1337L54.6612 22.4204C54.3808 22.3195 54.0678 22.3861 53.8525 22.5922L52.3297 24.051L52.395 21.9434C52.4042 21.6457 52.2441 21.3683 51.9816 21.2273L50.1237 20.2299L52.1485 19.6407C52.4345 19.5574 52.6488 19.3194 52.7018 19.0263L53.0761 16.9511L54.2623 18.6947C54.4299 18.9411 54.7231 19.0712 55.0176 19.031L57.1069 18.7458L55.8153 20.4126C55.6326 20.6482 55.5994 20.9665 55.7288 21.2348Z" fill="white" stroke="white" stroke-width="0.8"/>
</svg>
