<svg width="48" height="61" viewBox="0 0 48 61" fill="none" xmlns="http://www.w3.org/2000/svg">
<path d="M42.6774 36.3531L44.1119 35.5016C46.6543 33.9922 47.6901 30.8071 46.5214 28.0893L45.8602 26.5575C45.3991 25.486 45.3991 24.2567 45.8602 23.1859L46.5214 21.6518C47.6901 18.9364 46.6543 15.7505 44.1135 14.2419L42.6774 13.3897C41.6737 12.7934 40.9516 11.7987 40.6938 10.6607L40.3272 9.03208C39.6756 6.14863 36.9556 4.17434 34.0226 4.45202L32.3608 4.60569C31.1984 4.7113 30.0266 4.33358 29.1508 3.56453L27.8972 2.46333C25.6751 0.512222 22.325 0.512222 20.1021 2.46333L18.8485 3.56453C17.972 4.33359 16.8057 4.71452 15.6402 4.60569L13.9783 4.45202C11.0373 4.1695 8.32291 6.14942 7.67213 9.03287L7.30467 10.6607C7.04775 11.7987 6.32567 12.7934 5.3219 13.3897L3.88742 14.2419C1.34504 15.7513 0.310034 18.9372 1.47871 21.6526L2.13832 23.1852C2.59943 24.2568 2.59943 25.486 2.13832 26.5576L1.47871 28.0901C0.310034 30.8055 1.34504 33.9922 3.88742 35.5016L5.3219 36.3531C6.32488 36.9501 7.04775 37.944 7.30467 39.0821L7.3363 39.2221L1.76805 50.2465C1.21475 51.3436 1.33463 52.6342 2.08154 53.6114C2.83767 54.5886 4.05485 55.0311 5.25358 54.7729L9.93789 53.7773L11.9204 58.1378C12.4276 59.2625 13.5064 59.9723 14.7421 60H14.8066C16.0146 60 17.0934 59.3362 17.6375 58.2576L22.5487 48.5405C23.0258 48.6609 23.5105 48.7432 23.9997 48.7432C24.4893 48.7432 24.974 48.6608 25.4513 48.5404L30.3626 58.2576C30.9066 59.3362 31.9854 60 33.1842 60H33.2579C34.4936 59.9723 35.5724 59.2625 36.0796 58.1378L38.0529 53.7773L42.7372 54.7729C43.9452 55.0311 45.1623 54.5886 45.9092 53.6114C46.6654 52.6342 46.7852 51.3436 46.232 50.2466L40.6614 39.226L40.6938 39.0821C40.9516 37.944 41.6737 36.9501 42.6774 36.3531ZM16.1713 57.5202C15.9039 58.0549 15.3691 58.4513 14.7697 58.359C14.1704 58.3498 13.6632 58.0087 13.4143 57.4648L11.1643 52.5052C11.026 52.2009 10.7309 52.0165 10.4174 52.0165C10.3621 52.0165 10.2975 52.0258 10.2422 52.035L4.91241 53.1689C4.32225 53.2979 3.75055 53.0859 3.38174 52.6065C3.01288 52.1271 2.95756 51.5187 3.22495 50.984L7.96262 41.6025C8.91934 43.9819 11.3445 45.5163 13.9784 45.2907L15.641 45.1371C16.8009 45.0218 17.9704 45.4059 18.8485 46.179L20.1021 47.2802C20.3882 47.5312 20.6941 47.7473 21.0129 47.9338L16.1713 57.5202ZM21.1843 46.0478L19.9308 44.9466C18.8517 44.0007 17.4549 43.4788 16.03 43.4788C15.8499 43.4788 15.6697 43.4885 15.4897 43.5044L13.8278 43.6581C11.6937 43.863 9.74213 42.4305 9.27146 40.3482L8.90406 38.7204C8.54864 37.1454 7.54803 35.7689 6.15918 34.9446L4.7247 34.0931C2.88836 33.0015 2.13994 30.6999 2.98523 28.7384L3.64484 27.2058C4.28283 25.7221 4.28283 24.0207 3.64484 22.5369L2.98523 21.0044C2.14074 19.0429 2.88837 16.7413 4.7247 15.6505L6.15918 14.7981C7.54802 13.9731 8.54864 12.5965 8.90406 11.0208L9.27146 9.39384C9.74135 7.30989 11.6969 5.88133 13.8278 6.08462L15.4897 6.23829C17.0978 6.3871 18.7173 5.86135 19.9308 4.79536L21.1843 3.69496C22.7917 2.28486 25.2124 2.28727 26.815 3.69417L28.0685 4.79536C29.2837 5.86134 30.9071 6.38152 32.5112 6.23827L34.173 6.08461C36.3104 5.87974 38.2571 7.31145 38.7294 9.39298L39.0961 11.0208C39.4515 12.5965 40.4521 13.9738 41.8401 14.7981L43.2762 15.6505C45.1109 16.7413 45.8586 19.0428 45.0165 21.0036L44.3553 22.5369C43.7165 24.0207 43.7165 25.7221 44.3553 27.2066L45.0165 28.7376C45.8602 30.7007 45.1109 33.0031 43.2762 34.0931L41.8417 34.9446C40.4521 35.7689 39.4515 37.1454 39.0961 38.7219L38.7294 40.3482C38.2571 42.4305 36.2992 43.863 34.1731 43.6581L32.5112 43.5044C30.9119 43.3604 29.2837 43.8822 28.0686 44.9466L26.815 46.0478C25.2124 47.4595 22.7901 47.4579 21.1843 46.0478ZM44.609 52.6065C44.2402 53.0859 43.6593 53.2979 43.0784 53.1689L37.7486 52.035C37.3705 51.9704 36.9925 52.1548 36.8357 52.5052L34.5858 57.4648C34.3368 58.0087 33.8296 58.3498 33.2211 58.359H33.1842C32.6033 58.359 32.0869 58.0456 31.8194 57.5202L26.9796 47.9371C27.3008 47.7498 27.6091 47.533 27.8972 47.2802L29.1508 46.179C30.0266 45.4076 31.1857 45.0218 32.3608 45.1371L34.0226 45.2907C36.6549 45.5144 39.0711 43.9888 40.0316 41.6175L44.7659 50.984C45.0425 51.5187 44.9779 52.1271 44.609 52.6065ZM39.8613 24.8714C39.8613 16.1258 32.745 9.01127 23.998 9.01127C15.2504 9.01127 8.13319 16.1258 8.13319 24.8714C8.13319 33.6177 15.2503 40.7323 23.998 40.7323C32.745 40.7323 39.8613 33.6177 39.8613 24.8714ZM23.998 39.0933C16.1541 39.0933 9.7726 32.7134 9.7726 24.8713C9.7726 17.0301 16.1541 10.6503 23.998 10.6503C31.8404 10.6503 38.222 17.0301 38.222 24.8713C38.222 32.7134 31.8404 39.0933 23.998 39.0933ZM31.7876 20.8163L28.0797 19.9816L26.1378 16.7125C25.6855 15.949 24.885 15.4928 23.9972 15.4928C23.1103 15.4928 22.3098 15.949 21.8568 16.7125L19.9172 19.9816L16.2061 20.8163C15.3408 21.0116 14.6604 21.6318 14.3858 22.4753C14.112 23.3188 14.2977 24.2207 14.8837 24.8865L17.3948 27.7428L17.0418 31.5282C16.9602 32.4109 17.3388 33.2496 18.0569 33.7714C18.7741 34.2932 19.6906 34.3908 20.5055 34.0435L23.998 32.5389L27.4906 34.0435C27.8108 34.1811 28.147 34.25 28.48 34.25C28.9955 34.25 29.503 34.0883 29.9401 33.7698C30.6573 33.248 31.0367 32.4109 30.9535 31.5282L30.6013 27.7428L33.1132 24.8866C33.6976 24.22 33.8833 23.318 33.6095 22.4745C33.3358 21.631 32.6538 21.0116 31.7876 20.8163ZM31.8804 23.8046L29.1364 26.9257C28.9875 27.0946 28.9155 27.3178 28.9363 27.5427L29.3205 31.681C29.3621 32.1147 29.0931 32.3597 28.9747 32.4445C28.8578 32.5325 28.5376 32.7086 28.139 32.5389L24.3223 30.8943C24.219 30.8495 24.1085 30.8271 23.998 30.8271C23.8876 30.8271 23.7771 30.8495 23.6739 30.8943L19.8571 32.5389C19.4553 32.7118 19.1383 32.5325 19.0206 32.4445C18.903 32.3597 18.634 32.1147 18.6748 31.6802L19.0598 27.5427C19.0807 27.3178 19.0078 27.0954 18.8589 26.9257L16.1148 23.8046C15.8267 23.4764 15.9003 23.1195 15.9451 22.9819C15.99 22.8434 16.1405 22.5113 16.5663 22.4153L20.6216 21.5029C20.8418 21.4533 21.0315 21.3157 21.1467 21.1212L23.2672 17.5479C23.4898 17.1726 23.8524 17.1318 23.9973 17.1318C24.143 17.1318 24.5056 17.1726 24.7281 17.5479L26.8502 21.122C26.9654 21.3157 27.1544 21.4533 27.3753 21.5029L31.429 22.4153C31.8548 22.5113 32.0053 22.8434 32.0502 22.9819C32.095 23.1195 32.1687 23.4773 31.8804 23.8046Z" fill="white" stroke="white"/>
</svg>
