<svg width="92" height="49" viewBox="0 0 92 49" fill="none" xmlns="http://www.w3.org/2000/svg">
<path d="M82.3429 11.8926C80.6969 9.83027 78.2431 8.64706 75.6082 8.64706H66.125V2.88235C66.125 1.29274 64.8356 0 63.25 0H14.375C12.7894 0 11.5 1.29274 11.5 2.88235V8.64706H4.3125C3.519 8.64706 2.875 9.29271 2.875 10.0882C2.875 10.8838 3.519 11.5294 4.3125 11.5294H11.5V28.8235H2.875C2.0815 28.8235 1.4375 29.4692 1.4375 30.2647C1.4375 31.0602 2.0815 31.7059 2.875 31.7059H11.5V40.3529C11.5 41.9426 12.7894 43.2353 14.375 43.2353H18.8327C19.5011 46.5197 22.4034 49 25.875 49C29.3466 49 32.2489 46.5197 32.9173 43.2353H70.5827C71.2511 46.5197 74.1534 49 77.625 49C81.0966 49 83.9989 46.5197 84.6673 43.2353H87.6875C90.0651 43.2353 92 41.2955 92 38.9118V27.0278C92 25.0721 91.3287 23.1539 90.1097 21.6263L82.3429 11.8926ZM25.875 46.1176C23.4974 46.1176 21.5625 44.1778 21.5625 41.7941C21.5625 39.4104 23.4974 37.4706 25.875 37.4706C28.2526 37.4706 30.1875 39.4104 30.1875 41.7941C30.1875 44.1778 28.2526 46.1176 25.875 46.1176ZM77.625 46.1176C75.2474 46.1176 73.3125 44.1778 73.3125 41.7941C73.3125 39.4104 75.2474 37.4706 77.625 37.4706C80.0026 37.4706 81.9375 39.4104 81.9375 41.7941C81.9375 44.1778 80.0026 46.1176 77.625 46.1176ZM89.125 38.9118C89.125 39.7059 88.4796 40.3529 87.6875 40.3529H84.6673C83.9989 37.0685 81.0966 34.5882 77.625 34.5882C74.1534 34.5882 71.2511 37.0685 70.5827 40.3529H66.125V21.6176C66.125 20.8221 65.481 20.1765 64.6875 20.1765C63.894 20.1765 63.25 20.8221 63.25 21.6176V40.3529H32.9173C32.2489 37.0685 29.3466 34.5882 25.875 34.5882C22.4034 34.5882 19.5011 37.0685 18.8327 40.3529H14.375V31.7059H18.6875C19.481 31.7059 20.125 31.0602 20.125 30.2647C20.125 29.4692 19.481 28.8235 18.6875 28.8235H14.375V11.5294H34.5C35.2935 11.5294 35.9375 10.8838 35.9375 10.0882C35.9375 9.29271 35.2935 8.64706 34.5 8.64706H14.375V2.88235H63.25V17.2941C63.25 18.0896 63.894 18.7353 64.6875 18.7353C65.481 18.7353 66.125 18.0896 66.125 17.2941V11.5294H75.6082C77.3648 11.5294 79.0007 12.3177 80.0989 13.6926L87.8658 23.4263C88.6765 24.4438 89.125 25.7236 89.125 27.0278V38.9118Z" fill="white"/>
<path d="M31.625 18.7354H18.6875C17.894 18.7354 17.25 19.381 17.25 20.1765C17.25 20.9721 17.894 21.6177 18.6875 21.6177H31.625C32.4185 21.6177 33.0625 20.9721 33.0625 20.1765C33.0625 19.381 32.4185 18.7354 31.625 18.7354Z" fill="white"/>
<path d="M1.4375 23.0589H5.75C6.5435 23.0589 7.1875 22.4132 7.1875 21.6177C7.1875 20.8222 6.5435 20.1765 5.75 20.1765H1.4375C0.644 20.1765 0 20.8222 0 21.6177C0 22.4132 0.644 23.0589 1.4375 23.0589Z" fill="white"/>
<path d="M77.7213 15.4478C77.1751 14.7892 76.3701 14.4116 75.5148 14.4116H71.8736C70.2894 14.4116 69 15.7044 69 17.2925V23.0601C69 24.6483 70.2894 25.941 71.8736 25.941H80.3088C81.4358 25.941 82.4334 25.3055 82.9121 24.2822C83.3908 23.259 83.2384 22.0844 82.5168 21.2169L77.7213 15.4478ZM71.875 23.0601L71.8736 17.294H75.5148L80.3203 23.0587L71.875 23.0601Z" fill="white"/>
</svg>
