<svg width="18" height="18" viewBox="0 0 18 18" fill="none" xmlns="http://www.w3.org/2000/svg">
<path d="M8.808 1C13.3336 1 17 4.5816 17 9C17 13.4184 13.3328 17 8.808 17C6.2552 17 3.8944 15.8504 2.352 13.9232C2.30876 13.8694 2.27679 13.8074 2.25797 13.741C2.23915 13.6746 2.23387 13.605 2.24246 13.5365C2.25104 13.468 2.2733 13.4019 2.30792 13.3422C2.34255 13.2825 2.38882 13.2303 2.444 13.1888C2.55652 13.1032 2.69795 13.0648 2.83832 13.0816C2.97869 13.0985 3.10698 13.1694 3.196 13.2792C3.87074 14.1178 4.72567 14.7936 5.69734 15.2566C6.66901 15.7196 7.73247 15.9578 8.8088 15.9536C12.7408 15.9536 15.9288 12.84 15.9288 9C15.9288 5.16 12.7408 2.0464 8.8088 2.0464C7.74784 2.04226 6.69919 2.2737 5.73852 2.72402C4.77785 3.17433 3.92913 3.83228 3.2536 4.6504C3.16317 4.75924 3.03388 4.82855 2.89319 4.84363C2.75249 4.85872 2.61145 4.81839 2.5 4.7312C2.4453 4.68898 2.39965 4.63619 2.36577 4.57597C2.33189 4.51576 2.31047 4.44934 2.30278 4.38067C2.29509 4.312 2.30129 4.24249 2.32102 4.17627C2.34075 4.11004 2.37359 4.04847 2.4176 3.9952C3.9624 2.1152 6.2912 1 8.808 1ZM9.2448 6.4896L11.4104 8.6552C11.62 8.8648 11.624 9.1992 11.4192 9.404L9.304 11.52C9.25434 11.5689 9.19549 11.6075 9.13085 11.6335C9.06621 11.6595 8.99705 11.6725 8.92737 11.6717C8.85768 11.6709 8.78885 11.6563 8.72484 11.6287C8.66082 11.6012 8.6029 11.5612 8.5544 11.5112C8.50441 11.4626 8.46452 11.4047 8.43704 11.3406C8.40956 11.2766 8.39503 11.2078 8.39429 11.1381C8.39354 11.0684 8.4066 10.9992 8.43271 10.9346C8.45882 10.87 8.49746 10.8112 8.5464 10.7616L9.784 9.5232L1.536 9.524C1.46633 9.52506 1.39713 9.51231 1.33241 9.4865C1.26769 9.46069 1.20871 9.42233 1.15888 9.37362C1.10906 9.32491 1.06936 9.26681 1.0421 9.20269C1.01483 9.13857 1.00052 9.06968 1 9C1 8.7112 1.24 8.4768 1.536 8.4768H9.7504L8.504 7.2296C8.45401 7.18105 8.41412 7.12308 8.38664 7.05904C8.35916 6.995 8.34463 6.92615 8.34389 6.85647C8.34314 6.78678 8.3562 6.71764 8.38231 6.65303C8.40842 6.58841 8.44706 6.52961 8.496 6.48C8.54563 6.43135 8.60438 6.39297 8.66887 6.36708C8.73336 6.34118 8.80233 6.32827 8.87183 6.32909C8.94132 6.32991 9.00997 6.34443 9.07384 6.37184C9.1377 6.39925 9.19553 6.43899 9.244 6.4888" fill="#102B2C"/>
<path d="M9.2448 6.4896L11.4104 8.6552C11.62 8.8648 11.624 9.1992 11.4192 9.404L9.304 11.52C9.25434 11.5689 9.19549 11.6075 9.13085 11.6335C9.06621 11.6595 8.99705 11.6725 8.92737 11.6717C8.85768 11.6709 8.78885 11.6563 8.72484 11.6287C8.66082 11.6012 8.6029 11.5612 8.5544 11.5112C8.50441 11.4626 8.46452 11.4047 8.43704 11.3406C8.40956 11.2766 8.39503 11.2078 8.39429 11.1381C8.39354 11.0684 8.4066 10.9992 8.43271 10.9346C8.45882 10.87 8.49746 10.8112 8.5464 10.7616L9.784 9.5232L1.536 9.524C1.46633 9.52506 1.39713 9.51231 1.33241 9.4865C1.26769 9.46069 1.20871 9.42233 1.15888 9.37362C1.10906 9.32491 1.06936 9.26681 1.0421 9.20269C1.01483 9.13857 1.00052 9.06968 1 9C1 8.7112 1.24 8.4768 1.536 8.4768H9.7504L8.504 7.2296C8.45401 7.18105 8.41412 7.12308 8.38664 7.05904C8.35916 6.995 8.34463 6.92615 8.34389 6.85647C8.34314 6.78678 8.3562 6.71764 8.38231 6.65303C8.40842 6.58841 8.44706 6.52961 8.496 6.48C8.54563 6.43135 8.60438 6.39297 8.66887 6.36708C8.73336 6.34118 8.80233 6.32827 8.87183 6.32909C8.94132 6.32991 9.00997 6.34443 9.07384 6.37184C9.1377 6.39925 9.19553 6.439 9.244 6.4888M8.808 1C13.3336 1 17 4.5816 17 9C17 13.4184 13.3328 17 8.808 17C6.2552 17 3.8944 15.8504 2.352 13.9232C2.30876 13.8694 2.27679 13.8074 2.25797 13.741C2.23915 13.6746 2.23387 13.605 2.24246 13.5365C2.25104 13.468 2.2733 13.4019 2.30792 13.3422C2.34255 13.2825 2.38882 13.2303 2.444 13.1888C2.55652 13.1032 2.69795 13.0648 2.83832 13.0816C2.97869 13.0985 3.10698 13.1694 3.196 13.2792C3.87074 14.1178 4.72567 14.7936 5.69734 15.2566C6.66901 15.7196 7.73247 15.9578 8.8088 15.9536C12.7408 15.9536 15.9288 12.84 15.9288 9C15.9288 5.16 12.7408 2.0464 8.8088 2.0464C7.74784 2.04226 6.69919 2.2737 5.73852 2.72402C4.77785 3.17433 3.92913 3.83228 3.2536 4.6504C3.16317 4.75924 3.03388 4.82855 2.89319 4.84363C2.75249 4.85872 2.61145 4.81839 2.5 4.7312C2.4453 4.68898 2.39965 4.63619 2.36577 4.57597C2.33189 4.51576 2.31047 4.44934 2.30278 4.38067C2.29509 4.312 2.30129 4.24249 2.32102 4.17627C2.34075 4.11004 2.37359 4.04847 2.4176 3.9952C3.9624 2.1152 6.2912 1 8.808 1Z" stroke="#102B2C"/>
</svg>
