<svg width="19" height="14" viewBox="0 0 19 14" fill="none" xmlns="http://www.w3.org/2000/svg">
<path fill-rule="evenodd" clip-rule="evenodd" d="M2.39516 0C1.75993 0 1.15071 0.252346 0.701527 0.701526C0.252347 1.15071 0 1.75993 0 2.39516V11.1048C0 11.7401 0.252347 12.3493 0.701527 12.7985C1.15071 13.2477 1.75993 13.5 2.39516 13.5H16.3306C16.9659 13.5 17.5751 13.2477 18.0243 12.7985C18.4735 12.3493 18.7258 11.7401 18.7258 11.1048V2.39516C18.7258 1.75993 18.4735 1.15071 18.0243 0.701526C17.5751 0.252346 16.9659 0 16.3306 0H2.39516ZM5.38258 3.60232C5.2406 3.50967 5.06815 3.47585 4.90169 3.50801C4.73523 3.54017 4.58779 3.63579 4.49054 3.77466C4.39328 3.91353 4.35383 4.08477 4.38052 4.2522C4.4072 4.41963 4.49794 4.57012 4.63355 4.67187L8.98839 7.72026C9.09817 7.79708 9.22892 7.83828 9.3629 7.83828C9.49689 7.83828 9.62764 7.79708 9.73742 7.72026L14.0923 4.67187C14.1656 4.62401 14.2286 4.56188 14.2774 4.48919C14.3263 4.41649 14.36 4.33472 14.3766 4.24872C14.3933 4.16273 14.3924 4.07427 14.3741 3.98861C14.3559 3.90295 14.3206 3.82184 14.2703 3.7501C14.2201 3.67836 14.1559 3.61745 14.0817 3.57101C14.0074 3.52456 13.9246 3.49352 13.8381 3.47974C13.7516 3.46595 13.6632 3.4697 13.5782 3.49076C13.4932 3.51182 13.4133 3.54976 13.3432 3.60232L9.3629 6.38855L5.38258 3.60232Z" fill="#00C2CB"/>
</svg>
