<svg width="21" height="16" viewBox="0 0 21 16" fill="none" xmlns="http://www.w3.org/2000/svg">
<path fill-rule="evenodd" clip-rule="evenodd" d="M2.68605 0C1.97366 0 1.29046 0.282993 0.786725 0.786725C0.282993 1.29046 0 1.97366 0 2.68605V12.4535C0 13.1659 0.282993 13.8491 0.786725 14.3528C1.29046 14.8565 1.97366 15.1395 2.68605 15.1395H18.314C19.0263 15.1395 19.7095 14.8565 20.2133 14.3528C20.717 13.8491 21 13.1659 21 12.4535V2.68605C21 1.97366 20.717 1.29046 20.2133 0.786725C19.7095 0.282993 19.0263 0 18.314 0H2.68605ZM6.03628 4.03981C5.87705 3.93591 5.68366 3.89798 5.49699 3.93405C5.31031 3.97011 5.14496 4.07734 5.0359 4.23308C4.92683 4.38882 4.88259 4.58086 4.91252 4.76862C4.94244 4.95638 5.0442 5.12514 5.19628 5.23926L10.08 8.65786C10.2031 8.74401 10.3497 8.79022 10.5 8.79022C10.6503 8.79022 10.7969 8.74401 10.92 8.65786L15.8037 5.23926C15.886 5.18558 15.9566 5.11591 16.0114 5.03439C16.0662 4.95286 16.104 4.86116 16.1226 4.76472C16.1413 4.66828 16.1403 4.56908 16.1198 4.47302C16.0994 4.37696 16.0598 4.28599 16.0034 4.20554C15.9471 4.12508 15.8751 4.05678 15.7919 4.0047C15.7086 3.95261 15.6157 3.9178 15.5187 3.90234C15.4217 3.88688 15.3226 3.89108 15.2272 3.9147C15.1319 3.93831 15.0423 3.98086 14.9637 4.03981L10.5 7.16442L6.03628 4.03981Z" fill="white"/>
</svg>
