<svg width="12" height="2" viewBox="0 0 12 2" fill="none" xmlns="http://www.w3.org/2000/svg">
<path d="M11.1429 1.71429H6.85714H6.42857C6.42857 1.71429 6.22733 1.71429 6 1.71429C5.77267 1.71429 5.57143 1.71429 5.57143 1.71429H5.14286H0.857143C0.629814 1.71429 0.411797 1.62398 0.251051 1.46323C0.090306 1.30249 0 1.08447 0 0.857143C0 0.629815 0.090306 0.411797 0.251051 0.251051C0.411797 0.090306 0.629814 0 0.857143 0H5.14286C5.57143 2.63623e-05 5.57143 2.63623e-05 5.57143 2.63623e-05C6 2.63623e-05 5.77267 5.02723e-05 6 5.02723e-05C6.22733 5.02723e-05 6 2.63623e-05 6.42857 5.02723e-05C6.68304 8.51859e-05 6.85714 0 6.85714 0H11.1429C11.3702 0 11.5882 0.090306 11.7489 0.251051C11.9097 0.411797 12 0.629815 12 0.857143C12 1.08447 11.9097 1.30249 11.7489 1.46323C11.5882 1.62398 11.3702 1.71429 11.1429 1.71429Z" fill="black"/>
</svg>
