<svg width="51" height="51" viewBox="0 0 51 51" fill="none" xmlns="http://www.w3.org/2000/svg">
<path d="M43.875 29.5833C43.875 27.3314 42.0436 25.5 39.7917 25.5H35.7083C33.4564 25.5 31.625 27.3314 31.625 29.5833C28.2481 29.5833 25.5 32.3314 25.5 35.7083V43.875C25.5 47.2519 28.2481 50 31.625 50H43.875C47.2519 50 50 47.2519 50 43.875V35.7083C50 32.3314 47.2519 29.5833 43.875 29.5833ZM35.7083 27.5417H39.7917C40.9166 27.5417 41.8333 28.4584 41.8333 29.5833H33.6667C33.6667 28.4584 34.5834 27.5417 35.7083 27.5417ZM47.9583 43.875C47.9583 46.127 46.127 47.9583 43.875 47.9583H31.625C29.373 47.9583 27.5417 46.127 27.5417 43.875V39.7917H36.7292V42.8542C36.7292 43.4177 37.1865 43.875 37.75 43.875C38.3135 43.875 38.7708 43.4177 38.7708 42.8542V39.7917H47.9583V43.875ZM47.9583 37.75H27.5417V35.7083C27.5417 33.4564 29.373 31.625 31.625 31.625H43.875C46.127 31.625 47.9583 33.4564 47.9583 35.7083V37.75ZM19.375 25.5C26.1309 25.5 31.625 20.0059 31.625 13.25C31.625 6.49413 26.1309 1 19.375 1C12.6191 1 7.125 6.49413 7.125 13.25C7.125 20.0059 12.6191 25.5 19.375 25.5ZM19.375 3.04167C25.0039 3.04167 29.5833 7.62113 29.5833 13.25C29.5833 18.8789 25.0039 23.4583 19.375 23.4583C13.7461 23.4583 9.16667 18.8789 9.16667 13.25C9.16667 7.62113 13.7461 3.04167 19.375 3.04167ZM23.4481 30.9308C23.3685 31.4882 22.8622 31.8822 22.2925 31.7965C21.5004 31.6822 20.6919 31.625 19.8854 31.625C10.5979 31.625 3.04167 39.1812 3.04167 48.4688V48.9792C3.04167 49.5427 2.58433 50 2.02083 50C1.45733 50 1 49.5427 1 48.9792V48.4688C1 38.0542 9.47088 29.5833 19.8854 29.5833C20.7878 29.5833 21.6964 29.6487 22.5825 29.7753C23.1398 29.8569 23.5278 30.3735 23.4481 30.9308Z" fill="#00C2CB" stroke="#00C2CB" stroke-width="0.6"/>
</svg>
