<svg width="50" height="51" viewBox="0 0 50 51" fill="none" xmlns="http://www.w3.org/2000/svg">
<path fill-rule="evenodd" clip-rule="evenodd" d="M9.06641 8.34999C9.06641 6.99689 10.1498 5.89999 11.4863 5.89999H21.166C22.5025 5.89999 23.5859 6.99689 23.5859 8.34999V21.4167C23.5859 22.7697 22.5025 23.8667 21.166 23.8667H11.4863C10.1498 23.8667 9.06641 22.7697 9.06641 21.4167V8.34999ZM11.4863 7.53333C11.0408 7.53333 10.6797 7.89897 10.6797 8.34999V21.4167C10.6797 21.8676 11.0408 22.2333 11.4863 22.2333H21.166C21.6114 22.2333 21.9727 21.8676 21.9727 21.4167V8.34999C21.9727 7.89897 21.6114 7.53333 21.166 7.53333H11.4863Z" fill="#00C2CB" stroke="#00C2CB"/>
<path fill-rule="evenodd" clip-rule="evenodd" d="M9.06641 29.5833C9.06641 28.2303 10.1498 27.1333 11.4863 27.1333H21.166C22.5025 27.1333 23.5859 28.2303 23.5859 29.5833V42.65C23.5859 44.0031 22.5025 45.1 21.166 45.1H11.4863C10.1498 45.1 9.06641 44.0031 9.06641 42.65V29.5833ZM11.4863 28.7667C11.0408 28.7667 10.6797 29.1324 10.6797 29.5833V42.65C10.6797 43.101 11.0408 43.4667 11.4863 43.4667H21.166C21.6114 43.4667 21.9727 43.101 21.9727 42.65V29.5833C21.9727 29.1324 21.6114 28.7667 21.166 28.7667H11.4863Z" fill="#00C2CB" stroke="#00C2CB"/>
<path fill-rule="evenodd" clip-rule="evenodd" d="M26.8125 8.34999C26.8125 6.99689 27.896 5.89999 29.2324 5.89999H38.9121C40.2486 5.89999 41.332 6.99689 41.332 8.34999V21.4167C41.332 22.7697 40.2486 23.8667 38.9121 23.8667H29.2324C27.896 23.8667 26.8125 22.7697 26.8125 21.4167V8.34999ZM29.2324 7.53333C28.787 7.53333 28.4258 7.89897 28.4258 8.34999V21.4167C28.4258 21.8676 28.787 22.2333 29.2324 22.2333H38.9121C39.3575 22.2333 39.7188 21.8676 39.7188 21.4167V8.34999C39.7188 7.89897 39.3575 7.53333 38.9121 7.53333H29.2324Z" fill="#00C2CB" stroke="#00C2CB"/>
<path d="M26.8125 29.5833C26.8125 28.2303 27.896 27.1333 29.2324 27.1333H38.9121C40.2486 27.1333 41.332 28.2303 41.332 29.5833V32.85C41.332 33.301 40.9708 33.6667 40.5254 33.6667C40.08 33.6667 39.7188 33.301 39.7188 32.85V29.5833C39.7188 29.1324 39.3575 28.7667 38.9121 28.7667H29.2324C28.787 28.7667 28.4258 29.1324 28.4258 29.5833V42.65C28.4258 43.101 28.787 43.4667 29.2324 43.4667H32.459C32.9044 43.4667 33.2656 43.8324 33.2656 44.2833C33.2656 44.7343 32.9044 45.1 32.459 45.1H29.2324C27.896 45.1 26.8125 44.0031 26.8125 42.65V29.5833Z" fill="#00C2CB" stroke="#00C2CB"/>
<path d="M12.293 9.98335C12.293 9.53232 12.6541 9.16669 13.0996 9.16669H19.5527C19.9982 9.16669 20.3594 9.53232 20.3594 9.98335C20.3594 10.4344 19.9982 10.8 19.5527 10.8H13.0996C12.6541 10.8 12.293 10.4344 12.293 9.98335Z" fill="#00C2CB" stroke="#00C2CB"/>
<path d="M12.293 31.2167C12.293 30.7657 12.6541 30.4 13.0996 30.4H19.5527C19.9982 30.4 20.3594 30.7657 20.3594 31.2167C20.3594 31.6676 19.9982 32.0333 19.5527 32.0333H13.0996C12.6541 32.0333 12.293 31.6676 12.293 31.2167Z" fill="#00C2CB" stroke="#00C2CB"/>
<path d="M30.0391 9.98335C30.0391 9.53232 30.4003 9.16669 30.8457 9.16669H37.2988C37.7443 9.16669 38.1055 9.53232 38.1055 9.98335C38.1055 10.4344 37.7443 10.8 37.2988 10.8H30.8457C30.4003 10.8 30.0391 10.4344 30.0391 9.98335Z" fill="#00C2CB" stroke="#00C2CB"/>
<path d="M30.0391 31.2167C30.0391 30.7657 30.4003 30.4 30.8457 30.4H37.2988C37.7443 30.4 38.1055 30.7657 38.1055 31.2167C38.1055 31.6676 37.7443 32.0333 37.2988 32.0333H30.8457C30.4003 32.0333 30.0391 31.6676 30.0391 31.2167Z" fill="#00C2CB" stroke="#00C2CB"/>
<path d="M1 2.63333C1 1.73128 1.7223 1 2.61328 1H9.87305C10.3185 1 10.6797 1.36564 10.6797 1.81667C10.6797 2.2677 10.3185 2.63333 9.87305 2.63333H3.41992C2.97443 2.63333 2.61328 2.99897 2.61328 3.45V9.98333C2.61328 10.4344 2.25213 10.8 1.80664 10.8C1.36115 10.8 1 10.4344 1 9.98333V2.63333Z" fill="#00C2CB" stroke="#00C2CB"/>
<path d="M1 48.3666C1 49.2687 1.7223 50 2.61328 50H9.87305C10.3185 50 10.6797 49.6343 10.6797 49.1833C10.6797 48.7324 10.3185 48.3666 9.87305 48.3666H3.41992C2.97443 48.3666 2.61328 48.0009 2.61328 47.55V41.0166C2.61328 40.5657 2.25213 40.2 1.80664 40.2C1.36115 40.2 1 40.5657 1 41.0166V48.3666Z" fill="#00C2CB" stroke="#00C2CB"/>
<path d="M49.3984 2.63333C49.3984 1.73128 48.6762 1 47.7852 1H40.5254C40.08 1 39.7188 1.36564 39.7188 1.81667C39.7188 2.2677 40.08 2.63333 40.5254 2.63333H46.9785C47.4239 2.63333 47.7852 2.99897 47.7852 3.45V9.98333C47.7852 10.4344 48.1464 10.8 48.5918 10.8C49.0372 10.8 49.3984 10.4344 49.3984 9.98333V2.63333Z" fill="#00C2CB" stroke="#00C2CB"/>
<path d="M2.61328 13.25C2.61328 12.799 2.25214 12.4333 1.80664 12.4333C1.36115 12.4333 1 12.799 1 13.25V18.15C1 18.601 1.36115 18.9667 1.80664 18.9667C2.25214 18.9667 2.61328 18.601 2.61328 18.15V13.25Z" fill="#00C2CB" stroke="#00C2CB"/>
<path d="M49.3984 13.25C49.3984 12.799 49.0373 12.4333 48.5918 12.4333C48.1463 12.4333 47.7852 12.799 47.7852 13.25V18.15C47.7852 18.601 48.1463 18.9667 48.5918 18.9667C49.0373 18.9667 49.3984 18.601 49.3984 18.15V13.25Z" fill="#00C2CB" stroke="#00C2CB"/>
<path d="M2.61328 23.05C2.61328 22.599 2.25214 22.2333 1.80664 22.2333C1.36115 22.2333 1 22.599 1 23.05V27.95C1 28.401 1.36115 28.7667 1.80664 28.7667C2.25214 28.7667 2.61328 28.401 2.61328 27.95V23.05Z" fill="#00C2CB" stroke="#00C2CB"/>
<path d="M49.3984 23.05C49.3984 22.599 49.0373 22.2333 48.5918 22.2333C48.1463 22.2333 47.7852 22.599 47.7852 23.05V27.95C47.7852 28.401 48.1463 28.7667 48.5918 28.7667C49.0373 28.7667 49.3984 28.401 49.3984 27.95V23.05Z" fill="#00C2CB" stroke="#00C2CB"/>
<path d="M2.61328 32.85C2.61328 32.399 2.25214 32.0333 1.80664 32.0333C1.36115 32.0333 1 32.399 1 32.85V37.75C1 38.201 1.36115 38.5667 1.80664 38.5667C2.25214 38.5667 2.61328 38.201 2.61328 37.75V32.85Z" fill="#00C2CB" stroke="#00C2CB"/>
<path d="M17.9395 1H13.0996C12.6541 1 12.293 1.36563 12.293 1.81667C12.293 2.2677 12.6541 2.63333 13.0996 2.63333H17.9395C18.3849 2.63333 18.7461 2.2677 18.7461 1.81667C18.7461 1.36563 18.3849 1 17.9395 1Z" fill="#00C2CB" stroke="#00C2CB"/>
<path d="M17.9395 48.3667H13.0996C12.6541 48.3667 12.293 48.7323 12.293 49.1833C12.293 49.6344 12.6541 50 13.0996 50H17.9395C18.3849 50 18.7461 49.6344 18.7461 49.1833C18.7461 48.7323 18.3849 48.3667 17.9395 48.3667Z" fill="#00C2CB" stroke="#00C2CB"/>
<path d="M27.6191 1H22.7793C22.3338 1 21.9727 1.36563 21.9727 1.81667C21.9727 2.2677 22.3338 2.63333 22.7793 2.63333H27.6191C28.0646 2.63333 28.4258 2.2677 28.4258 1.81667C28.4258 1.36563 28.0646 1 27.6191 1Z" fill="#00C2CB" stroke="#00C2CB"/>
<path d="M27.6191 48.3667H22.7793C22.3338 48.3667 21.9727 48.7323 21.9727 49.1833C21.9727 49.6344 22.3338 50 22.7793 50H27.6191C28.0646 50 28.4258 49.6344 28.4258 49.1833C28.4258 48.7323 28.0646 48.3667 27.6191 48.3667Z" fill="#00C2CB" stroke="#00C2CB"/>
<path d="M37.2988 1H32.459C32.0135 1 31.6523 1.36563 31.6523 1.81667C31.6523 2.2677 32.0135 2.63333 32.459 2.63333H37.2988C37.7443 2.63333 38.1055 2.2677 38.1055 1.81667C38.1055 1.36563 37.7443 1 37.2988 1Z" fill="#00C2CB" stroke="#00C2CB"/>
<path fill-rule="evenodd" clip-rule="evenodd" d="M45.5663 40.331C45.8813 40.65 45.8813 41.1669 45.5663 41.4859C44.2332 42.8357 42.9019 44.1878 41.5687 45.5374C41.2538 45.8562 40.743 45.8562 40.428 45.5374L38.1465 43.2276C37.8314 42.9086 37.8314 42.3915 38.1465 42.0726C38.4615 41.7536 38.9723 41.7536 39.2872 42.0726L40.9963 43.8028L44.4255 40.331C44.7406 40.012 45.2514 40.012 45.5663 40.331Z" fill="#00C2CB" stroke="#00C2CB"/>
<path fill-rule="evenodd" clip-rule="evenodd" d="M42.1387 48.3667C45.2571 48.3667 47.7852 45.8073 47.7852 42.65C47.7852 39.4928 45.2571 36.9334 42.1387 36.9334C39.0202 36.9334 36.4922 39.4928 36.4922 42.65C36.4922 45.8073 39.0202 48.3667 42.1387 48.3667ZM42.1387 50C46.1482 50 49.3984 46.7093 49.3984 42.65C49.3984 38.5907 46.1482 35.3 42.1387 35.3C38.1292 35.3 34.8789 38.5907 34.8789 42.65C34.8789 46.7093 38.1292 50 42.1387 50Z" fill="#00C2CB" stroke="#00C2CB"/>
</svg>
