<svg width="63" height="51" viewBox="0 0 63 51" fill="none" xmlns="http://www.w3.org/2000/svg">
<path d="M60.1072 21.7598H44.8694C43.7516 21.7598 42.8345 22.6674 42.8345 23.7947V32.7463C42.8345 33.8641 43.7421 34.7717 44.8598 34.7812V36.5391C44.8598 36.9021 45.07 37.2269 45.4044 37.3798C45.5286 37.4371 45.6623 37.4658 45.7865 37.4658C46.0062 37.4658 46.226 37.3894 46.3979 37.2365L49.2258 34.7812H60.1072C61.225 34.7812 62.1421 33.8641 62.1421 32.7463V23.7947C62.1421 22.6674 61.225 21.7598 60.1072 21.7598ZM60.2888 32.7463C60.2888 32.8514 60.2028 32.9279 60.1072 32.9279H48.8723C48.6526 32.9279 48.4328 33.0043 48.2609 33.1571L46.7036 34.5042V33.8546C46.7036 33.3387 46.2928 32.9279 45.777 32.9279H44.8598C44.7643 32.9279 44.6783 32.8419 44.6783 32.7463V23.7947C44.6783 23.6992 44.7643 23.6132 44.8598 23.6132H60.0977C60.2028 23.6132 60.2792 23.6992 60.2792 23.7947V32.7463H60.2888Z" fill="#00C2CB" stroke="#00C2CB" stroke-width="0.6"/>
<path d="M57.06 25.5908H47.8886C47.3727 25.5908 46.9619 26.0016 46.9619 26.5175C46.9619 27.0333 47.3727 27.4441 47.8886 27.4441H57.06C57.5759 27.4441 57.9867 27.0333 57.9867 26.5175C57.9867 26.0016 57.5663 25.5908 57.06 25.5908Z" fill="#00C2CB" stroke="#00C2CB" stroke-width="0.6"/>
<path d="M52.8469 29.0969H47.8886C47.3727 29.0969 46.9619 29.5077 46.9619 30.0236C46.9619 30.5395 47.3727 30.9503 47.8886 30.9503H52.8469C53.3628 30.9503 53.7736 30.5395 53.7736 30.0236C53.7736 29.5077 53.3532 29.0969 52.8469 29.0969Z" fill="#00C2CB" stroke="#00C2CB" stroke-width="0.6"/>
<path d="M34.6571 33.3864C33.3769 32.9852 32.1636 32.603 31.256 32.1158C30.358 31.6477 29.7179 30.9121 29.3071 29.9758C29.6415 29.6319 29.9568 29.2498 30.2625 28.8485H36.9595C37.4658 28.8485 37.8766 28.4473 37.8862 27.9409L38.1441 15.7029C38.1441 11.7955 36.6156 8.09826 33.845 5.30864C31.065 2.52856 27.3773 1 23.4508 1C15.3494 1 8.7575 7.59193 8.7575 15.722L9.01544 27.9314C9.025 28.4377 9.4358 28.839 9.94214 28.839H16.6392C16.9449 29.2402 17.2601 29.6223 17.5945 29.9663C17.1837 30.9121 16.5436 31.6381 15.6456 32.1158C14.738 32.603 13.5247 32.9852 12.2445 33.3864C7.48688 34.8863 0.980935 36.9403 1.00004 46.9524C1.00004 47.3919 1.31531 47.774 1.74522 47.86C8.93902 49.2835 16.1901 50 23.4413 50C30.6924 50 37.934 49.2835 45.1373 47.86C45.5672 47.774 45.8825 47.3919 45.8825 46.9524C45.9016 36.9403 39.3956 34.8863 34.6571 33.3864ZM14.8335 15.9417C14.8335 14.6329 14.9291 13.324 15.1106 12.0534L17.2792 10.0281C19.1613 11.2127 24.9794 14.4705 32.0108 14.6138C32.0299 15.0055 32.0394 15.4354 32.0394 15.9321C32.0394 18.0339 31.8006 20.0211 31.3611 21.8171C29.8135 22.7056 27.5684 23.4317 25.887 23.7374L25.8774 23.5559C25.8487 23.0686 25.4379 22.6865 24.9507 22.6865L22.0751 22.696C21.8172 22.696 21.5783 22.8011 21.3968 22.9922C21.2248 23.1833 21.1293 23.4317 21.1484 23.6896L21.3395 26.4315C21.3586 26.6894 21.4828 26.9282 21.6739 27.0907C21.8363 27.2244 22.0464 27.3008 22.2566 27.3008C22.2948 27.3008 22.3426 27.3008 22.3808 27.2913L25.2182 26.9091C25.6959 26.8423 26.0494 26.4219 26.0207 25.9347L26.0016 25.6099C27.3582 25.3806 29.0683 24.9029 30.6064 24.2533C29.0778 28.2562 26.4602 30.8452 23.4222 30.8452C18.6167 30.8356 14.8335 24.2915 14.8335 15.9417ZM24.1291 25.1704L23.126 25.3042L23.0782 24.5399H24.0909L24.11 24.8169C24.11 24.836 24.1005 24.8456 24.1005 24.8647C24.1005 24.8742 24.11 24.8933 24.11 24.9029L24.1291 25.1704ZM10.8402 26.9856L10.6013 15.6933C10.6013 8.6046 16.3621 2.84383 23.4413 2.84383C26.871 2.84383 30.1001 4.18132 32.5171 6.60791C34.9437 9.05362 36.2716 12.2732 36.2716 15.6742L36.0328 26.9856H31.4089C32.0872 25.715 32.6509 24.2628 33.0712 22.6769C33.0808 22.6483 33.0903 22.6196 33.0999 22.591C33.6158 20.5752 33.9024 18.3301 33.9024 15.9417C33.9024 14.9864 33.8737 14.2698 33.7973 13.5915C33.7495 13.1139 33.3196 12.7699 32.861 12.7604C24.7023 12.9132 17.7856 8.14603 17.7187 8.09826C17.3652 7.84987 16.878 7.87853 16.5532 8.17469L13.6202 10.9166C13.4674 11.0599 13.3718 11.2414 13.3336 11.4515C13.1044 12.9132 12.9802 14.4227 12.9802 15.9417C12.9802 20.2599 13.9068 24.0813 15.4641 26.9856H10.8402ZM23.4413 32.689C25.0271 32.689 26.5079 32.1636 27.8359 31.2273C28.3327 32.1445 29.0396 32.8705 29.8994 33.4342L23.5846 38.2587L17.0022 33.4246C17.8524 32.861 18.5499 32.1349 19.0371 31.2369C20.365 32.154 21.8458 32.689 23.4413 32.689ZM2.86298 46.1881C3.14958 38.2014 8.26072 36.5869 12.7891 35.1538C13.6202 34.8959 14.4132 34.6379 15.1488 34.3513L23.0496 40.1599C23.212 40.2841 23.403 40.3414 23.5941 40.3414C23.7947 40.3414 23.9858 40.2745 24.1578 40.1503L31.7433 34.3609C32.4789 34.6475 33.2718 34.8959 34.0934 35.1634C38.6123 36.5964 43.7234 38.211 44.01 46.1977C30.358 48.7963 16.5245 48.7963 2.86298 46.1881Z" fill="#00C2CB" stroke="#00C2CB" stroke-width="0.6"/>
</svg>
