<svg width="42" height="51" viewBox="0 0 42 51" fill="none" xmlns="http://www.w3.org/2000/svg">
<path d="M41.1953 9.60754C41.1953 9.07907 40.7668 8.65051 40.2383 8.65051C40.2129 8.65051 40.188 8.65242 40.1632 8.65434C36.5038 8.61376 33.5391 5.62571 33.5391 1.95703C33.5391 1.42856 33.1105 1 32.582 1H9.61328C9.08481 1 8.65625 1.42856 8.65625 1.95703C8.65625 5.65098 5.65098 8.65625 1.95703 8.65625C1.42856 8.65625 1 9.08481 1 9.61328V25.4416C1 37.474 8.58064 42.1692 15.269 46.3117C17.1454 47.474 18.9178 48.5716 20.5137 49.8011C20.6857 49.9338 20.8917 50 21.0978 50C21.3038 50 21.5098 49.9338 21.6818 49.8011C23.2896 48.5626 25.0677 47.4597 26.9502 46.2921C33.8156 42.0336 41.1953 37.3995 41.1953 25.4416V9.61328C41.1953 9.61232 41.1952 9.61137 41.1952 9.61041C41.1952 9.60945 41.1953 9.6085 41.1953 9.60754ZM39.2812 25.4416C39.2812 36.3913 32.4995 40.5976 25.9411 44.6655C24.3106 45.6768 22.631 46.7186 21.0976 47.8456C19.5742 46.7268 17.9011 45.6904 16.2769 44.6845C9.70726 40.6154 2.91406 36.4081 2.91406 25.4416V10.5175C6.90029 10.0748 10.0748 6.90029 10.5175 2.91406H31.6778C32.1206 6.90029 35.295 10.0748 39.2812 10.5175V25.4416Z" fill="#00C2CB" stroke="#00C2CB" stroke-width="0.6"/>
<path d="M21.0977 9.23047C13.1821 9.23047 6.74219 15.6703 6.74219 23.5859C6.74219 31.5015 13.1821 37.9414 21.0977 37.9414C29.0133 37.9414 35.4531 31.5015 35.4531 23.5859C35.4531 15.6703 29.0133 9.23047 21.0977 9.23047ZM21.0977 36.0273C14.2374 36.0273 8.65625 30.4462 8.65625 23.5859C8.65625 16.7257 14.2374 11.1445 21.0977 11.1445C27.9579 11.1445 33.5391 16.7257 33.5391 23.5859C33.5391 30.4462 27.9579 36.0273 21.0977 36.0273Z" fill="#00C2CB" stroke="#00C2CB" stroke-width="0.6"/>
<path d="M21.5453 22.8083C20.1187 22.0541 19.1836 21.5058 19.1836 20.7827C19.1836 19.7273 20.0422 18.8687 21.0977 18.8687C22.1531 18.8687 23.0117 19.7273 23.0117 20.7827C23.0117 21.3112 23.4403 21.7397 23.9688 21.7397C24.4972 21.7397 24.9258 21.3112 24.9258 20.7827C24.9258 19.0023 23.7039 17.5018 22.0547 17.0757V15.9976C22.0547 15.4691 21.6261 15.0405 21.0977 15.0405C20.5692 15.0405 20.1406 15.4691 20.1406 15.9976V17.0757C18.4914 17.5018 17.2695 19.0023 17.2695 20.7827C17.2695 22.7132 19.066 23.6627 20.6508 24.5005C22.0769 25.2543 23.0117 25.8024 23.0117 26.5249C23.0117 27.5803 22.1531 28.439 21.0977 28.439C20.0422 28.439 19.1836 27.5803 19.1836 26.5249C19.1836 25.9964 18.755 25.5679 18.2266 25.5679C17.6981 25.5679 17.2695 25.9964 17.2695 26.5249C17.2695 28.3054 18.4914 29.8058 20.1406 30.2319V31.3101C20.1406 31.8385 20.5692 32.2671 21.0977 32.2671C21.6261 32.2671 22.0547 31.8385 22.0547 31.3101V30.2319C23.7039 29.8058 24.9258 28.3054 24.9258 26.5249C24.9258 24.5951 23.1298 23.6458 21.5453 22.8083Z" fill="#00C2CB" stroke="#00C2CB" stroke-width="0.6"/>
</svg>
