<svg width="49" height="49" viewBox="0 0 49 49" fill="none" xmlns="http://www.w3.org/2000/svg">
<path d="M24.5 2.39258C29.6002 2.39625 34.5423 4.16268 38.4893 7.39269C42.4363 10.6227 45.1455 15.1177 46.158 20.1163C47.1706 25.115 46.4242 30.31 44.0453 34.8214C41.6665 39.3327 37.8014 42.8832 33.1047 44.8714C27.704 47.1416 21.6231 47.1761 16.1971 44.9673C10.771 42.7584 6.4431 38.4867 4.16356 33.0899C1.88401 27.6931 1.83909 21.6124 4.03864 16.1825C6.2382 10.7526 10.5025 6.41743 15.8953 4.12863C18.6175 2.97682 21.5442 2.38635 24.5 2.39258ZM24.5 0C10.9695 0 0 10.9695 0 24.5C0 38.0305 10.9695 49 24.5 49C38.0305 49 49 38.0305 49 24.5C49 10.9695 38.0305 0 24.5 0Z" fill="#00C2CB"/>
<path d="M38.4035 11.8299C38.0849 11.748 37.7468 11.7957 37.4632 11.9625C37.1797 12.1293 36.9737 12.4016 36.8904 12.7199L36.188 15.4331C34.8054 13.6499 33.0336 12.2063 31.0079 11.2124C28.9822 10.2185 26.7561 9.70074 24.4997 9.69855H24.4787C22.5349 9.69855 20.6102 10.0814 18.8144 10.8252C17.0186 11.5691 15.3869 12.6593 14.0125 14.0338C12.638 15.4082 11.5478 17.0399 10.8039 18.8357C10.0601 20.6315 9.67725 22.5562 9.67725 24.5C9.67725 26.4437 10.0601 28.3685 10.8039 30.1643C11.5478 31.9601 12.638 33.5918 14.0125 34.9662C15.3869 36.3406 17.0186 37.4309 18.8144 38.1747C20.6102 38.9186 22.5349 39.3014 24.4787 39.3014H24.4997C26.8094 39.3004 29.0867 38.7586 31.1493 37.7192C33.2119 36.6799 35.0024 35.1719 36.3775 33.3162C36.5624 33.0525 36.6372 32.7271 36.5859 32.4092C36.5347 32.0912 36.3614 31.8058 36.1029 31.6137C35.8444 31.4216 35.5212 31.3379 35.202 31.3804C34.8827 31.4229 34.5927 31.5883 34.3935 31.8414C33.253 33.3924 31.7626 34.6525 30.0435 35.5192C28.3243 36.3859 26.425 36.8348 24.4997 36.8294H24.4787C17.6742 36.8294 12.1378 31.2987 12.1378 24.5C12.1378 17.7012 17.6742 12.1706 24.4835 12.1706H24.4997C26.2962 12.1676 28.0714 12.5588 29.7002 13.3167C31.329 14.0745 32.7717 15.1805 33.9265 16.5566L31.4086 15.9154C31.0989 15.8594 30.7795 15.9229 30.5147 16.093C30.25 16.2631 30.0595 16.5273 29.9817 16.8322C29.9039 17.1372 29.9446 17.4602 30.0955 17.7364C30.2465 18.0126 30.4964 18.2212 30.7951 18.3204L36.3583 19.7378C36.459 19.7639 36.5625 19.7771 36.6665 19.777C36.9404 19.7768 37.2066 19.6862 37.4238 19.5192C37.641 19.3522 37.797 19.1182 37.8676 18.8535L39.2935 13.3468C39.3765 13.0276 39.3294 12.6885 39.1625 12.4041C38.9956 12.1196 38.7226 11.9131 38.4035 11.8299Z" fill="#00C2CB"/>
<path d="M24.3913 18.7339C24.0125 18.7339 23.6492 18.8843 23.3812 19.152C23.1133 19.4198 22.9627 19.783 22.9624 20.1618V25.0914C22.9632 25.47 23.1136 25.8329 23.3806 26.1011L26.6058 29.3254C26.8737 29.5931 27.237 29.7435 27.6158 29.7434C27.9946 29.7433 28.3579 29.5928 28.6256 29.3249C28.8934 29.057 29.0438 28.6937 29.0437 28.3149C29.0436 27.9361 28.8931 27.5728 28.6252 27.3051L25.8191 24.5V20.1618C25.8191 19.7831 25.6687 19.4199 25.4009 19.1521C25.1331 18.8843 24.77 18.7339 24.3913 18.7339Z" fill="#00C2CB"/>
</svg>
