<svg width="51" height="51" viewBox="0 0 51 51" fill="none" xmlns="http://www.w3.org/2000/svg">
<path d="M37.75 25.5C30.9844 25.5 25.5 30.9844 25.5 37.75C25.5 44.5156 30.9844 50 37.75 50C44.5156 50 50 44.5156 50 37.75C49.9923 30.9876 44.5124 25.5077 37.75 25.5ZM37.75 48.3667C31.8866 48.3667 27.1333 43.6134 27.1333 37.75C27.1333 31.8866 31.8866 27.1333 37.75 27.1333C43.6134 27.1333 48.3667 31.8866 48.3667 37.75C48.36 43.6105 43.6105 48.36 37.75 48.3667Z" fill="#00C2CB" stroke="#00C2CB"/>
<path d="M38.5663 29.5833H36.933V36.9333H29.583V38.5666H36.933V45.1H38.5663V38.5666H45.9163V36.9333H38.5663V29.5833Z" fill="#00C2CB" stroke="#00C2CB"/>
<path d="M47.55 1H29.5833C28.2304 1 27.1333 2.09708 27.1333 3.45V21.4167C27.1333 22.7696 28.2304 23.8667 29.5833 23.8667H47.55C48.9029 23.8667 50 22.7696 50 21.4167V3.45C50 2.09708 48.9029 1 47.55 1ZM48.3666 21.4167C48.3666 21.8677 48.001 22.2333 47.55 22.2333H29.5833C29.1322 22.2333 28.7666 21.8677 28.7666 21.4167V3.45C28.7666 2.99892 29.1322 2.63333 29.5833 2.63333H47.55C48.001 2.63333 48.3666 2.99892 48.3666 3.45V21.4167Z" fill="#00C2CB" stroke="#00C2CB"/>
<path d="M21.4167 1H3.45C2.09708 1 1 2.09708 1 3.45V21.4167C1 22.7696 2.09708 23.8667 3.45 23.8667H21.4167C22.7696 23.8667 23.8667 22.7696 23.8667 21.4167V3.45C23.8667 2.09708 22.7696 1 21.4167 1ZM22.2333 21.4167C22.2333 21.8677 21.8677 22.2333 21.4167 22.2333H3.45C2.99892 22.2333 2.63333 21.8677 2.63333 21.4167V3.45C2.63333 2.99892 2.99892 2.63333 3.45 2.63333H21.4167C21.8677 2.63333 22.2333 2.99892 22.2333 3.45V21.4167Z" fill="#00C2CB" stroke="#00C2CB"/>
<path d="M21.4167 27.1333H3.45C2.09708 27.1333 1 28.2304 1 29.5833V47.55C1 48.9029 2.09708 50 3.45 50H21.4167C22.7696 50 23.8667 48.9029 23.8667 47.55V29.5833C23.8667 28.2304 22.7696 27.1333 21.4167 27.1333ZM22.2333 47.55C22.2333 48.0011 21.8677 48.3667 21.4167 48.3667H3.45C2.99892 48.3667 2.63333 48.0011 2.63333 47.55V29.5833C2.63333 29.1323 2.99892 28.7667 3.45 28.7667H21.4167C21.8677 28.7667 22.2333 29.1323 22.2333 29.5833V47.55Z" fill="#00C2CB" stroke="#00C2CB"/>
</svg>
