<svg width="51" height="51" viewBox="0 0 51 51" fill="none" xmlns="http://www.w3.org/2000/svg">
<path d="M19.3722 36.2179H9.41921V12.4839C9.41921 12.2809 9.33855 12.0861 9.19497 11.9426C9.05139 11.799 8.85665 11.7183 8.6536 11.7183C8.45055 11.7183 8.25581 11.799 8.11223 11.9426C7.96865 12.0861 7.88799 12.2809 7.88799 12.4839V17.6541L2.81734 16.5271L7.70348 4.66013L12.5735 2.83721C12.745 3.93143 13.1779 4.96814 13.8355 5.85934C14.4931 6.75054 15.356 7.46991 16.351 7.9564C17.346 8.4429 18.4437 8.68214 19.5509 8.65383C20.6581 8.62552 21.7422 8.33049 22.711 7.79379C22.8821 7.69201 23.0068 7.5276 23.0587 7.33541C23.1107 7.14322 23.0857 6.93836 22.9891 6.76429C22.8925 6.59022 22.7319 6.46062 22.5413 6.40297C22.3508 6.34532 22.1453 6.36416 21.9684 6.45549C21.2333 6.86249 20.4129 7.09097 19.5733 7.1225C18.7337 7.15402 17.8985 6.98769 17.135 6.63695C16.3715 6.28621 15.7012 5.76088 15.1782 5.10336C14.6551 4.44584 14.294 3.67455 14.1239 2.85176C17.5443 3.88187 21.1924 3.88187 24.6128 2.85176C24.4467 3.67769 24.0858 4.45202 23.5601 5.11031C23.433 5.26869 23.374 5.47108 23.3961 5.67296C23.4182 5.87483 23.5196 6.05965 23.678 6.18676C23.8364 6.31388 24.0388 6.37286 24.2406 6.35075C24.4425 6.32864 24.6273 6.22724 24.7544 6.06886C25.5002 5.13309 25.9896 4.01939 26.1746 2.83721L31.0409 4.66166L35.927 16.5287L30.8564 17.6541V12.4839C30.8564 12.2809 30.7757 12.0861 30.6321 11.9426C30.4885 11.799 30.2938 11.7183 30.0908 11.7183C29.8877 11.7183 29.693 11.799 29.5494 11.9426C29.4058 12.0861 29.3251 12.2809 29.3251 12.4839V21.6713C29.3251 21.8743 29.4058 22.0691 29.5494 22.2127C29.693 22.3562 29.8877 22.4369 30.0908 22.4369C30.2938 22.4369 30.4885 22.3562 30.6321 22.2127C30.7757 22.0691 30.8564 21.8743 30.8564 21.6713V19.2213L37.1474 17.8241C37.2565 17.7999 37.359 17.7522 37.4476 17.6842C37.5363 17.6162 37.609 17.5296 37.6607 17.4305C37.7123 17.3314 37.7417 17.2223 37.7467 17.1106C37.7516 16.999 37.7321 16.8877 37.6895 16.7844L32.3302 3.76896C32.2902 3.67168 32.2306 3.58368 32.1551 3.51044C32.0797 3.4372 31.9899 3.3803 31.8915 3.34328L25.7666 1.04644C25.5936 0.982892 25.4036 0.982892 25.2306 1.04644C21.4546 2.46359 17.2928 2.46359 13.5168 1.04644C13.3438 0.982892 13.1538 0.982892 12.9808 1.04644L6.85594 3.34328C6.7575 3.3803 6.66775 3.4372 6.59227 3.51044C6.51679 3.58368 6.45721 3.67168 6.41725 3.76896L1.05796 16.7844C1.01531 16.8877 0.995788 16.999 1.00076 17.1106C1.00573 17.2223 1.03507 17.3314 1.08673 17.4305C1.13838 17.5296 1.2111 17.6162 1.29977 17.6842C1.38844 17.7522 1.49092 17.7999 1.60001 17.8241L7.88799 19.2213V36.9835C7.88799 37.1866 7.96865 37.3813 8.11223 37.5249C8.25581 37.6685 8.45055 37.7491 8.6536 37.7491H19.3722C19.5752 37.7491 19.77 37.6685 19.9135 37.5249C20.0571 37.3813 20.1378 37.1866 20.1378 36.9835C20.1378 36.7805 20.0571 36.5857 19.9135 36.4422C19.77 36.2986 19.5752 36.2179 19.3722 36.2179Z" fill="#00C2CB" stroke="#00C2CB"/>
<path d="M49.7726 45.2866L46.9085 42.4194L48.0699 41.2579C48.168 41.16 48.2376 41.0373 48.2714 40.9029C48.3052 40.7685 48.3018 40.6274 48.2618 40.4948C48.2217 40.3621 48.1464 40.2428 48.0438 40.1496C47.9412 40.0564 47.8153 39.9928 47.6795 39.9656L39.1651 38.2659C39.0414 38.2411 38.9136 38.2473 38.7929 38.2838C38.6722 38.3203 38.5624 38.3861 38.4733 38.4752C38.3841 38.5644 38.3183 38.6742 38.2818 38.7949C38.2453 38.9156 38.2392 39.0434 38.2639 39.167L39.9674 47.6814C39.9947 47.8173 40.0583 47.9432 40.1515 48.0458C40.2447 48.1483 40.364 48.2236 40.4967 48.2637C40.6293 48.3038 40.7704 48.3071 40.9048 48.2733C41.0392 48.2395 41.1619 48.1699 41.2598 48.0719L42.4174 46.9104L45.2816 49.7746C45.4251 49.9181 45.6198 49.9988 45.8228 49.9988C46.0259 49.9988 46.2206 49.9181 46.3641 49.7746L49.7696 46.3691C49.9135 46.226 49.9947 46.0315 49.9953 45.8285C49.9958 45.6255 49.9158 45.4306 49.7726 45.2866ZM45.8259 48.1507L42.9617 45.2866C42.8906 45.2154 42.8062 45.1589 42.7133 45.1204C42.6203 45.0819 42.5207 45.062 42.4201 45.062C42.3195 45.062 42.2198 45.0819 42.1269 45.1204C42.0339 45.1589 41.9495 45.2154 41.8784 45.2866L41.1894 45.9756L39.9904 39.9924L45.976 41.1898L45.2869 41.8788C45.2157 41.9499 45.1593 42.0344 45.1207 42.1273C45.0822 42.2203 45.0624 42.3199 45.0624 42.4205C45.0624 42.5211 45.0822 42.6207 45.1207 42.7137C45.1593 42.8066 45.2157 42.8911 45.2869 42.9622L48.1511 45.8263L45.8259 48.1507Z" fill="#00C2CB" stroke="#00C2CB"/>
<path d="M39.8906 25.4993H41.575V26.2649C41.575 26.468 41.6556 26.6627 41.7992 26.8063C41.9428 26.9499 42.1375 27.0305 42.3406 27.0305C42.5436 27.0305 42.7384 26.9499 42.8819 26.8063C43.0255 26.6627 43.1062 26.468 43.1062 26.2649V24.7337C43.1062 24.5306 43.0255 24.3359 42.8819 24.1923C42.7384 24.0487 42.5436 23.9681 42.3406 23.9681H39.8906C39.6876 23.9681 39.4928 24.0487 39.3492 24.1923C39.2057 24.3359 39.125 24.5306 39.125 24.7337C39.125 24.9367 39.2057 25.1315 39.3492 25.2751C39.4928 25.4186 39.6876 25.4993 39.8906 25.4993Z" fill="#00C2CB" stroke="#00C2CB"/>
<path d="M22.4346 42.3428C22.2315 42.3428 22.0368 42.4234 21.8932 42.567C21.7496 42.7106 21.6689 42.9053 21.6689 43.1084V47.0896C21.6689 47.2926 21.7496 47.4874 21.8932 47.6309C22.0368 47.7745 22.2315 47.8552 22.4346 47.8552C22.6376 47.8552 22.8323 47.7745 22.9759 47.6309C23.1195 47.4874 23.2002 47.2926 23.2002 47.0896V43.1084C23.2002 42.9053 23.1195 42.7106 22.9759 42.567C22.8323 42.4234 22.6376 42.3428 22.4346 42.3428Z" fill="#00C2CB" stroke="#00C2CB"/>
<path d="M36.6755 24.7337C36.6755 24.5306 36.5948 24.3359 36.4513 24.1923C36.3077 24.0487 36.1129 23.9681 35.9099 23.9681H31.9287C31.7256 23.9681 31.5309 24.0487 31.3873 24.1923C31.2437 24.3359 31.1631 24.5306 31.1631 24.7337C31.1631 24.9367 31.2437 25.1315 31.3873 25.2751C31.5309 25.4186 31.7256 25.4993 31.9287 25.4993H35.9099C36.1129 25.4993 36.3077 25.4186 36.4513 25.2751C36.5948 25.1315 36.6755 24.9367 36.6755 24.7337Z" fill="#00C2CB" stroke="#00C2CB"/>
<path d="M42.3408 29.4805C42.1378 29.4805 41.943 29.5611 41.7994 29.7047C41.6559 29.8483 41.5752 30.043 41.5752 30.2461V34.2273C41.5752 34.4303 41.6559 34.6251 41.7994 34.7686C41.943 34.9122 42.1378 34.9929 42.3408 34.9929C42.5439 34.9929 42.7386 34.9122 42.8822 34.7686C43.0258 34.6251 43.1064 34.4303 43.1064 34.2273V30.2461C43.1064 30.043 43.0258 29.8483 42.8822 29.7047C42.7386 29.5611 42.5439 29.4805 42.3408 29.4805Z" fill="#00C2CB" stroke="#00C2CB"/>
<path d="M37.7468 46.9365H33.7656C33.5626 46.9365 33.3678 47.0172 33.2242 47.1607C33.0807 47.3043 33 47.4991 33 47.7021C33 47.9052 33.0807 48.0999 33.2242 48.2435C33.3678 48.3871 33.5626 48.4677 33.7656 48.4677H37.7468C37.9499 48.4677 38.1446 48.3871 38.2882 48.2435C38.4317 48.0999 38.5124 47.9052 38.5124 47.7021C38.5124 47.4991 38.4317 47.3043 38.2882 47.1607C38.1446 47.0172 37.9499 46.9365 37.7468 46.9365Z" fill="#00C2CB" stroke="#00C2CB"/>
<path d="M28.7126 24.7337C28.7126 24.5306 28.6319 24.3359 28.4884 24.1923C28.3448 24.0487 28.15 23.9681 27.947 23.9681H23.9658C23.7628 23.9681 23.568 24.0487 23.4244 24.1923C23.2809 24.3359 23.2002 24.5306 23.2002 24.7337C23.2002 24.9367 23.2809 25.1315 23.4244 25.2751C23.568 25.4186 23.7628 25.4993 23.9658 25.4993H27.947C28.15 25.4993 28.3448 25.4186 28.4884 25.2751C28.6319 25.1315 28.7126 24.9367 28.7126 24.7337Z" fill="#00C2CB" stroke="#00C2CB"/>
<path d="M29.7849 46.9365H25.8037C25.6006 46.9365 25.4059 47.0172 25.2623 47.1607C25.1187 47.3043 25.0381 47.4991 25.0381 47.7021C25.0381 47.9052 25.1187 48.0999 25.2623 48.2435C25.4059 48.3871 25.6006 48.4677 25.8037 48.4677H29.7849C29.9879 48.4677 30.1827 48.3871 30.3263 48.2435C30.4698 48.0999 30.5505 47.9052 30.5505 47.7021C30.5505 47.4991 30.4698 47.3043 30.3263 47.1607C30.1827 47.0172 29.9879 46.9365 29.7849 46.9365Z" fill="#00C2CB" stroke="#00C2CB"/>
<path d="M22.4346 26.418C22.2315 26.418 22.0368 26.4987 21.8932 26.6423C21.7496 26.7859 21.6689 26.9806 21.6689 27.1836V31.1648C21.6689 31.3679 21.7496 31.5626 21.8932 31.7062C22.0368 31.8498 22.2315 31.9304 22.4346 31.9304C22.6376 31.9304 22.8323 31.8498 22.9759 31.7062C23.1195 31.5626 23.2002 31.3679 23.2002 31.1648V27.1836C23.2002 26.9806 23.1195 26.7859 22.9759 26.6423C22.8323 26.4987 22.6376 26.418 22.4346 26.418Z" fill="#00C2CB" stroke="#00C2CB"/>
<path d="M22.4346 34.3805C22.2315 34.3805 22.0368 34.4612 21.8932 34.6047C21.7496 34.7483 21.6689 34.9431 21.6689 35.1461V39.1273C21.6689 39.3303 21.7496 39.5251 21.8932 39.6687C22.0368 39.8122 22.2315 39.8929 22.4346 39.8929C22.6376 39.8929 22.8323 39.8122 22.9759 39.6687C23.1195 39.5251 23.2002 39.3303 23.2002 39.1273V35.1461C23.2002 34.9431 23.1195 34.7483 22.9759 34.6047C22.8323 34.4612 22.6376 34.3805 22.4346 34.3805Z" fill="#00C2CB" stroke="#00C2CB"/>
<path d="M26.1096 44.3334L30.0907 39.0254L34.0719 44.3334C34.1322 44.4138 34.2078 44.4816 34.2943 44.5328C34.3809 44.584 34.4766 44.6177 34.5761 44.6319C34.6757 44.6461 34.777 44.6406 34.8744 44.6157C34.9718 44.5907 35.0633 44.5468 35.1438 44.4865C35.2242 44.4262 35.292 44.3506 35.3432 44.2641C35.3944 44.1776 35.4281 44.0818 35.4423 43.9823C35.4565 43.8827 35.451 43.7814 35.4261 43.684C35.4011 43.5866 35.3572 43.4951 35.2969 43.4146L34.2021 41.9554L36.7064 39.8691C36.8625 39.7389 36.9606 39.5521 36.979 39.3496C36.9973 39.1472 36.9346 38.9457 36.8044 38.7896C36.6742 38.6334 36.4874 38.5354 36.2849 38.517C36.0825 38.4986 35.881 38.5614 35.7249 38.6916L33.2818 40.7281L30.7032 37.2897C30.6288 37.1993 30.5353 37.1265 30.4294 37.0765C30.3235 37.0265 30.2078 37.0005 30.0907 37.0005C29.9736 37.0005 29.858 37.0265 29.7521 37.0765C29.6462 37.1265 29.5527 37.1993 29.4782 37.2897L24.8846 43.4146C24.7627 43.5771 24.7104 43.7813 24.7391 43.9823C24.7679 44.1833 24.8753 44.3647 25.0377 44.4865C25.2001 44.6083 25.4043 44.6606 25.6053 44.6319C25.8063 44.6032 25.9877 44.4958 26.1096 44.3334Z" fill="#00C2CB" stroke="#00C2CB"/>
<path d="M33.1533 28.5618C32.5476 28.5618 31.9555 28.7414 31.4519 29.0779C30.9482 29.4144 30.5557 29.8927 30.3239 30.4523C30.0921 31.0119 30.0315 31.6276 30.1497 32.2217C30.2678 32.8157 30.5595 33.3614 30.9878 33.7897C31.4161 34.218 31.9618 34.5097 32.5558 34.6278C33.1499 34.746 33.7656 34.6853 34.3252 34.4536C34.8848 34.2218 35.3631 33.8292 35.6996 33.3256C36.0361 32.822 36.2157 32.2299 36.2157 31.6242C36.2157 30.812 35.8931 30.0331 35.3188 29.4587C34.7444 28.8844 33.9655 28.5618 33.1533 28.5618ZM33.1533 33.1554C32.8504 33.1554 32.5544 33.0656 32.3026 32.8974C32.0508 32.7291 31.8545 32.49 31.7386 32.2102C31.6227 31.9304 31.5924 31.6225 31.6515 31.3255C31.7106 31.0285 31.8564 30.7556 32.0705 30.5415C32.2847 30.3273 32.5575 30.1815 32.8545 30.1224C33.1516 30.0633 33.4595 30.0937 33.7392 30.2096C34.019 30.3254 34.2582 30.5217 34.4264 30.7735C34.5947 31.0253 34.6845 31.3214 34.6845 31.6242C34.6845 32.0303 34.5232 32.4198 34.236 32.707C33.9489 32.9941 33.5594 33.1554 33.1533 33.1554Z" fill="#00C2CB" stroke="#00C2CB"/>
</svg>
