<svg width="59" height="59" viewBox="0 0 59 59" fill="none" xmlns="http://www.w3.org/2000/svg">
<g clip-path="url(#clip0_21_1688)">
<path d="M5.10327 8.74745C5.10327 8.15042 5.58725 7.66655 6.18428 7.66655C6.78131 7.66655 7.2653 8.15053 7.2653 8.74745C7.2653 9.34447 6.78131 9.82846 6.18428 9.82846C5.58725 9.82846 5.10327 9.34447 5.10327 8.74745ZM10.4709 9.82846C11.0679 9.82846 11.5519 9.34447 11.5519 8.74745C11.5519 8.15042 11.0679 7.66655 10.4709 7.66655C9.87386 7.66655 9.38987 8.15053 9.38987 8.74745C9.38987 9.34447 9.87386 9.82846 10.4709 9.82846ZM14.7575 9.82846C15.3545 9.82846 15.8384 9.34447 15.8384 8.74745C15.8384 8.15042 15.3544 7.66655 14.7575 7.66655C14.1605 7.66655 13.6765 8.15053 13.6765 8.74745C13.6765 9.34447 14.1605 9.82846 14.7575 9.82846ZM22.3219 25.3069H33.3095C33.946 25.3069 34.4619 24.791 34.4619 24.1545C34.4619 23.5181 33.946 23.0022 33.3095 23.0022H22.3219C21.6855 23.0022 21.1696 23.5181 21.1696 24.1545C21.1696 24.791 21.6856 25.3069 22.3219 25.3069ZM22.3219 30.6774H33.3095C33.946 30.6774 34.4619 30.1613 34.4619 29.525C34.4619 28.8887 33.946 28.3727 33.3095 28.3727H22.3219C21.6855 28.3727 21.1696 28.8886 21.1696 29.525C21.1696 30.1614 21.6856 30.6774 22.3219 30.6774ZM34.462 34.8953C34.462 34.259 33.9461 33.7429 33.3096 33.7429H6.64315C6.00671 33.7429 5.4908 34.259 5.4908 34.8953C5.4908 35.5316 6.00671 36.0476 6.64315 36.0476H33.3096C33.9461 36.0476 34.462 35.5317 34.462 34.8953ZM5.4908 29.5249V18.7841C5.4908 18.1477 6.00671 17.6318 6.64315 17.6318H17.1681C17.8045 17.6318 18.3204 18.1477 18.3204 18.7841V29.5249C18.3204 30.1613 17.8045 30.6772 17.1681 30.6772H6.64315C6.00671 30.6774 5.4908 30.1613 5.4908 29.5249ZM7.79549 28.3725H16.0157V19.9365H7.79549V28.3725ZM22.3219 19.9365H33.3095C33.946 19.9365 34.4619 19.4206 34.4619 18.7841C34.4619 18.1477 33.946 17.6318 33.3095 17.6318H22.3219C21.6855 17.6318 21.1696 18.1477 21.1696 18.7841C21.1696 19.4206 21.6856 19.9365 22.3219 19.9365ZM31.193 39.1135H6.64315C6.00671 39.1135 5.4908 39.6296 5.4908 40.2659C5.4908 40.9022 6.00671 41.4182 6.64315 41.4182H31.193C31.8295 41.4182 32.3454 40.9022 32.3454 40.2659C32.3454 39.6296 31.8295 39.1135 31.193 39.1135ZM52.3037 42.3726C52.3037 45.6697 49.6214 48.3521 46.3242 48.3521C43.027 48.3521 40.3447 45.6698 40.3447 42.3726C40.3447 39.0754 43.027 36.3931 46.3242 36.3931C49.6214 36.3931 52.3037 39.0755 52.3037 42.3726ZM49.999 42.3726C49.999 40.3463 48.3505 38.6978 46.3242 38.6978C44.2979 38.6978 42.6494 40.3463 42.6494 42.3726C42.6494 44.3989 44.2979 46.0474 46.3242 46.0474C48.3505 46.0474 49.999 44.3989 49.999 42.3726ZM59 41.2204V43.5248C59 44.5777 58.1435 45.4342 57.0907 45.4342C56.226 45.4342 55.885 46.0952 55.801 46.2978C55.717 46.5005 55.4908 47.2092 56.1022 47.8207C56.4628 48.1811 56.6614 48.6606 56.6614 49.1707C56.6614 49.681 56.4628 50.1605 56.1021 50.5211L54.4727 52.1506C54.112 52.5112 53.6325 52.7098 53.1225 52.7098C52.6123 52.7098 52.1328 52.5112 51.7723 52.1505C51.1608 51.5393 50.4523 51.7657 50.2497 51.8496C50.0471 51.9335 49.3859 52.2746 49.3859 53.1392C49.3859 54.192 48.5293 55.0484 47.4766 55.0484H45.172C44.1192 55.0484 43.2628 54.1918 43.2628 53.1392C43.2628 52.2725 42.6023 51.9316 42.3998 51.8478C42.1974 51.7637 41.4891 51.5379 40.8762 52.1507C40.5158 52.5113 40.0362 52.7099 39.5262 52.7099C39.0162 52.7099 38.5367 52.5113 38.176 52.1506L36.5465 50.5211C36.1859 50.1605 35.9872 49.681 35.9872 49.1709C35.9872 48.8492 36.0666 48.5399 36.2154 48.2648H3.96614C1.77922 48.2647 0 46.4854 0 44.2985V7.91787C0 5.73095 1.77922 3.95174 3.96614 3.95174H47.2437C49.4306 3.95174 51.2097 5.73095 51.2097 7.91787V32.945C51.3951 32.8862 51.5881 32.7789 51.7724 32.5946C52.1327 32.2341 52.6123 32.0354 53.1224 32.0354C53.6324 32.0354 54.1119 32.2341 54.4726 32.5946L56.1022 34.2244C56.4628 34.5848 56.6614 35.0643 56.6614 35.5745C56.6614 36.0845 56.4628 36.564 56.1022 36.9247C55.4908 37.5361 55.7171 38.2447 55.801 38.4473C55.8849 38.65 56.226 39.3111 57.0907 39.3111C58.1435 39.3111 59 40.1675 59 41.2204ZM2.30469 7.91787V11.2386H48.905V7.91787C48.905 7.00176 48.1597 6.25642 47.2437 6.25642H3.96614C3.05002 6.25642 2.30469 7.00176 2.30469 7.91787ZM3.96614 45.96H36.649C36.4557 45.71 36.1164 45.4342 35.5578 45.4342C34.505 45.4342 33.6486 44.5776 33.6486 43.5248V41.2204C33.6486 40.1675 34.5051 39.3111 35.5578 39.3111C36.4225 39.3111 36.7636 38.65 36.8475 38.4473C36.9313 38.2446 37.1577 37.5361 36.5462 36.9247C36.1856 36.564 35.987 36.0845 35.987 35.5745C35.987 35.2248 36.0824 34.8907 36.2572 34.5982V18.784C36.2572 18.1476 36.7731 17.6317 37.4096 17.6317H44.5663C45.2028 17.6317 45.7187 18.1476 45.7187 18.784V29.6969H47.4766C48.0451 29.6969 48.555 29.9481 48.905 30.3437V13.5433H2.30469V44.2985C2.30469 45.2146 3.05002 45.96 3.96614 45.96ZM43.4142 19.9364H38.5621V32.2982C38.8517 32.1282 39.1814 32.0354 39.5262 32.0354C40.0363 32.0354 40.5158 32.2341 40.8764 32.5947C41.4878 33.2061 42.1965 32.9796 42.3991 32.8956C42.6017 32.8116 43.2629 32.4706 43.2629 31.606C43.2629 31.3419 43.3169 31.0901 43.4143 30.8612L43.4142 19.9364ZM56.6953 41.5958C55.342 41.4582 54.2048 40.6161 53.6717 39.3291C53.1387 38.0423 53.3474 36.6427 54.2071 35.5886L53.1084 34.4899C52.0541 35.3494 50.6544 35.5583 49.3677 35.0251C48.0809 34.4922 47.2387 33.3549 47.1011 32.0017H45.5475C45.41 33.3549 44.5678 34.4922 43.281 35.0251C41.9942 35.5582 40.5944 35.3494 39.5403 34.4899L38.4416 35.5886C39.3011 36.6426 39.5099 38.0423 38.977 39.3291C38.444 40.616 37.3068 41.4582 35.9535 41.5958V43.1494C37.3068 43.287 38.444 44.1291 38.977 45.4161C39.5099 46.7029 39.3013 48.1025 38.4416 49.1567L39.5403 50.2553C40.5953 49.3948 41.9954 49.1854 43.2818 49.7182C44.5683 50.2512 45.4102 51.3891 45.5477 52.7436H47.1012C47.2388 51.3904 48.081 50.2531 49.3678 49.7202C50.6545 49.187 52.0542 49.3959 53.1085 50.2554L54.2073 49.1568C53.3478 48.1025 53.139 46.7029 53.6719 45.4161C54.2049 44.1292 55.3422 43.2871 56.6954 43.1495V41.5958H56.6953Z" fill="#00C2CB"/>
</g>
<defs>
<clipPath id="clip0_21_1688">
<rect width="59" height="59" fill="white"/>
</clipPath>
</defs>
</svg>
