<svg width="82" height="44" viewBox="0 0 82 44" fill="none" xmlns="http://www.w3.org/2000/svg">
<path d="M73.3926 10.5999C71.9255 8.76176 69.7384 7.70716 67.3899 7.70716H58.9375V2.56905C58.9375 1.15222 57.7882 0 56.375 0H12.8125C11.3993 0 10.25 1.15222 10.25 2.56905V7.70716H3.84375C3.1365 7.70716 2.5625 8.28263 2.5625 8.99169C2.5625 9.70075 3.1365 10.2762 3.84375 10.2762H10.25V25.6905H2.5625C1.85525 25.6905 1.28125 26.266 1.28125 26.9751C1.28125 27.6841 1.85525 28.2596 2.5625 28.2596H10.25V35.9668C10.25 37.3836 11.3993 38.5358 12.8125 38.5358H16.7857C17.3814 41.4632 19.9683 43.6739 23.0625 43.6739C26.1567 43.6739 28.7436 41.4632 29.3393 38.5358H62.9107C63.5064 41.4632 66.0933 43.6739 69.1875 43.6739C72.2817 43.6739 74.8686 41.4632 75.4643 38.5358H78.1562C80.2754 38.5358 82 36.8068 82 34.6822V24.09C82 22.3469 81.4017 20.6372 80.3152 19.2756L73.3926 10.5999ZM23.0625 41.1049C20.9433 41.1049 19.2188 39.3759 19.2188 37.2513C19.2188 35.1267 20.9433 33.3977 23.0625 33.3977C25.1817 33.3977 26.9062 35.1267 26.9062 37.2513C26.9062 39.3759 25.1817 41.1049 23.0625 41.1049ZM69.1875 41.1049C67.0683 41.1049 65.3438 39.3759 65.3438 37.2513C65.3438 35.1267 67.0683 33.3977 69.1875 33.3977C71.3067 33.3977 73.0312 35.1267 73.0312 37.2513C73.0312 39.3759 71.3067 41.1049 69.1875 41.1049ZM79.4375 34.6822C79.4375 35.39 78.8622 35.9668 78.1562 35.9668H75.4643C74.8686 33.0393 72.2817 30.8286 69.1875 30.8286C66.0933 30.8286 63.5064 33.0393 62.9107 35.9668H58.9375V19.2679C58.9375 18.5588 58.3635 17.9834 57.6562 17.9834C56.949 17.9834 56.375 18.5588 56.375 19.2679V35.9668H29.3393C28.7436 33.0393 26.1567 30.8286 23.0625 30.8286C19.9683 30.8286 17.3814 33.0393 16.7857 35.9668H12.8125V28.2596H16.6562C17.3635 28.2596 17.9375 27.6841 17.9375 26.9751C17.9375 26.266 17.3635 25.6905 16.6562 25.6905H12.8125V10.2762H30.75C31.4573 10.2762 32.0312 9.70075 32.0312 8.99169C32.0312 8.28263 31.4573 7.70716 30.75 7.70716H12.8125V2.56905H56.375V15.4143C56.375 16.1234 56.949 16.6988 57.6562 16.6988C58.3635 16.6988 58.9375 16.1234 58.9375 15.4143V10.2762H67.3899C68.9556 10.2762 70.4137 10.9789 71.3925 12.2043L78.3151 20.88C79.0378 21.7869 79.4375 22.9275 79.4375 24.09V34.6822Z" fill="#00C2CB"/>
<path d="M28.1875 16.6989H16.6562C15.949 16.6989 15.375 17.2744 15.375 17.9834C15.375 18.6925 15.949 19.268 16.6562 19.268H28.1875C28.8947 19.268 29.4688 18.6925 29.4688 17.9834C29.4688 17.2744 28.8947 16.6989 28.1875 16.6989Z" fill="#00C2CB"/>
<path d="M1.28125 20.5525H5.125C5.83225 20.5525 6.40625 19.977 6.40625 19.268C6.40625 18.5589 5.83225 17.9834 5.125 17.9834H1.28125C0.574 17.9834 0 18.5589 0 19.268C0 19.977 0.574 20.5525 1.28125 20.5525Z" fill="#00C2CB"/>
<path d="M69.2733 13.7687C68.7865 13.1817 68.069 12.8451 67.3066 12.8451H64.0612C62.6493 12.8451 61.5 13.9974 61.5 15.4129V20.5536C61.5 21.9691 62.6493 23.1214 64.0612 23.1214H71.5796C72.5841 23.1214 73.4733 22.5549 73.8999 21.6429C74.3266 20.7308 74.1908 19.684 73.5476 18.9107L69.2733 13.7687ZM64.0625 20.5536L64.0612 15.4142H67.3066L71.5898 20.5523L64.0625 20.5536Z" fill="#00C2CB"/>
</svg>
