<svg width="68" height="60" viewBox="0 0 68 60" fill="none" xmlns="http://www.w3.org/2000/svg">
<path fill-rule="evenodd" clip-rule="evenodd" d="M21.0941 58.8203C22.7186 59.5961 24.496 59.9991 26.2963 60H52.1429C55.0251 60 57.8124 58.97 60.0021 57.0959C62.1918 55.2218 63.6397 52.6269 64.0847 49.7793L67.1113 30.4258C67.3278 29.046 67.2428 27.6357 66.8622 26.292C66.4816 24.9482 65.8144 23.7028 64.9066 22.6415C63.9987 21.5802 62.8717 20.7281 61.6031 20.144C60.3345 19.5598 58.9545 19.2574 57.5578 19.2575H41.6901V7.86678C41.6924 6.1266 41.1169 4.43491 40.0539 3.05716C38.9908 1.67941 37.5004 0.69358 35.8166 0.254365C34.1328 -0.18485 32.3507 -0.0525928 30.7502 0.630383C29.1496 1.31336 27.8211 2.5084 26.9731 4.02798L16.9313 21.9649C16.3254 23.0478 16.0075 24.268 16.0079 25.5088V51.8196C16.0077 53.1893 16.3954 54.531 17.1261 55.6896C17.8568 56.8481 18.9006 57.776 20.1368 58.3658L21.1037 58.8252L21.0941 58.8203ZM4.82026 22.8497C4.18748 22.8491 3.56078 22.9732 2.97599 23.2149C2.3912 23.4566 1.85978 23.8112 1.41211 24.2584C0.964448 24.7056 0.609314 25.2367 0.367014 25.8212C0.124714 26.4058 -3.18934e-07 27.0323 0 27.6651V52.3804C0 53.6588 0.507847 54.8849 1.41182 55.7889C2.31579 56.6928 3.54184 57.2007 4.82026 57.2007H7.2183C7.85943 57.2007 8.4743 56.946 8.92764 56.4926C9.38099 56.0393 9.63568 55.4244 9.63568 54.7833V25.2622C9.63568 24.6211 9.38099 24.0063 8.92764 23.5529C8.4743 23.0996 7.85943 22.8449 7.2183 22.8449L4.82026 22.8497Z" fill="#00C2CB"/>
</svg>
