<svg width="24" height="22" viewBox="0 0 24 22" fill="none" xmlns="http://www.w3.org/2000/svg">
<path d="M0.0613403 1.5C0.0613403 1.5 -0.0767353 0.638067 0.0613403 0.5C0.561372 0 2.25414 0 2.5042 0H3.20568C4.39997 0 5.11654 0.803314 5.52512 1.55006C5.79792 2.04789 5.99529 2.62491 6.14991 3.14789L6.27563 3.14286H21.9874C23.0308 3.14286 23.7851 4.14103 23.4985 5.14549L21.2004 13.2025C20.9944 13.9252 20.5585 14.561 19.9587 15.0138C19.359 15.4666 18.628 15.7116 17.8765 15.7118H10.3991C9.64162 15.7118 8.90514 15.4631 8.3028 15.0038C7.70047 14.5446 7.26563 13.9002 7.06511 13.1698L6.10969 9.68503L4.52569 4.34469L4.52443 4.33463C4.32831 3.62183 4.14477 2.95429 3.87071 2.45646C3.60797 1.97246 3.39677 1.88571 3.20694 1.88571H2.5042C2.25414 1.88571 1.30101 1.71666 0.56136 1.88571C0.0613404 2 0.0613403 1.5 0.0613403 1.5ZM7.93883 9.22743L8.88294 12.6707C9.07151 13.3521 9.69128 13.8261 10.3991 13.8261H17.8765C18.2181 13.8261 18.5504 13.7148 18.823 13.509C19.0957 13.3033 19.2939 13.0143 19.3876 12.6858L21.5713 5.02857H6.69677L7.92123 9.1608L7.93883 9.22743ZM12.2471 19.4857C12.2471 20.1525 11.9822 20.7921 11.5106 21.2636C11.0391 21.7351 10.3996 22 9.73277 22C9.06594 22 8.42642 21.7351 7.9549 21.2636C7.48338 20.7921 7.21849 20.1525 7.21849 19.4857C7.21849 18.8189 7.48338 18.1794 7.9549 17.7078C8.42642 17.2363 9.06594 16.9714 9.73277 16.9714C10.3996 16.9714 11.0391 17.2363 11.5106 17.7078C11.9822 18.1794 12.2471 18.8189 12.2471 19.4857ZM10.3613 19.4857C10.3613 19.319 10.2951 19.1591 10.1772 19.0412C10.0594 18.9234 9.89948 18.8571 9.73277 18.8571C9.56606 18.8571 9.40618 18.9234 9.2883 19.0412C9.17042 19.1591 9.1042 19.319 9.1042 19.4857C9.1042 19.6524 9.17042 19.8123 9.2883 19.9302C9.40618 20.0481 9.56606 20.1143 9.73277 20.1143C9.89948 20.1143 10.0594 20.0481 10.1772 19.9302C10.2951 19.8123 10.3613 19.6524 10.3613 19.4857ZM21.0471 19.4857C21.0471 20.1525 20.7822 20.7921 20.3106 21.2636C19.8391 21.7351 19.1996 22 18.5328 22C17.8659 22 17.2264 21.7351 16.7549 21.2636C16.2834 20.7921 16.0185 20.1525 16.0185 19.4857C16.0185 18.8189 16.2834 18.1794 16.7549 17.7078C17.2264 17.2363 17.8659 16.9714 18.5328 16.9714C19.1996 16.9714 19.8391 17.2363 20.3106 17.7078C20.7822 18.1794 21.0471 18.8189 21.0471 19.4857ZM19.1613 19.4857C19.1613 19.319 19.0951 19.1591 18.9772 19.0412C18.8594 18.9234 18.6995 18.8571 18.5328 18.8571C18.3661 18.8571 18.2062 18.9234 18.0883 19.0412C17.9704 19.1591 17.9042 19.319 17.9042 19.4857C17.9042 19.6524 17.9704 19.8123 18.0883 19.9302C18.2062 20.0481 18.3661 20.1143 18.5328 20.1143C18.6995 20.1143 18.8594 20.0481 18.9772 19.9302C19.0951 19.8123 19.1613 19.6524 19.1613 19.4857Z" fill="#b12025"/>
</svg>
