<svg width="23" height="23" viewBox="0 0 23 23" fill="none" xmlns="http://www.w3.org/2000/svg">
<path d="M23 11.5C23 17.8411 17.8411 23 11.5 23C5.15895 23 0 17.8411 0 11.5C0 11.1028 0.321521 10.7812 0.71875 10.7812C1.11598 10.7812 1.4375 11.1028 1.4375 11.5C1.4375 17.0485 5.95149 21.5625 11.5 21.5625C17.0485 21.5625 21.5625 17.0485 21.5625 11.5C21.5625 5.95149 17.0485 1.4375 11.5 1.4375C8.82553 1.4375 6.34273 2.47705 4.47494 4.3125H7.1875C7.58473 4.3125 7.90625 4.63402 7.90625 5.03125C7.90625 5.42848 7.58473 5.75 7.1875 5.75H2.875C2.47777 5.75 2.15625 5.42848 2.15625 5.03125V0.71875C2.15625 0.321521 2.47777 0 2.875 0C3.27223 0 3.59375 0.321521 3.59375 0.71875V3.17065C5.7143 1.14665 8.50066 0 11.5 0C17.8411 0 23 5.15895 23 11.5ZM17.9688 8.625V15.0938C17.9688 15.3935 17.7828 15.6616 17.5028 15.767L11.7528 17.9232C11.6713 17.9534 11.5855 17.9688 11.5 17.9688C11.4145 17.9688 11.3287 17.9534 11.2472 17.9232L5.49724 15.767C5.21717 15.6616 5.03125 15.3935 5.03125 15.0938V8.625C5.03125 8.32528 5.21717 8.05719 5.49724 7.95177L11.2472 5.79552C11.4102 5.73515 11.5898 5.73515 11.7525 5.79552L17.5025 7.95177C17.7828 8.05719 17.9688 8.32528 17.9688 8.625ZM7.79676 8.625L11.5 10.0134L15.2032 8.625L11.5 7.23661L7.79676 8.625ZM6.46875 14.5954L10.7812 16.2126V11.2796L6.46875 9.6624V14.5954ZM16.5312 14.5954V9.6624L12.2188 11.2796V16.2126L16.5312 14.5954Z" fill="black"/>
</svg>
