<svg width="53" height="56" viewBox="0 0 53 56" fill="none" xmlns="http://www.w3.org/2000/svg">
<path d="M28.4355 9.10443L33.5468 12.707C34.1635 11.1076 35.7348 7.11554 36.3329 5.5741C35.862 4.4386 35.0291 2.5271 34.5609 1.39343C33.6185 3.86054 31.6416 7.86572 28.4355 9.10443Z" fill="#00C2CB"/>
<path d="M26.5303 7.938C30.351 7.845 32.6454 2.29151 33.4239 0H19.6367C20.4255 2.29151 22.7096 7.84504 26.5303 7.938Z" fill="#00C2CB"/>
<path d="M3.00179 11.2C1.57844 13.8429 -0.485538 19.879 0.102964 32.1961C0.12983 32.7163 0.35041 33.2072 0.720668 33.5708C1.09093 33.9343 1.58362 34.1438 2.10039 34.1573L7.83657 34.3018V27.2825C7.8319 24.5833 7.13851 17.192 4.32314 13.1716C3.77589 12.5939 3.32918 11.9273 3.00179 11.2Z" fill="#00C2CB"/>
<path d="M49.9972 10.9935C49.6584 11.7138 49.209 12.3757 48.6655 12.9549C45.8384 16.9807 45.1726 24.3716 45.1624 27.0658C45.1638 28.4571 45.1614 32.7473 45.1624 34.0851L50.8985 33.9407C51.4163 33.9248 51.9092 33.7132 52.2793 33.3479C52.6493 32.9827 52.8695 32.4904 52.8959 31.9691C53.49 19.6749 51.4107 13.6259 49.9972 10.9935Z" fill="#00C2CB"/>
<path d="M24.6249 9.10443C21.4187 7.86572 19.4419 3.86054 18.4995 1.39343C18.0504 2.44959 17.166 4.54468 16.7275 5.5741C16.7275 5.5741 18.9517 11.2696 19.5136 12.707L24.6249 9.10443Z" fill="#00C2CB"/>
<path d="M9.88547 49.889C9.77107 50.6381 9.8173 51.4033 10.021 52.1329C10.2248 52.8626 10.5813 53.5397 11.0667 54.1188C11.552 54.6978 12.1548 55.1654 12.8345 55.4899C13.5142 55.8144 14.255 55.9883 15.0071 56H37.9924C38.7444 55.9882 39.4852 55.8141 40.1648 55.4896C40.8445 55.165 41.4472 54.6975 41.9325 54.1184C42.4177 53.5394 42.7743 52.8623 42.978 52.1327C43.1818 51.4031 43.2281 50.638 43.1138 49.8889C42.0864 49.8896 9.88547 49.889 9.88547 49.889Z" fill="#00C2CB"/>
<path d="M38.7907 20.1909V18.8696H36.1582V20.191C36.162 20.5403 36.3024 20.8739 36.5488 21.1195C36.7953 21.3652 37.1279 21.5029 37.4745 21.5029C37.8211 21.5029 38.1537 21.3651 38.4001 21.1194C38.6466 20.8738 38.7869 20.5401 38.7907 20.1909Z" fill="#00C2CB"/>
<path d="M9.88522 27.2826L9.88546 47.8244H43.1139V27.0554C43.1139 26.9522 43.1549 18.5393 46.2381 12.9857L47.5902 11.0039C47.8281 10.7873 48.0018 10.5086 48.0921 10.1987C48.1289 9.97393 48.093 9.74322 47.9897 9.54061C47.8864 9.338 47.7212 9.17424 47.5185 9.0735C47.5082 9.07344 37.5322 4.34828 37.4906 4.35609C37.6208 4.74427 38.0799 5.42009 37.8695 5.84248C37.668 6.34504 34.6225 14.1832 34.6225 14.1832C34.5805 14.2929 34.5143 14.3915 34.4287 14.4714C34.3432 14.5513 34.2407 14.6105 34.129 14.6443C34.0173 14.6782 33.8994 14.6859 33.7843 14.6668C33.6692 14.6477 33.56 14.6023 33.465 14.5341L32.4612 13.822C32.4407 13.8632 30.0643 16.9084 30.0643 16.9084L31.9182 36.9651C31.9383 37.1883 31.8881 37.4122 31.7748 37.6051L27.3703 44.8412C27.2767 44.9905 27.1469 45.1132 26.9932 45.198C26.8395 45.2827 26.6669 45.3266 26.4917 45.3256C26.3165 45.3246 26.1444 45.2786 25.9917 45.192C25.839 45.1055 25.7106 44.9812 25.6188 44.8308L21.2859 37.5947C21.1717 37.4061 21.1213 37.1851 21.1425 36.9651L22.9863 16.898C22.9863 16.898 20.6202 13.8735 20.5996 13.8322L19.5958 14.5341C19.5007 14.6017 19.3914 14.6467 19.2765 14.6655C19.1615 14.6843 19.0438 14.6765 18.9323 14.6427C18.8208 14.6088 18.7183 14.5499 18.6328 14.4703C18.5472 14.3906 18.4807 14.2924 18.4384 14.1831C18.4384 14.1831 15.4217 6.43669 15.1914 5.84245C14.9705 5.45762 15.3917 4.90845 15.4678 4.58305L5.55256 9.26957C5.37005 9.35063 5.21285 9.48019 5.09781 9.64438C4.98277 9.80857 4.91422 10.0012 4.89949 10.2016C4.88476 10.4021 4.92441 10.6028 5.0142 10.7823C5.10399 10.9618 5.24053 11.1132 5.4092 11.2205C9.35846 15.2946 10.0599 27.2913 9.88522 27.2826ZM34.3971 18.6116C34.3978 18.2093 34.5566 17.8237 34.8388 17.5393C35.1211 17.2549 35.5037 17.0948 35.9028 17.0942H39.0372C39.4364 17.0948 39.819 17.2549 40.1012 17.5393C40.3835 17.8237 40.5423 18.2093 40.543 18.6116V20.191C40.5338 21.0062 40.206 21.7849 39.6307 22.3581C39.0554 22.9313 38.279 23.2527 37.47 23.2527C36.661 23.2527 35.8846 22.9312 35.3093 22.3579C34.7341 21.7847 34.4063 21.006 34.3971 20.1908V18.6116Z" fill="#00C2CB"/>
<path d="M26.5301 9.65161L22.2588 12.6555L22.269 12.6658L24.543 15.5562H28.5071C28.5146 15.5416 30.781 12.6557 30.7913 12.6452L26.5301 9.65161Z" fill="#00C2CB"/>
<path d="M24.9941 17.621L23.2119 36.821L26.5103 42.312L29.8494 36.821L28.0672 17.61L24.9941 17.621Z" fill="#00C2CB"/>
</svg>
