<svg width="33" height="25" viewBox="0 0 33 25" fill="none" xmlns="http://www.w3.org/2000/svg">
<path d="M7.5004 9.96994C7.13354 9.96994 6.78149 10.0267 6.43108 10.0785C6.54459 9.69105 6.6614 9.29693 6.84894 8.94288C7.03648 8.42852 7.32931 7.98263 7.62049 7.5334C7.86397 7.04743 8.29334 6.71844 8.6092 6.3026C8.93987 5.89846 9.39062 5.62959 9.74761 5.29392C10.098 4.94322 10.557 4.76787 10.9222 4.52071C11.3039 4.2986 11.6362 4.05311 11.9915 3.93621L12.8782 3.56546L13.658 3.23647L12.8601 0L11.878 0.24048C11.5638 0.320641 11.1805 0.414161 10.7445 0.526051C10.2987 0.609552 9.82329 0.838343 9.29356 1.04709C8.77042 1.28423 8.16502 1.44456 7.6024 1.82532C7.03648 2.18938 6.38338 2.49332 5.80759 2.98096C5.2499 3.48363 4.57705 3.91951 4.08023 4.55912C3.53735 5.15698 3.00104 5.7849 2.58483 6.49966C2.10282 7.18103 1.77544 7.92919 1.42997 8.669C1.1174 9.40882 0.865698 10.1653 0.66006 10.9001C0.270171 12.3731 0.0957898 13.7725 0.0283406 14.9699C-0.0275929 16.169 0.00530916 17.166 0.0744035 17.8874C0.0990801 18.2281 0.145143 18.5588 0.178045 18.7876L0.219172 19.0681L0.261945 19.0581C0.554545 20.4456 1.22812 21.7207 2.20475 22.7358C3.18138 23.7509 4.42116 24.4646 5.78067 24.7943C7.14018 25.124 8.56387 25.0563 9.88704 24.5989C11.2102 24.1416 12.3788 23.3133 13.2576 22.2099C14.1364 21.1065 14.6896 19.7731 14.8531 18.3639C15.0165 16.9547 14.7837 15.5273 14.1814 14.2469C13.5791 12.9664 12.632 11.8852 11.4497 11.1283C10.2674 10.3715 8.89817 9.96984 7.5004 9.96994ZM25.5965 9.96994C25.2297 9.96994 24.8776 10.0267 24.5272 10.0785C24.6407 9.69105 24.7575 9.29693 24.9451 8.94288C25.1326 8.42852 25.4254 7.98263 25.7166 7.5334C25.9601 7.04743 26.3895 6.71844 26.7053 6.3026C27.036 5.89846 27.4868 5.62959 27.8437 5.29392C28.1942 4.94322 28.6531 4.76787 29.0184 4.52071C29.4 4.2986 29.7323 4.05311 30.0877 3.93621L30.9744 3.56546L31.7542 3.23647L30.9563 0L29.9742 0.24048C29.6599 0.320641 29.2766 0.414161 28.8407 0.526051C28.3949 0.609552 27.9194 0.838343 27.3897 1.04709C26.8682 1.2859 26.2612 1.44456 25.6985 1.82699C25.1326 2.19105 24.4795 2.49499 23.9037 2.98263C23.346 3.4853 22.6732 3.92118 22.1764 4.55912C21.6335 5.15698 21.0972 5.7849 20.681 6.49966C20.199 7.18103 19.8716 7.92919 19.5261 8.669C19.2135 9.40882 18.9618 10.1653 18.7562 10.9001C18.3663 12.3731 18.1919 13.7725 18.1245 14.9699C18.0685 16.169 18.1014 17.166 18.1705 17.8874C18.1952 18.2281 18.2413 18.5588 18.2742 18.7876L18.3153 19.0681L18.3581 19.0581C18.6507 20.4456 19.3243 21.7207 20.3009 22.7358C21.2775 23.7509 22.5173 24.4646 23.8768 24.7943C25.2363 25.124 26.66 25.0563 27.9832 24.5989C29.3063 24.1416 30.4749 23.3133 31.3538 22.2099C32.2326 21.1065 32.7857 19.7731 32.9492 18.3639C33.1127 16.9547 32.8798 15.5273 32.2775 14.2469C31.6752 12.9664 30.7282 11.8852 29.5459 11.1283C28.3635 10.3715 26.9943 9.96984 25.5965 9.96994Z" fill="#00C2CB"/>
</svg>
