<svg width="20" height="24" viewBox="0 0 20 24" fill="none" xmlns="http://www.w3.org/2000/svg">
<path d="M4.4805 23C4.40354 22.9998 4.3286 22.9754 4.26628 22.9302C4.20397 22.885 4.15744 22.8213 4.13328 22.7482L3.42421 20.584L1.25203 19.874C1.19267 19.8546 1.13926 19.8204 1.0969 19.7745C1.05454 19.7285 1.02465 19.6725 1.01008 19.6118C0.995512 19.551 0.996753 19.4875 1.01368 19.4274C1.03062 19.3673 1.06267 19.3125 1.10679 19.2683L4.09617 16.2676C3.61689 15.6038 3.48575 14.6198 2.77653 14.183C2.36404 13.8868 2.02748 13.4971 1.79439 13.0458C1.5613 12.5945 1.43829 12.0943 1.43544 11.5863C1.40654 10.9843 1.72218 10.4225 1.71058 9.84809C1.72398 9.23898 1.40672 8.70825 1.43579 8.07812C1.43877 7.57713 1.55925 7.08384 1.78753 6.63796C2.01582 6.19209 2.34553 5.80609 2.75011 5.51104C3.17232 5.20555 3.4874 4.77449 3.65045 4.27928C3.85719 3.63896 4.26158 3.08078 4.80543 2.68508C5.34928 2.28937 6.00454 2.07652 6.67693 2.07718C7.19813 2.07622 7.70589 1.91159 8.12862 1.60647C8.6733 1.21199 9.32856 0.999738 10.0009 1C10.6732 1.00026 11.3283 1.21303 11.8727 1.60794C12.2953 1.91214 12.8024 2.07624 13.323 2.07721C13.9958 2.07655 14.6514 2.28968 15.1954 2.68588C15.7393 3.08209 16.1436 3.64091 16.3498 4.28181C16.5134 4.77559 16.828 5.20537 17.2492 5.51032C17.6551 5.807 17.9857 6.19505 18.2142 6.64315C18.4427 7.09125 18.5627 7.58685 18.5645 8.08992C18.5366 8.93453 18.0934 9.79165 18.3968 10.5795C18.6117 11.2219 18.6163 11.9161 18.4097 12.5611C18.2032 13.2062 17.7963 13.7685 17.2484 14.1662C16.5039 14.6245 16.3943 15.5835 15.9038 16.2673L18.8935 19.2683C18.9376 19.3125 18.9695 19.3674 18.9864 19.4275C19.0033 19.4876 19.0045 19.5511 18.9899 19.6118C18.9753 19.6726 18.9454 19.7286 18.903 19.7744C18.8607 19.8203 18.8073 19.8546 18.7479 19.874L16.5761 20.584L15.8674 22.7482C15.8473 22.8071 15.8126 22.86 15.7666 22.9018C15.7206 22.9437 15.6648 22.9732 15.6043 22.9877C15.5438 23.0021 15.4806 23.001 15.4207 22.9844C15.3607 22.9678 15.306 22.9363 15.2615 22.8928L10.9142 18.5429C10.3173 18.7223 9.68085 18.7229 9.08358 18.5444L4.73886 22.8928C4.67032 22.9614 4.5774 22.9999 4.4805 23ZM2.04388 19.3636L3.82708 19.9465C3.88164 19.9643 3.93123 19.9947 3.97183 20.0353C4.01244 20.0759 4.04293 20.1255 4.06083 20.1801L4.64249 21.955L8.37736 18.2169C7.89113 17.8544 7.30936 17.6426 6.70406 17.6076C5.92079 17.6318 5.15958 17.346 4.58542 16.8123L2.04388 19.3636ZM11.6229 18.2172L15.3578 21.955L15.9388 20.18C15.9567 20.1254 15.9873 20.0759 16.0279 20.0353C16.0686 19.9947 16.1183 19.9643 16.1729 19.9465L17.9557 19.3636L15.4149 16.8126C14.8378 17.3242 14.0939 17.6073 13.323 17.6087C12.7078 17.6343 12.1149 17.8465 11.6229 18.2172ZM9.14138 17.7926C10.7354 18.5104 11.7599 16.7811 13.3501 16.8782C13.878 16.86 14.3873 16.6785 14.8078 16.3586C15.2284 16.0386 15.5394 15.5961 15.6982 15.0919C15.9088 14.4715 16.3106 13.934 16.8459 13.5566C17.2569 13.252 17.5618 12.8258 17.7176 12.3383C17.8733 11.8508 17.872 11.3266 17.7137 10.8399C17.3316 9.85346 17.7683 8.99023 17.8343 8.06921C17.8299 7.68475 17.7358 7.30666 17.5594 6.96507C17.3831 6.62348 17.1295 6.32785 16.8188 6.10175C16.274 5.70648 15.8671 5.14994 15.6554 4.51071C15.4971 4.01621 15.1859 3.58485 14.7666 3.2789C14.3474 2.97296 13.8419 2.80827 13.323 2.8086C12.6476 2.80704 11.9897 2.59371 11.4417 2.1986C11.0226 1.89446 10.5183 1.73059 10.0007 1.7304C9.48305 1.73021 8.9786 1.8937 8.55935 2.19753C8.01125 2.59338 7.35285 2.80711 6.67694 2.80859C6.15853 2.80829 5.65341 2.97266 5.23433 3.27803C4.81524 3.5834 4.50381 4.01401 4.3449 4.50784C4.13393 5.14879 3.72634 5.7068 3.18012 6.10248C2.8673 6.33105 2.61256 6.63001 2.43645 6.97525C2.26034 7.32049 2.1678 7.70233 2.1663 8.08995C2.16126 8.68008 2.47495 9.22725 2.44071 9.84813C2.47465 10.4327 2.16051 11.0116 2.16628 11.5752C2.16651 11.9648 2.25849 12.3489 2.43477 12.6962C2.61104 13.0436 2.86664 13.3445 3.18083 13.5745C4.14205 14.1445 4.21194 15.3006 4.85339 16.048C5.08798 16.3162 5.37886 16.5293 5.70526 16.672C6.03165 16.8146 6.3855 16.8834 6.74153 16.8734C7.69733 16.8403 8.36332 17.4205 9.14138 17.7926ZM9.99997 15.9566C9.19541 15.9684 8.3967 15.8181 7.65143 15.5145C6.90617 15.2109 6.2296 14.7602 5.66206 14.1893C5.09453 13.6185 4.64763 12.9391 4.34801 12.1918C4.04839 11.4444 3.90218 10.6443 3.91809 9.83917C3.96442 2.07287 15.6233 1.38515 16.1123 9.83957C16.1103 11.4613 15.4657 13.0161 14.3199 14.1628C13.174 15.3096 11.6205 15.9547 9.99997 15.9566ZM10.0071 4.45392C9.29878 4.44397 8.59569 4.57664 7.93961 4.84405C7.28354 5.11145 6.68788 5.50812 6.18803 6.0105C5.68819 6.51287 5.29436 7.11068 5.02996 7.7684C4.76556 8.42613 4.63598 9.13034 4.64893 9.83917C4.67988 16.6447 14.9496 17.3057 15.3814 9.83949C15.3798 8.41286 14.8133 7.04503 13.8059 6.0356C12.7986 5.02616 11.4326 4.45741 10.0071 4.45392ZM9.82154 13.1009C9.21495 13.1389 8.8466 12.4647 8.35773 12.4559C8.33831 12.5586 8.29839 12.6564 8.24037 12.7433C8.18234 12.8302 8.1074 12.9045 8.02002 12.9618C7.93264 13.0191 7.83461 13.0581 7.73181 13.0766C7.629 13.0951 7.52352 13.0927 7.42168 13.0694C6.96028 13.1108 6.31942 13.0166 6.31189 12.3609V9.03704C6.30945 8.94387 6.3263 8.8512 6.36136 8.76485C6.39643 8.67851 6.44896 8.60035 6.51565 8.53529C6.64547 8.44157 6.79264 8.37467 6.94857 8.33849C7.1045 8.30232 7.26607 8.29759 7.42385 8.32458C7.52534 8.30334 7.63002 8.30233 7.7319 8.32163C7.83377 8.34093 7.93085 8.38015 8.01756 8.43704C8.10427 8.49393 8.17892 8.56738 8.23723 8.65318C8.29554 8.73898 8.33637 8.83545 8.35738 8.93707C8.52945 8.97051 8.7077 8.94791 8.866 8.87258C9.0243 8.79725 9.15433 8.67316 9.23702 8.51848L9.86688 7.18068C9.97232 6.97073 10.1451 6.80224 10.3575 6.70217C10.5699 6.60209 10.8098 6.57622 11.0386 6.62868C11.2675 6.68114 11.4721 6.80891 11.6199 6.99154C11.7676 7.17417 11.8499 7.40112 11.8535 7.63606V8.55565H12.3395C12.6971 8.55601 13.0399 8.6983 13.2928 8.95132C13.5457 9.20433 13.6879 9.5474 13.6884 9.90526V11.7484C13.6879 12.1063 13.5457 12.4494 13.2928 12.7024C13.0399 12.9554 12.6971 13.0977 12.3395 13.0981H9.89827C9.87222 13.0998 9.84688 13.1009 9.82154 13.1009ZM8.42874 11.7227C9.02803 11.686 9.39463 12.3409 9.87148 12.3677L12.3395 12.3666C12.5034 12.3665 12.6604 12.3014 12.7763 12.1855C12.8922 12.0696 12.9574 11.9124 12.9576 11.7484V9.90526C12.9574 9.7413 12.8922 9.58412 12.7763 9.46822C12.6604 9.35232 12.5034 9.28716 12.3395 9.28706H11.4881C11.4401 9.28708 11.3926 9.27764 11.3482 9.25927C11.3039 9.2409 11.2636 9.21397 11.2296 9.18C11.1957 9.14604 11.1688 9.10571 11.1504 9.06133C11.1321 9.01695 11.1227 8.96938 11.1227 8.92135V7.62493C11.1245 7.55455 11.1006 7.48592 11.0555 7.43184C11.0105 7.37776 10.9473 7.34192 10.8778 7.331C10.8117 7.3116 10.7408 7.31614 10.6776 7.34383C10.6144 7.37151 10.563 7.42058 10.5324 7.48241L9.89827 8.82993C9.76039 9.11106 9.53894 9.3426 9.26432 9.49274C8.98971 9.64288 8.67538 9.70427 8.36451 9.66848V11.7249C8.38628 11.7234 8.40733 11.7227 8.42874 11.7227ZM7.21579 9.05062C7.14585 9.04595 7.07564 9.05381 7.00846 9.07383L7.04271 12.357C7.14498 12.3488 7.49283 12.3293 7.63367 12.3352V9.03704C7.56696 9.08106 7.34295 9.04512 7.21579 9.05062Z" fill="black" stroke="black" stroke-width="0.5"/>
</svg>
