<svg width="29" height="21" viewBox="0 0 29 21" fill="none" xmlns="http://www.w3.org/2000/svg">
<path d="M21.9025 13.2416C19.8869 13.2416 18.2471 14.8814 18.2471 16.897C18.2471 18.9127 19.8869 20.5525 21.9025 20.5525C23.9186 20.5525 25.558 18.9127 25.558 16.897C25.558 14.8814 23.9182 13.2416 21.9025 13.2416ZM21.9025 18.7248C20.8946 18.7248 20.0748 17.905 20.0748 16.897C20.0748 15.8891 20.8946 15.0693 21.9025 15.0693C22.9105 15.0693 23.7303 15.8891 23.7303 16.897C23.7303 17.9051 22.9105 18.7248 21.9025 18.7248Z" fill="black"/>
<path d="M9.41328 13.2416C7.39761 13.2416 5.75781 14.8814 5.75781 16.897C5.75781 18.9127 7.39761 20.5525 9.41328 20.5525C11.429 20.5525 13.0688 18.9127 13.0688 16.897C13.0688 14.8814 11.429 13.2416 9.41328 13.2416ZM9.41328 18.7248C8.40531 18.7248 7.58555 17.905 7.58555 16.897C7.58555 15.8891 8.40531 15.0693 9.41328 15.0693C10.421 15.0693 11.241 15.8891 11.241 16.897C11.241 17.9051 10.4213 18.7248 9.41328 18.7248Z" fill="black"/>
<path d="M24.3641 2.77852C24.2087 2.46994 23.8929 2.27527 23.5474 2.27527H18.7344V4.10301H22.9838L25.4723 9.05249L27.1057 8.2312L24.3641 2.77852Z" fill="black"/>
<path d="M19.161 16.0137H12.2461V17.8414H19.161V16.0137Z" fill="black"/>
<path d="M6.67171 16.0137H3.50368C2.9989 16.0137 2.58984 16.4228 2.58984 16.9275C2.58984 17.4323 2.99896 17.8414 3.50368 17.8414H6.67176C7.17655 17.8414 7.5856 17.4322 7.5856 16.9275C7.5856 16.4227 7.17649 16.0137 6.67171 16.0137Z" fill="black"/>
<path d="M28.8086 10.4269L27.0111 8.11178C26.8384 7.88878 26.5718 7.7584 26.2894 7.7584H19.6486V1.36135C19.6486 0.856568 19.2395 0.44751 18.7348 0.44751H3.50368C2.9989 0.44751 2.58984 0.856625 2.58984 1.36135C2.58984 1.86607 2.99896 2.27519 3.50368 2.27519H17.8209V8.67224C17.8209 9.17702 18.23 9.58608 18.7347 9.58608H25.8419L27.1728 11.3005V16.0136H24.6444C24.1396 16.0136 23.7306 16.4227 23.7306 16.9274C23.7306 17.4322 24.1397 17.8413 24.6444 17.8413H28.0866C28.5914 17.8413 29.0005 17.4322 29.0005 16.9274V10.9874C29.0005 10.7845 28.9329 10.5871 28.8086 10.4269Z" fill="black"/>
<path d="M6.60984 11.3834H2.40603C1.90125 11.3834 1.49219 11.7925 1.49219 12.2973C1.49219 12.802 1.9013 13.2111 2.40603 13.2111H6.60978C7.11456 13.2111 7.52362 12.802 7.52362 12.2973C7.52368 11.7925 7.11456 11.3834 6.60984 11.3834Z" fill="black"/>
<path d="M8.71218 7.78882H0.91384C0.409115 7.78882 0 8.19793 0 8.70271C0 9.2075 0.409115 9.61655 0.91384 9.61655H8.71218C9.21696 9.61655 9.62602 9.20744 9.62602 8.70271C9.62602 8.19799 9.21696 7.78882 8.71218 7.78882Z" fill="black"/>
<path d="M10.2044 4.19434H2.40603C1.90125 4.19434 1.49219 4.60345 1.49219 5.10818C1.49219 5.61296 1.9013 6.02202 2.40603 6.02202H10.2044C10.7091 6.02202 11.1182 5.6129 11.1182 5.10818C11.1183 4.60345 10.7091 4.19434 10.2044 4.19434Z" fill="black"/>
</svg>
