<svg width="1440" height="1192" viewBox="0 0 1440 1192" fill="none" xmlns="http://www.w3.org/2000/svg">
<rect y="347" width="1440" height="498" fill="#DEF7F9"/>
<path d="M1434.47 122.631V122.558C1434.47 95.1162 1412.86 72.8708 1386.13 72.8708C1371.55 72.8708 1358.51 79.4979 1349.64 89.9675C1348.5 74.582 1336.01 62.4561 1320.73 62.4561C1314.71 62.4561 1309.13 64.3377 1304.49 67.5575C1303.28 54.6082 1292.66 44.4812 1279.72 44.4812C1273.31 44.4812 1267.49 46.9912 1263.08 51.0798C1263.09 50.6161 1263.11 50.1542 1263.11 49.6886C1263.11 23.8145 1242.68 2.84125 1217.48 2.84125C1202.16 2.84125 1188.61 10.604 1180.34 22.497C1175.33 17.3654 1168.42 14.191 1160.79 14.191C1147.74 14.191 1136.83 23.4833 1133.92 35.9651C1127.53 25.7245 1116.38 18.9195 1103.65 18.9195C1086.59 18.9195 1072.33 31.1382 1068.65 47.5098C1060.58 38.6605 1049.1 33.1219 1036.36 33.1219C1016.97 33.1219 1000.51 45.9255 994.527 63.7376C991.666 34.3409 967.505 11.3877 938.118 11.3877C907.274 11.3877 882.202 36.6768 881.461 68.1594C866.841 68.3222 853.874 75.5342 845.632 86.6474C841.72 75.8465 831.616 68.1386 819.732 68.1386C808.655 68.1386 799.126 74.8414 794.712 84.4989C789.848 70.0277 776.497 59.6168 760.751 59.6168C745.216 59.6168 732.021 69.7514 726.997 83.9178C719.388 68.9242 704.121 58.6817 686.515 58.6817C661.312 58.6817 640.883 79.655 640.883 105.529C640.883 113.216 642.697 120.466 645.894 126.864C644.67 127.322 643.444 127.78 642.225 128.244C639.884 116.625 629.863 107.891 617.852 107.891C604.107 107.891 592.963 119.332 592.963 133.444C592.963 134.18 593.011 134.903 593.07 135.62C587.721 122.132 574.759 112.616 559.699 112.616C551.747 112.616 543.918 115.3 538.387 119.79V119.716C538.387 92.275 516.798 70.0296 490.07 70.0296C475.489 70.0296 462.465 76.6566 453.593 87.1263C452.446 71.7408 439.967 59.6149 424.688 59.6149C418.668 59.6149 413.086 61.4964 408.449 64.7163C407.236 51.767 396.618 41.6399 383.685 41.6399C377.273 41.6399 371.448 44.1499 367.038 48.2386C367.051 47.7748 367.073 47.313 367.073 46.8473C367.073 20.9733 346.643 0 321.443 0C306.117 0 292.571 7.76278 284.296 19.6559C279.292 14.5242 272.381 11.3498 264.75 11.3498C251.701 11.3498 240.79 20.642 237.882 33.1238C231.492 22.8832 220.337 16.0782 207.613 16.0782C190.546 16.0782 176.29 28.2969 172.612 44.6686C164.538 35.8193 153.06 30.2806 140.316 30.2806C115.879 30.2806 96.0688 50.6199 96.0688 75.7083C96.0688 79.1951 96.4633 82.5833 97.1861 85.8448C93.1906 83.0376 88.3599 81.3889 83.1512 81.3889C70.7167 81.3889 60.4394 90.7625 58.5883 102.998C52.1645 90.1776 39.1731 81.3908 24.1591 81.3908C15.0158 81.3908 7.37516 84.6617 0 90.1038V347.214H896.082V351H1440V119.552C1438.16 120.453 1435.89 121.48 1434.47 122.631ZM62.6962 125.015C62.7994 123.924 62.8437 122.819 62.8585 121.704C63.4558 122.569 64.1122 123.389 64.8074 124.17C64.1086 124.462 63.4023 124.736 62.6962 125.015ZM595.557 145.965C595.504 145.386 595.402 144.822 595.323 144.252C595.561 144.773 595.797 145.295 596.066 145.795C595.896 145.85 595.727 145.908 595.557 145.965ZM958.734 127.854C958.837 126.764 958.881 125.658 958.896 124.543C959.494 125.408 960.15 126.228 960.845 127.01C960.146 127.301 959.438 127.576 958.734 127.854ZM991.948 87.8569C992.199 87.0828 992.431 86.301 992.649 85.5135C992.811 86.5811 992.995 87.643 993.226 88.6879C992.811 88.3964 992.383 88.1238 991.948 87.8569Z" fill="#DEF7F9"/>
<path d="M1434.47 1069.37V1069.44C1434.47 1096.88 1412.86 1119.13 1386.13 1119.13C1371.55 1119.13 1358.51 1112.5 1349.64 1102.03C1348.5 1117.42 1336.01 1129.54 1320.73 1129.54C1314.71 1129.54 1309.13 1127.66 1304.49 1124.44C1303.28 1137.39 1292.66 1147.52 1279.72 1147.52C1273.31 1147.52 1267.49 1145.01 1263.08 1140.92C1263.09 1141.38 1263.11 1141.85 1263.11 1142.31C1263.11 1168.19 1242.68 1189.16 1217.48 1189.16C1202.16 1189.16 1188.61 1181.4 1180.34 1169.5C1175.33 1174.63 1168.42 1177.81 1160.79 1177.81C1147.74 1177.81 1136.83 1168.52 1133.92 1156.03C1127.53 1166.28 1116.38 1173.08 1103.65 1173.08C1086.59 1173.08 1072.33 1160.86 1068.65 1144.49C1060.58 1153.34 1049.1 1158.88 1036.36 1158.88C1016.97 1158.88 1000.51 1146.07 994.527 1128.26C991.666 1157.66 967.505 1180.61 938.118 1180.61C907.274 1180.61 882.202 1155.32 881.461 1123.84C866.841 1123.68 853.874 1116.47 845.632 1105.35C841.72 1116.15 831.616 1123.86 819.732 1123.86C808.655 1123.86 799.126 1117.16 794.712 1107.5C789.848 1121.97 776.497 1132.38 760.751 1132.38C745.216 1132.38 732.021 1122.25 726.997 1108.08C719.388 1123.08 704.121 1133.32 686.515 1133.32C661.312 1133.32 640.883 1112.34 640.883 1086.47C640.883 1078.78 642.697 1071.53 645.894 1065.14C644.67 1064.68 643.444 1064.22 642.225 1063.76C639.884 1075.37 629.863 1084.11 617.852 1084.11C604.107 1084.11 592.963 1072.67 592.963 1058.56C592.963 1057.82 593.011 1057.1 593.07 1056.38C587.721 1069.87 574.759 1079.38 559.699 1079.38C551.747 1079.38 543.918 1076.7 538.387 1072.21V1072.28C538.387 1099.73 516.798 1121.97 490.07 1121.97C475.489 1121.97 462.465 1115.34 453.593 1104.87C452.446 1120.26 439.967 1132.39 424.688 1132.39C418.668 1132.39 413.086 1130.5 408.449 1127.28C407.236 1140.23 396.618 1150.36 383.685 1150.36C377.273 1150.36 371.448 1147.85 367.038 1143.76C367.051 1144.23 367.073 1144.69 367.073 1145.15C367.073 1171.03 346.643 1192 321.443 1192C306.117 1192 292.571 1184.24 284.296 1172.34C279.292 1177.48 272.381 1180.65 264.75 1180.65C251.701 1180.65 240.79 1171.36 237.882 1158.88C231.492 1169.12 220.337 1175.92 207.613 1175.92C190.546 1175.92 176.29 1163.7 172.612 1147.33C164.538 1156.18 153.06 1161.72 140.316 1161.72C115.879 1161.72 96.0688 1141.38 96.0688 1116.29C96.0688 1112.8 96.4633 1109.42 97.1861 1106.16C93.1906 1108.96 88.3599 1110.61 83.1512 1110.61C70.7167 1110.61 60.4394 1101.24 58.5883 1089C52.1645 1101.82 39.1731 1110.61 24.1591 1110.61C15.0158 1110.61 7.37516 1107.34 0 1101.9V844.786H896.082V841H1440V1072.45C1438.16 1071.55 1435.89 1070.52 1434.47 1069.37ZM62.6962 1066.99C62.7994 1068.08 62.8437 1069.18 62.8585 1070.3C63.4558 1069.43 64.1122 1068.61 64.8074 1067.83C64.1086 1067.54 63.4023 1067.26 62.6962 1066.99ZM595.557 1046.03C595.504 1046.61 595.402 1047.18 595.323 1047.75C595.561 1047.23 595.797 1046.7 596.066 1046.21C595.896 1046.15 595.727 1046.09 595.557 1046.03ZM958.734 1064.15C958.837 1065.24 958.881 1066.34 958.896 1067.46C959.494 1066.59 960.15 1065.77 960.845 1064.99C960.146 1064.7 959.438 1064.42 958.734 1064.15ZM991.948 1104.14C992.199 1104.92 992.431 1105.7 992.649 1106.49C992.811 1105.42 992.995 1104.36 993.226 1103.31C992.811 1103.6 992.383 1103.88 991.948 1104.14Z" fill="#DEF7F9"/>
</svg>
